STARTFONT 2.1
COMMENT
COMMENT Converted from OpenType font "notosans_regular.ttf" by "otf2bdf 3.0".
COMMENT
FONT -FreeType-Noto Sans-Medium-R-Normal--25-180-100-100-P-126-ISO10646-1
SIZE 18 100 100
FONTBOUNDINGBOX 86 44 -16 -10
STARTPROPERTIES 19
FOUNDRY "FreeType"
FAMILY_NAME "Noto Sans"
WEIGHT_NAME "Medium"
SLANT "R"
SETWIDTH_NAME "Normal"
ADD_STYLE_NAME ""
PIXEL_SIZE 25
POINT_SIZE 180
RESOLUTION_X 100
RESOLUTION_Y 100
SPACING "P"
AVERAGE_WIDTH 126
CHARSET_REGISTRY "ISO10646"
CHARSET_ENCODING "1"
FONT_ASCENT 26
FONT_DESCENT 7
COPYRIGHT "Copyright 2015-2021 Google LLC. All Rights Reserved."
_OTF_FONTFILE "notosans_regular.ttf"
_OTF_PSNAME "NotoSans-Regular"
ENDPROPERTIES
CHARS 3053
STARTCHAR 0000
ENCODING 0
SWIDTH 0 0
DWIDTH 0 0
BBX 0 0 0 0
BITMAP
ENDCHAR
STARTCHAR 000D
ENCODING 13
SWIDTH 240 0
DWIDTH 6 0
BBX 0 0 0 0
BITMAP
ENDCHAR
STARTCHAR 0020
ENCODING 32
SWIDTH 240 0
DWIDTH 6 0
BBX 0 0 0 0
BITMAP
ENDCHAR
STARTCHAR 0021
ENCODING 33
SWIDTH 240 0
DWIDTH 6 0
BBX 3 18 2 0
BITMAP
E0
E0
E0
E0
E0
C0
C0
C0
C0
C0
40
40
40
00
00
E0
E0
E0
ENDCHAR
STARTCHAR 0022
ENCODING 34
SWIDTH 400 0
DWIDTH 10 0
BBX 7 7 2 11
BITMAP
CE
CC
CC
CC
C4
C4
C4
ENDCHAR
STARTCHAR 0023
ENCODING 35
SWIDTH 640 0
DWIDTH 16 0
BBX 15 18 1 0
BITMAP
0610
0630
0630
0430
0C30
7FFE
7FFE
0C60
0860
1860
1840
FFFC
FFFC
10C0
30C0
3080
3180
3180
ENDCHAR
STARTCHAR 0024
ENCODING 36
SWIDTH 560 0
DWIDTH 14 0
BBX 11 20 2 -1
BITMAP
0C00
0C00
1F00
7FC0
ECC0
CC00
CC00
CC00
FC00
7E00
1F80
0FC0
0CE0
0C60
0C60
CDC0
FF80
7E00
0C00
0C00
ENDCHAR
STARTCHAR 0025
ENCODING 37
SWIDTH 800 0
DWIDTH 20 0
BBX 19 18 1 0
BITMAP
3C0600
7E0600
460C00
C20800
C31800
C33000
C33000
C26780
466FC0
7EC8C0
3CD840
019840
011860
031860
061840
0608C0
0C0DC0
0C0780
ENDCHAR
STARTCHAR 0026
ENCODING 38
SWIDTH 720 0
DWIDTH 18 0
BBX 17 18 1 0
BITMAP
0F8000
1FC000
38E000
306000
306000
38E000
19C000
0F8000
1E0000
3B0300
71C300
60E600
E07600
E03C00
E01C00
707E00
7FE700
1FC380
ENDCHAR
STARTCHAR 0027
ENCODING 39
SWIDTH 200 0
DWIDTH 5 0
BBX 2 7 2 11
BITMAP
C0
C0
C0
C0
C0
C0
C0
ENDCHAR
STARTCHAR 0028
ENCODING 40
SWIDTH 280 0
DWIDTH 7 0
BBX 6 22 1 -4
BITMAP
1C
18
30
30
60
60
60
E0
C0
C0
C0
C0
C0
C0
E0
E0
60
60
70
30
18
18
ENDCHAR
STARTCHAR 0029
ENCODING 41
SWIDTH 280 0
DWIDTH 7 0
BBX 6 22 1 -4
BITMAP
C0
60
60
30
30
38
18
18
18
18
18
1C
18
18
18
18
38
30
30
70
60
C0
ENDCHAR
STARTCHAR 002A
ENCODING 42
SWIDTH 520 0
DWIDTH 13 0
BBX 12 11 1 8
BITMAP
0600
0600
0600
8600
F6F0
FFF0
0E00
0F00
1980
39C0
3080
ENDCHAR
STARTCHAR 002B
ENCODING 43
SWIDTH 560 0
DWIDTH 14 0
BBX 12 12 1 3
BITMAP
0600
0600
0600
0600
0600
FFF0
FFF0
0600
0600
0600
0600
0600
ENDCHAR
STARTCHAR 002C
ENCODING 44
SWIDTH 240 0
DWIDTH 6 0
BBX 4 6 1 -3
BITMAP
70
60
60
60
C0
C0
ENDCHAR
STARTCHAR 002D
ENCODING 45
SWIDTH 320 0
DWIDTH 8 0
BBX 6 2 1 6
BITMAP
FC
FC
ENDCHAR
STARTCHAR 002E
ENCODING 46
SWIDTH 240 0
DWIDTH 6 0
BBX 3 3 2 0
BITMAP
E0
E0
E0
ENDCHAR
STARTCHAR 002F
ENCODING 47
SWIDTH 360 0
DWIDTH 9 0
BBX 9 18 0 0
BITMAP
0180
0380
0300
0300
0600
0600
0600
0C00
0C00
1C00
1800
1800
3000
3000
3000
6000
6000
E000
ENDCHAR
STARTCHAR 0030
ENCODING 48
SWIDTH 560 0
DWIDTH 14 0
BBX 12 18 1 0
BITMAP
1F80
3FC0
70E0
6060
6070
E030
E030
C030
C030
C030
C030
E030
E030
6070
6060
70E0
3FC0
1F80
ENDCHAR
STARTCHAR 0031
ENCODING 49
SWIDTH 560 0
DWIDTH 14 0
BBX 6 18 3 0
BITMAP
0C
3C
7C
EC
8C
0C
0C
0C
0C
0C
0C
0C
0C
0C
0C
0C
0C
0C
ENDCHAR
STARTCHAR 0032
ENCODING 50
SWIDTH 560 0
DWIDTH 14 0
BBX 12 18 1 0
BITMAP
1F80
7FC0
60E0
0060
0060
0060
0060
00E0
00C0
0180
0300
0600
0C00
1800
3000
6000
FFF0
FFF0
ENDCHAR
STARTCHAR 0033
ENCODING 51
SWIDTH 560 0
DWIDTH 14 0
BBX 12 18 1 0
BITMAP
3F80
7FC0
60E0
0060
0060
0060
00E0
01C0
1F00
1FC0
00E0
0070
0030
0030
0070
80E0
FFE0
7F80
ENDCHAR
STARTCHAR 0034
ENCODING 52
SWIDTH 560 0
DWIDTH 14 0
BBX 13 18 1 0
BITMAP
00C0
01C0
03C0
03C0
06C0
0CC0
1CC0
18C0
30C0
60C0
60C0
C0C0
FFF8
FFF8
00C0
00C0
00C0
00C0
ENDCHAR
STARTCHAR 0035
ENCODING 53
SWIDTH 560 0
DWIDTH 14 0
BBX 11 18 2 0
BITMAP
7FC0
7FC0
E000
C000
C000
C000
C000
FF00
FF80
01C0
00E0
00E0
0060
0060
00E0
01C0
FF80
FF00
ENDCHAR
STARTCHAR 0036
ENCODING 54
SWIDTH 560 0
DWIDTH 14 0
BBX 12 18 1 0
BITMAP
07E0
1FE0
3800
3000
7000
6000
6000
6FC0
FFE0
F070
E030
E030
6030
6030
6030
3060
3FE0
0FC0
ENDCHAR
STARTCHAR 0037
ENCODING 55
SWIDTH 560 0
DWIDTH 14 0
BBX 12 18 1 0
BITMAP
FFF0
FFF0
0030
0060
0060
00C0
00C0
01C0
0180
0380
0300
0700
0600
0E00
0C00
0C00
1C00
1800
ENDCHAR
STARTCHAR 0038
ENCODING 56
SWIDTH 560 0
DWIDTH 14 0
BBX 12 18 1 0
BITMAP
1F80
3FE0
7060
6060
6060
6060
70E0
3DC0
0F00
3FC0
70E0
6070
C030
C030
E030
6070
7FE0
1FC0
ENDCHAR
STARTCHAR 0039
ENCODING 57
SWIDTH 560 0
DWIDTH 14 0
BBX 12 18 1 0
BITMAP
1F80
3FC0
70E0
6060
E070
C030
E030
E070
6070
7BB0
3F30
0030
0060
0060
00E0
01C0
3F80
3F00
ENDCHAR
STARTCHAR 003A
ENCODING 58
SWIDTH 240 0
DWIDTH 6 0
BBX 3 14 2 0
BITMAP
40
E0
E0
40
00
00
00
00
00
00
00
E0
E0
E0
ENDCHAR
STARTCHAR 003B
ENCODING 59
SWIDTH 240 0
DWIDTH 6 0
BBX 4 17 1 -3
BITMAP
20
70
70
20
00
00
00
00
00
00
00
70
60
60
E0
C0
C0
ENDCHAR
STARTCHAR 003C
ENCODING 60
SWIDTH 560 0
DWIDTH 14 0
BBX 12 12 1 3
BITMAP
0010
0070
01C0
0700
1C00
7000
E000
3C00
0F00
03E0
00F0
0010
ENDCHAR
STARTCHAR 003D
ENCODING 61
SWIDTH 560 0
DWIDTH 14 0
BBX 12 7 1 5
BITMAP
FFF0
FFF0
0000
0000
0000
FFF0
FFF0
ENDCHAR
STARTCHAR 003E
ENCODING 62
SWIDTH 560 0
DWIDTH 14 0
BBX 12 12 1 3
BITMAP
C000
F000
3C00
0F00
03C0
00F0
0070
01E0
0F00
3C00
F000
C000
ENDCHAR
STARTCHAR 003F
ENCODING 63
SWIDTH 400 0
DWIDTH 10 0
BBX 10 18 0 0
BITMAP
3F00
FF80
41C0
00C0
00C0
00C0
01C0
0380
0700
0E00
0C00
0800
1800
0000
0000
1C00
1C00
1C00
ENDCHAR
STARTCHAR 0040
ENCODING 64
SWIDTH 880 0
DWIDTH 22 0
BBX 20 20 1 -2
BITMAP
00FC00
03FF00
0E0380
1C00C0
300060
30FC20
61FE30
630430
430430
C30C30
C60C30
C30C30
430C20
639E60
61F3C0
600000
300000
180000
0F9E00
03FC00
ENDCHAR
STARTCHAR 0041
ENCODING 65
SWIDTH 600 0
DWIDTH 15 0
BBX 16 18 0 0
BITMAP
0180
03C0
03C0
03C0
0660
0660
0E70
0C30
0C30
1C38
1FF8
1FF8
301C
300C
700E
6006
6006
C007
ENDCHAR
STARTCHAR 0042
ENCODING 66
SWIDTH 640 0
DWIDTH 16 0
BBX 13 18 2 0
BITMAP
FF80
FFE0
E0F0
E030
E030
E030
E030
E0E0
FF80
FFE0
E030
E038
E038
E038
E038
E070
FFE0
FFC0
ENDCHAR
STARTCHAR 0043
ENCODING 67
SWIDTH 600 0
DWIDTH 15 0
BBX 13 18 2 0
BITMAP
07F0
1FF8
3810
7000
E000
E000
C000
C000
C000
C000
C000
C000
C000
E000
7000
7800
3FF0
0FF0
ENDCHAR
STARTCHAR 0044
ENCODING 68
SWIDTH 720 0
DWIDTH 18 0
BBX 15 18 2 0
BITMAP
FF80
FFE0
E0F0
E038
E01C
E00C
E00C
E00E
E00E
E00E
E00E
E00C
E00C
E01C
E038
E070
FFE0
FF80
ENDCHAR
STARTCHAR 0045
ENCODING 69
SWIDTH 520 0
DWIDTH 13 0
BBX 10 18 2 0
BITMAP
FFC0
FFC0
E000
E000
E000
E000
E000
E000
FFC0
FFC0
E000
E000
E000
E000
E000
E000
FFC0
FFC0
ENDCHAR
STARTCHAR 0046
ENCODING 70
SWIDTH 480 0
DWIDTH 12 0
BBX 10 18 2 0
BITMAP
FFC0
FFC0
E000
E000
E000
E000
E000
E000
FFC0
FFC0
E000
E000
E000
E000
E000
E000
E000
E000
ENDCHAR
STARTCHAR 0047
ENCODING 71
SWIDTH 720 0
DWIDTH 18 0
BBX 14 18 2 0
BITMAP
07F8
1FFC
3C08
7000
E000
E000
C000
C000
C000
C0FC
C0FC
C00C
C00C
E00C
700C
780C
3FFC
0FFC
ENDCHAR
STARTCHAR 0048
ENCODING 72
SWIDTH 720 0
DWIDTH 18 0
BBX 14 18 2 0
BITMAP
E00C
E00C
E00C
E00C
E00C
E00C
E00C
E00C
FFFC
FFFC
E00C
E00C
E00C
E00C
E00C
E00C
E00C
E00C
ENDCHAR
STARTCHAR 0049
ENCODING 73
SWIDTH 320 0
DWIDTH 8 0
BBX 6 18 1 0
BITMAP
FC
FC
30
30
30
30
30
30
30
30
30
30
30
30
30
30
7C
FC
ENDCHAR
STARTCHAR 004A
ENCODING 74
SWIDTH 240 0
DWIDTH 6 0
BBX 7 23 -2 -5
BITMAP
0E
0E
0E
0E
0E
0E
0E
0E
0E
0E
0E
0E
0E
0E
0E
0E
0E
0E
0E
0C
1C
F8
E0
ENDCHAR
STARTCHAR 004B
ENCODING 75
SWIDTH 600 0
DWIDTH 15 0
BBX 13 18 2 0
BITMAP
E038
E070
E0E0
E0C0
E180
E300
E600
EE00
FE00
F600
E700
E380
E180
E1C0
E0E0
E070
E030
E038
ENDCHAR
STARTCHAR 004C
ENCODING 76
SWIDTH 520 0
DWIDTH 13 0
BBX 10 18 2 0
BITMAP
E000
E000
E000
E000
E000
E000
E000
E000
E000
E000
E000
E000
E000
E000
E000
E000
FFC0
FFC0
ENDCHAR
STARTCHAR 004D
ENCODING 77
SWIDTH 880 0
DWIDTH 22 0
BBX 18 18 2 0
BITMAP
F001C0
F003C0
F803C0
D803C0
D806C0
CC06C0
CC06C0
EE0CC0
E60CC0
E618C0
E718C0
E318C0
E330C0
E1B0C0
E1F0C0
E1E0C0
E0E0C0
E0C0C0
ENDCHAR
STARTCHAR 004E
ENCODING 78
SWIDTH 760 0
DWIDTH 19 0
BBX 15 18 2 0
BITMAP
E00E
F00E
F80E
D80E
DC0E
CC0E
C60E
C70E
E30E
E38E
E1CE
E0CE
E0E6
E076
E036
E03E
E01E
E00E
ENDCHAR
STARTCHAR 004F
ENCODING 79
SWIDTH 760 0
DWIDTH 19 0
BBX 16 18 2 0
BITMAP
0FE0
3FF8
781C
700E
E006
C007
C007
C003
C003
C003
C003
C007
C007
E006
600E
781C
3FF8
0FF0
ENDCHAR
STARTCHAR 0050
ENCODING 80
SWIDTH 600 0
DWIDTH 15 0
BBX 12 18 2 0
BITMAP
FF00
FFC0
E0E0
E070
E070
E030
E070
E060
E0E0
FFC0
FF00
E000
E000
E000
E000
E000
E000
E000
ENDCHAR
STARTCHAR 0051
ENCODING 81
SWIDTH 760 0
DWIDTH 19 0
BBX 16 22 2 -4
BITMAP
0FE0
3FF8
781C
700E
E006
C007
C007
C003
C003
C003
C003
C007
C007
E006
600E
781C
3FF8
0FF0
0060
0070
0038
001E
ENDCHAR
STARTCHAR 0052
ENCODING 82
SWIDTH 600 0
DWIDTH 15 0
BBX 13 18 2 0
BITMAP
FF00
FFC0
E0E0
E070
E070
E030
E070
E060
E1E0
FF80
FF80
E180
E1C0
E0C0
E0E0
E070
E030
E038
ENDCHAR
STARTCHAR 0053
ENCODING 83
SWIDTH 520 0
DWIDTH 13 0
BBX 12 18 1 0
BITMAP
1FC0
3FE0
7020
6000
E000
6000
7000
7800
1F00
0FC0
01E0
0060
0060
0070
0060
80E0
FFC0
7F80
ENDCHAR
STARTCHAR 0054
ENCODING 84
SWIDTH 520 0
DWIDTH 13 0
BBX 14 18 0 0
BITMAP
FFFC
FFFC
0300
0300
0300
0300
0300
0300
0300
0300
0300
0300
0300
0300
0300
0300
0300
0300
ENDCHAR
STARTCHAR 0055
ENCODING 85
SWIDTH 720 0
DWIDTH 18 0
BBX 14 18 2 0
BITMAP
E00C
E00C
E00C
E00C
E00C
E00C
E00C
E00C
E00C
E00C
E00C
E00C
E00C
E01C
6018
7038
3FF0
1FE0
ENDCHAR
STARTCHAR 0056
ENCODING 86
SWIDTH 600 0
DWIDTH 15 0
BBX 15 18 0 0
BITMAP
C00E
E00E
600C
701C
3018
3018
3838
1830
1830
1C70
0C60
0C60
0EE0
06C0
06C0
07C0
0380
0380
ENDCHAR
STARTCHAR 0057
ENCODING 87
SWIDTH 920 0
DWIDTH 23 0
BBX 23 18 0 0
BITMAP
E0380E
60380E
60380C
706C0C
706C1C
306C1C
306E18
38C618
18C638
18C730
198330
1D8330
0D8370
0D81E0
0F01E0
0F01E0
0701E0
0600C0
ENDCHAR
STARTCHAR 0058
ENCODING 88
SWIDTH 560 0
DWIDTH 14 0
BBX 14 18 0 0
BITMAP
600C
7018
3038
1830
1C60
0CE0
06C0
0780
0380
0780
07C0
0EC0
0C60
1870
3830
3038
601C
E00C
ENDCHAR
STARTCHAR 0059
ENCODING 89
SWIDTH 560 0
DWIDTH 14 0
BBX 14 18 0 0
BITMAP
E00C
6018
7038
3030
3870
1860
1CE0
0CC0
07C0
0780
0380
0300
0300
0300
0300
0300
0300
0300
ENDCHAR
STARTCHAR 005A
ENCODING 90
SWIDTH 560 0
DWIDTH 14 0
BBX 12 18 1 0
BITMAP
FFF0
FFF0
0070
00E0
00C0
01C0
0380
0300
0700
0E00
0C00
1C00
3800
3000
7000
E000
FFF0
FFF0
ENDCHAR
STARTCHAR 005B
ENCODING 91
SWIDTH 320 0
DWIDTH 8 0
BBX 6 22 2 -4
BITMAP
FC
FC
C0
C0
C0
C0
C0
C0
C0
C0
C0
C0
C0
C0
C0
C0
C0
C0
C0
C0
FC
FC
ENDCHAR
STARTCHAR 005C
ENCODING 92
SWIDTH 360 0
DWIDTH 9 0
BBX 9 18 0 0
BITMAP
E000
6000
6000
7000
3000
3000
1800
1800
1C00
0C00
0C00
0E00
0600
0600
0300
0300
0380
0180
ENDCHAR
STARTCHAR 005D
ENCODING 93
SWIDTH 320 0
DWIDTH 8 0
BBX 5 22 1 -4
BITMAP
F8
F8
18
18
18
18
18
18
18
18
18
18
18
18
18
18
18
18
18
18
F8
F8
ENDCHAR
STARTCHAR 005E
ENCODING 94
SWIDTH 560 0
DWIDTH 14 0
BBX 12 11 1 7
BITMAP
0600
0600
0F00
0B00
1980
1980
30C0
30C0
6060
6060
C030
ENDCHAR
STARTCHAR 005F
ENCODING 95
SWIDTH 440 0
DWIDTH 11 0
BBX 11 2 0 -4
BITMAP
FFE0
FFE0
ENDCHAR
STARTCHAR 0060
ENCODING 96
SWIDTH 280 0
DWIDTH 7 0
BBX 5 4 1 15
BITMAP
E0
70
30
18
ENDCHAR
STARTCHAR 0061
ENCODING 97
SWIDTH 560 0
DWIDTH 14 0
BBX 11 14 1 0
BITMAP
0600
3FC0
30E0
0060
0060
0060
1FE0
7F60
6060
E060
C0E0
E0E0
7FE0
3E60
ENDCHAR
STARTCHAR 0062
ENCODING 98
SWIDTH 600 0
DWIDTH 15 0
BBX 12 19 2 0
BITMAP
C000
C000
C000
C000
C000
C600
DFC0
F0E0
E060
E070
C030
C030
C030
C030
E070
E070
E060
FFC0
CF80
ENDCHAR
STARTCHAR 0063
ENCODING 99
SWIDTH 480 0
DWIDTH 12 0
BBX 10 14 1 0
BITMAP
0700
1FC0
38C0
7000
6000
E000
E000
E000
E000
6000
6000
7000
3FC0
1FC0
ENDCHAR
STARTCHAR 0064
ENCODING 100
SWIDTH 600 0
DWIDTH 15 0
BBX 12 19 1 0
BITMAP
0030
0030
0030
0030
0030
0630
1FB0
38F0
7070
6030
E030
E030
E030
E030
6030
6030
7070
3FF0
1FB0
ENDCHAR
STARTCHAR 0065
ENCODING 101
SWIDTH 560 0
DWIDTH 14 0
BBX 12 14 1 0
BITMAP
0700
1FC0
38E0
7060
6070
6070
FFF0
FFF0
E000
6000
6000
7000
3FE0
1FE0
ENDCHAR
STARTCHAR 0066
ENCODING 102
SWIDTH 320 0
DWIDTH 8 0
BBX 10 19 0 0
BITMAP
07C0
1F80
1800
1800
1800
1800
FF00
1800
1800
1800
1800
1800
1800
1800
1800
1800
1800
1800
1800
ENDCHAR
STARTCHAR 0067
ENCODING 103
SWIDTH 600 0
DWIDTH 15 0
BBX 12 20 1 -6
BITMAP
0600
1FB0
38F0
7070
6030
E030
E030
E030
E030
6030
6030
7070
3FF0
1FB0
0030
0030
0030
4070
7FE0
3F80
ENDCHAR
STARTCHAR 0068
ENCODING 104
SWIDTH 600 0
DWIDTH 15 0
BBX 11 19 2 0
BITMAP
C000
C000
C000
C000
C000
C600
DFC0
F0E0
E060
E060
C060
C060
C060
C060
C060
C060
C060
C060
C060
ENDCHAR
STARTCHAR 0069
ENCODING 105
SWIDTH 240 0
DWIDTH 6 0
BBX 2 18 2 0
BITMAP
C0
C0
00
00
00
C0
C0
C0
C0
C0
C0
C0
C0
C0
C0
C0
C0
C0
ENDCHAR
STARTCHAR 006A
ENCODING 106
SWIDTH 240 0
DWIDTH 6 0
BBX 5 24 -1 -6
BITMAP
18
18
00
00
00
18
18
18
18
18
18
18
18
18
18
18
18
18
18
18
18
18
F8
F0
ENDCHAR
STARTCHAR 006B
ENCODING 107
SWIDTH 520 0
DWIDTH 13 0
BBX 11 19 2 0
BITMAP
C000
C000
C000
C000
C000
C000
C1C0
C380
C700
CE00
CC00
D800
FC00
EE00
C700
C300
C180
C1C0
C0E0
ENDCHAR
STARTCHAR 006C
ENCODING 108
SWIDTH 240 0
DWIDTH 6 0
BBX 2 19 2 0
BITMAP
C0
C0
C0
C0
C0
C0
C0
C0
C0
C0
C0
C0
C0
C0
C0
C0
C0
C0
C0
ENDCHAR
STARTCHAR 006D
ENCODING 109
SWIDTH 920 0
DWIDTH 23 0
BBX 19 14 2 0
BITMAP
070300
DFDFC0
F1D8E0
E0F060
E06060
C06060
C06060
C06060
C06060
C06060
C06060
C06060
C06060
C06060
ENDCHAR
STARTCHAR 006E
ENCODING 110
SWIDTH 600 0
DWIDTH 15 0
BBX 11 14 2 0
BITMAP
0700
DFC0
F0E0
E060
E060
C060
C060
C060
C060
C060
C060
C060
C060
C060
ENDCHAR
STARTCHAR 006F
ENCODING 111
SWIDTH 600 0
DWIDTH 15 0
BBX 13 14 1 0
BITMAP
0300
1FC0
38E0
7070
6030
E038
E038
E038
E038
6038
6030
7070
3FE0
1FC0
ENDCHAR
STARTCHAR 0070
ENCODING 112
SWIDTH 600 0
DWIDTH 15 0
BBX 12 20 2 -6
BITMAP
0600
DFC0
F1E0
E060
E070
C030
C030
C030
C030
E070
E070
E0E0
FFC0
CF80
C000
C000
C000
C000
C000
C000
ENDCHAR
STARTCHAR 0071
ENCODING 113
SWIDTH 600 0
DWIDTH 15 0
BBX 12 20 1 -6
BITMAP
0600
1FB0
38F0
7070
6030
E030
E030
E030
E030
6030
6030
7070
3FF0
1FB0
0030
0030
0030
0030
0030
0030
ENDCHAR
STARTCHAR 0072
ENCODING 114
SWIDTH 400 0
DWIDTH 10 0
BBX 8 14 2 0
BITMAP
07
CF
D9
F0
E0
E0
C0
C0
C0
C0
C0
C0
C0
C0
ENDCHAR
STARTCHAR 0073
ENCODING 115
SWIDTH 440 0
DWIDTH 11 0
BBX 10 14 1 0
BITMAP
0E00
7F80
7180
C000
E000
7000
3C00
1F00
0380
01C0
00C0
81C0
FF80
7F00
ENDCHAR
STARTCHAR 0074
ENCODING 116
SWIDTH 360 0
DWIDTH 9 0
BBX 8 16 0 0
BITMAP
18
18
38
FF
38
38
38
38
38
38
38
38
38
38
1F
0F
ENDCHAR
STARTCHAR 0075
ENCODING 117
SWIDTH 600 0
DWIDTH 15 0
BBX 11 13 2 0
BITMAP
C060
C060
C060
C060
C060
C060
C060
C060
C060
C060
E0E0
7FE0
3F60
ENDCHAR
STARTCHAR 0076
ENCODING 118
SWIDTH 480 0
DWIDTH 12 0
BBX 12 13 0 0
BITMAP
E030
6030
6070
7060
3060
30C0
18C0
19C0
1D80
0D80
0F80
0700
0700
ENDCHAR
STARTCHAR 0077
ENCODING 119
SWIDTH 760 0
DWIDTH 19 0
BBX 18 13 1 0
BITMAP
C1C0C0
C1E0C0
C1E1C0
E36180
637180
633180
673300
763300
361B00
361B00
3C1E00
1C0E00
1C0E00
ENDCHAR
STARTCHAR 0078
ENCODING 120
SWIDTH 520 0
DWIDTH 13 0
BBX 11 13 1 0
BITMAP
E0E0
60C0
3180
3B80
1F00
0E00
0E00
1F00
1B80
3180
70C0
60E0
C060
ENDCHAR
STARTCHAR 0079
ENCODING 121
SWIDTH 480 0
DWIDTH 12 0
BBX 12 19 0 -6
BITMAP
E030
6030
6070
3060
3060
38E0
18C0
18C0
0D80
0D80
0D80
0700
0700
0600
0600
0E00
0C00
FC00
F000
ENDCHAR
STARTCHAR 007A
ENCODING 122
SWIDTH 440 0
DWIDTH 11 0
BBX 10 13 1 0
BITMAP
FFC0
0180
0380
0300
0600
0E00
1C00
1800
3000
7000
6000
FFC0
FFC0
ENDCHAR
STARTCHAR 007B
ENCODING 123
SWIDTH 360 0
DWIDTH 9 0
BBX 8 22 1 -4
BITMAP
07
0F
1C
18
18
18
18
18
18
38
F0
E0
38
18
18
18
18
18
18
1C
0F
07
ENDCHAR
STARTCHAR 007C
ENCODING 124
SWIDTH 520 0
DWIDTH 13 0
BBX 2 25 6 -6
BITMAP
C0
C0
C0
C0
C0
C0
C0
C0
C0
C0
C0
C0
C0
C0
C0
C0
C0
C0
C0
C0
C0
C0
C0
C0
C0
ENDCHAR
STARTCHAR 007D
ENCODING 125
SWIDTH 360 0
DWIDTH 9 0
BBX 8 22 1 -4
BITMAP
C0
F0
30
38
18
18
18
18
18
18
0F
0F
1C
18
18
18
18
18
38
38
F0
C0
ENDCHAR
STARTCHAR 007E
ENCODING 126
SWIDTH 560 0
DWIDTH 14 0
BBX 12 3 1 7
BITMAP
7E10
EFF0
81E0
ENDCHAR
STARTCHAR 00A0
ENCODING 160
SWIDTH 240 0
DWIDTH 6 0
BBX 0 0 0 0
BITMAP
ENDCHAR
STARTCHAR 00A1
ENCODING 161
SWIDTH 240 0
DWIDTH 6 0
BBX 3 19 2 -5
BITMAP
40
E0
E0
40
00
00
40
C0
C0
C0
C0
C0
C0
C0
C0
E0
E0
E0
E0
ENDCHAR
STARTCHAR 00A2
ENCODING 162
SWIDTH 560 0
DWIDTH 14 0
BBX 10 18 2 0
BITMAP
0600
0600
1FC0
3FC0
7000
6000
E000
E000
E000
E000
E000
6000
6000
7840
3FC0
0F80
0600
0600
ENDCHAR
STARTCHAR 00A3
ENCODING 163
SWIDTH 560 0
DWIDTH 14 0
BBX 12 18 1 0
BITMAP
07E0
1FF0
1800
3800
3000
3000
3000
3000
FFC0
FFC0
3000
3000
3000
3000
3000
6000
FFF0
FFF0
ENDCHAR
STARTCHAR 00A4
ENCODING 164
SWIDTH 560 0
DWIDTH 14 0
BBX 11 11 2 3
BITMAP
CE60
FFC0
6180
40C0
C0C0
C0C0
C0C0
6180
7FC0
DEE0
8040
ENDCHAR
STARTCHAR 00A5
ENCODING 165
SWIDTH 560 0
DWIDTH 14 0
BBX 13 18 1 0
BITMAP
C038
C030
6070
6060
30E0
30C0
19C0
1980
0F00
0F00
7FE0
0600
0600
7FE0
7FE0
0600
0600
0600
ENDCHAR
STARTCHAR 00A6
ENCODING 166
SWIDTH 520 0
DWIDTH 13 0
BBX 2 25 6 -6
BITMAP
C0
C0
C0
C0
C0
C0
C0
C0
C0
C0
00
00
00
00
00
C0
C0
C0
C0
C0
C0
C0
C0
C0
C0
ENDCHAR
STARTCHAR 00A7
ENCODING 167
SWIDTH 480 0
DWIDTH 12 0
BBX 10 19 1 0
BITMAP
3F80
7FC0
6000
6000
7000
3C00
3F00
63C0
60C0
60C0
60C0
39C0
1F80
0380
01C0
00C0
80C0
FF80
7F00
ENDCHAR
STARTCHAR 00A8
ENCODING 168
SWIDTH 560 0
DWIDTH 14 0
BBX 7 2 4 16
BITMAP
CE
CE
ENDCHAR
STARTCHAR 00A9
ENCODING 169
SWIDTH 800 0
DWIDTH 20 0
BBX 19 18 1 0
BITMAP
03F800
0E1E00
180300
300180
61F880
4300C0
460040
C60040
C60060
C60060
C60040
C60040
4308C0
63F8C0
306180
180300
0E0E00
07F800
ENDCHAR
STARTCHAR 00AA
ENCODING 170
SWIDTH 320 0
DWIDTH 8 0
BBX 7 8 1 10
BITMAP
7C
4C
06
3E
F6
86
86
FE
ENDCHAR
STARTCHAR 00AB
ENCODING 171
SWIDTH 480 0
DWIDTH 12 0
BBX 11 10 1 1
BITMAP
0840
18C0
39C0
7380
6300
C600
6300
3180
39C0
1CE0
ENDCHAR
STARTCHAR 00AC
ENCODING 172
SWIDTH 560 0
DWIDTH 14 0
BBX 12 7 1 3
BITMAP
FFF0
FFF0
0030
0030
0030
0030
0030
ENDCHAR
STARTCHAR 00AD
ENCODING 173
SWIDTH 320 0
DWIDTH 8 0
BBX 6 2 1 6
BITMAP
FC
FC
ENDCHAR
STARTCHAR 00AE
ENCODING 174
SWIDTH 800 0
DWIDTH 20 0
BBX 19 18 1 0
BITMAP
03F800
0E1E00
180300
300180
63F080
4338C0
431840
C31840
C33860
C3F060
C33040
C33040
4318C0
6318C0
330D80
180300
0E0E00
07F800
ENDCHAR
STARTCHAR 00AF
ENCODING 175
SWIDTH 480 0
DWIDTH 12 0
BBX 13 2 0 19
BITMAP
FFF8
FFF8
ENDCHAR
STARTCHAR 00B0
ENCODING 176
SWIDTH 400 0
DWIDTH 10 0
BBX 8 8 1 10
BITMAP
3E
67
43
C1
C1
63
7E
08
ENDCHAR
STARTCHAR 00B1
ENCODING 177
SWIDTH 560 0
DWIDTH 14 0
BBX 12 15 1 0
BITMAP
0600
0600
0600
0600
0600
FFF0
FFF0
0600
0600
0600
0600
0600
0000
FFF0
FFF0
ENDCHAR
STARTCHAR 00B2
ENCODING 178
SWIDTH 320 0
DWIDTH 8 0
BBX 7 11 1 10
BITMAP
FC
CC
06
06
0C
18
30
60
C0
FE
FE
ENDCHAR
STARTCHAR 00B3
ENCODING 179
SWIDTH 320 0
DWIDTH 8 0
BBX 8 11 0 10
BITMAP
7E
47
03
03
3E
3E
03
03
03
FE
7C
ENDCHAR
STARTCHAR 00B4
ENCODING 180
SWIDTH 280 0
DWIDTH 7 0
BBX 5 4 1 15
BITMAP
38
70
60
C0
ENDCHAR
STARTCHAR 00B5
ENCODING 181
SWIDTH 600 0
DWIDTH 15 0
BBX 11 19 2 -6
BITMAP
C060
C060
C060
C060
C060
C060
C060
C060
C060
C060
E0E0
FFE0
DF20
C000
C000
C000
C000
C000
C000
ENDCHAR
STARTCHAR 00B6
ENCODING 182
SWIDTH 640 0
DWIDTH 16 0
BBX 13 22 1 -3
BITMAP
1FF8
3F98
7F98
7F98
FF98
FF98
FF98
FF98
7F98
7F98
7F98
3F98
0198
0198
0198
0198
0198
0198
0198
0198
0198
0198
ENDCHAR
STARTCHAR 00B7
ENCODING 183
SWIDTH 240 0
DWIDTH 6 0
BBX 3 3 2 8
BITMAP
E0
E0
C0
ENDCHAR
STARTCHAR 00B8
ENCODING 184
SWIDTH 200 0
DWIDTH 5 0
BBX 5 6 0 -6
BITMAP
30
30
18
08
38
F0
ENDCHAR
STARTCHAR 00B9
ENCODING 185
SWIDTH 320 0
DWIDTH 8 0
BBX 5 11 1 10
BITMAP
38
78
D8
18
18
18
18
18
18
18
18
ENDCHAR
STARTCHAR 00BA
ENCODING 186
SWIDTH 360 0
DWIDTH 9 0
BBX 8 8 1 10
BITMAP
3C
E6
C2
83
83
C2
C6
7C
ENDCHAR
STARTCHAR 00BB
ENCODING 187
SWIDTH 480 0
DWIDTH 12 0
BBX 11 11 1 1
BITMAP
4200
E700
6300
3180
18C0
1CE0
18C0
3180
6300
C600
4200
ENDCHAR
STARTCHAR 00BC
ENCODING 188
SWIDTH 720 0
DWIDTH 18 0
BBX 17 18 1 0
BITMAP
180600
780C00
D80C00
181800
183000
183000
186000
184300
18C700
198F00
198B00
031B00
023300
062300
0C7F80
0C7F80
180300
300300
ENDCHAR
STARTCHAR 00BD
ENCODING 189
SWIDTH 760 0
DWIDTH 19 0
BBX 17 18 1 0
BITMAP
380C00
781800
D81800
983000
183000
186000
18C000
18CF00
19BF80
190180
1B0180
060180
060300
0C0600
080C00
181800
303F80
303F80
ENDCHAR
STARTCHAR 00BE
ENCODING 190
SWIDTH 760 0
DWIDTH 19 0
BBX 19 18 0 0
BITMAP
7C0180
660300
030300
030600
0E0C00
3E0C00
031800
0318C0
0331C0
E663C0
7C62C0
00C6C0
00CCC0
0188C0
031FE0
031FE0
0600C0
0400C0
ENDCHAR
STARTCHAR 00BF
ENCODING 191
SWIDTH 400 0
DWIDTH 10 0
BBX 9 19 1 -5
BITMAP
0400
0E00
0E00
0400
0000
0000
0400
0C00
0C00
1800
3000
6000
C000
C000
C000
C000
E180
7F80
3E00
ENDCHAR
STARTCHAR 00C0
ENCODING 192
SWIDTH 600 0
DWIDTH 15 0
BBX 16 24 0 0
BITMAP
0600
0700
0380
0180
0000
0000
0180
03C0
03C0
03C0
0660
0660
0E70
0C30
0C30
1C38
1FF8
1FF8
301C
300C
700E
6006
6006
C007
ENDCHAR
STARTCHAR 00C1
ENCODING 193
SWIDTH 600 0
DWIDTH 15 0
BBX 16 24 0 0
BITMAP
0070
00E0
00C0
0180
0000
0000
0180
03C0
03C0
03C0
0660
0660
0E70
0C30
0C30
1C38
1FF8
1FF8
301C
300C
700E
6006
6006
C007
ENDCHAR
STARTCHAR 00C2
ENCODING 194
SWIDTH 600 0
DWIDTH 15 0
BBX 16 24 0 0
BITMAP
0180
03C0
07E0
0C70
0000
0000
0180
03C0
03C0
03C0
0660
0660
0E70
0C30
0C30
1C38
1FF8
1FF8
301C
300C
700E
6006
6006
C007
ENDCHAR
STARTCHAR 00C3
ENCODING 195
SWIDTH 600 0
DWIDTH 15 0
BBX 16 23 0 0
BITMAP
0618
0FF0
09F0
0000
0000
0180
03C0
03C0
03C0
0660
0660
0E70
0C30
0C30
1C38
1FF8
1FF8
301C
300C
700E
6006
6006
C007
ENDCHAR
STARTCHAR 00C4
ENCODING 196
SWIDTH 600 0
DWIDTH 15 0
BBX 16 23 0 0
BITMAP
0420
0E60
0420
0000
0000
0180
03C0
03C0
03C0
0660
0660
0E70
0C30
0C30
1C38
1FF8
1FF8
301C
300C
700E
6006
6006
C007
ENDCHAR
STARTCHAR 00C5
ENCODING 197
SWIDTH 600 0
DWIDTH 15 0
BBX 16 22 0 0
BITMAP
03C0
0640
0660
0660
03C0
03C0
03C0
03C0
0660
0660
0E70
0C30
0C30
1C38
1FF8
1FF8
301C
300C
700E
6006
6006
C007
ENDCHAR
STARTCHAR 00C6
ENCODING 198
SWIDTH 880 0
DWIDTH 22 0
BBX 21 18 0 0
BITMAP
00FFF8
00FFF8
01D800
019800
039800
031800
071800
061800
0E1FF0
0C1FF0
0FF800
1FF800
181800
301800
301800
701800
601FF8
E01FF8
ENDCHAR
STARTCHAR 00C7
ENCODING 199
SWIDTH 600 0
DWIDTH 15 0
BBX 13 24 2 -6
BITMAP
07F0
1FF8
3810
7000
E000
E000
C000
C000
C000
C000
C000
C000
C000
E000
7000
7800
3FF0
0FF0
0100
0300
01C0
00C0
01C0
0780
ENDCHAR
STARTCHAR 00C8
ENCODING 200
SWIDTH 520 0
DWIDTH 13 0
BBX 10 24 2 0
BITMAP
3800
1C00
0C00
0600
0000
0000
FFC0
FFC0
E000
E000
E000
E000
E000
E000
FFC0
FFC0
E000
E000
E000
E000
E000
E000
FFC0
FFC0
ENDCHAR
STARTCHAR 00C9
ENCODING 201
SWIDTH 520 0
DWIDTH 13 0
BBX 10 24 2 0
BITMAP
0180
0380
0700
0600
0000
0000
FFC0
FFC0
E000
E000
E000
E000
E000
E000
FFC0
FFC0
E000
E000
E000
E000
E000
E000
FFC0
FFC0
ENDCHAR
STARTCHAR 00CA
ENCODING 202
SWIDTH 520 0
DWIDTH 13 0
BBX 10 24 2 0
BITMAP
0E00
0E00
1B00
3180
0000
0000
FFC0
FFC0
E000
E000
E000
E000
E000
E000
FFC0
FFC0
E000
E000
E000
E000
E000
E000
FFC0
FFC0
ENDCHAR
STARTCHAR 00CB
ENCODING 203
SWIDTH 520 0
DWIDTH 13 0
BBX 10 23 2 0
BITMAP
1180
3180
1180
0000
0000
FFC0
FFC0
E000
E000
E000
E000
E000
E000
FFC0
FFC0
E000
E000
E000
E000
E000
E000
FFC0
FFC0
ENDCHAR
STARTCHAR 00CC
ENCODING 204
SWIDTH 320 0
DWIDTH 8 0
BBX 6 24 1 0
BITMAP
E0
60
30
18
00
00
FC
FC
30
30
30
30
30
30
30
30
30
30
30
30
30
30
7C
FC
ENDCHAR
STARTCHAR 00CD
ENCODING 205
SWIDTH 320 0
DWIDTH 8 0
BBX 7 24 1 0
BITMAP
0E
0C
18
30
00
00
FC
FC
30
30
30
30
30
30
30
30
30
30
30
30
30
30
7C
FC
ENDCHAR
STARTCHAR 00CE
ENCODING 206
SWIDTH 320 0
DWIDTH 8 0
BBX 7 24 1 0
BITMAP
30
78
6C
C6
00
00
FC
FC
30
30
30
30
30
30
30
30
30
30
30
30
30
30
7C
FC
ENDCHAR
STARTCHAR 00CF
ENCODING 207
SWIDTH 320 0
DWIDTH 8 0
BBX 7 23 1 0
BITMAP
84
CE
C4
00
00
FC
FC
30
30
30
30
30
30
30
30
30
30
30
30
30
30
7C
FC
ENDCHAR
STARTCHAR 00D0
ENCODING 208
SWIDTH 720 0
DWIDTH 18 0
BBX 16 18 1 0
BITMAP
3FC0
3FF0
3078
301C
300E
3006
3006
3007
FF07
FF07
3007
3006
3006
300E
301C
3038
3FF0
3FC0
ENDCHAR
STARTCHAR 00D1
ENCODING 209
SWIDTH 760 0
DWIDTH 19 0
BBX 15 23 2 0
BITMAP
0E10
1FB0
19E0
0000
0000
E00E
F00E
F80E
D80E
DC0E
CC0E
C60E
C70E
E30E
E38E
E1CE
E0CE
E0E6
E076
E036
E03E
E01E
E00E
ENDCHAR
STARTCHAR 00D2
ENCODING 210
SWIDTH 760 0
DWIDTH 19 0
BBX 16 24 2 0
BITMAP
0600
0700
0300
0180
0000
0000
0FE0
3FF8
781C
700E
E006
C007
C007
C003
C003
C003
C003
C007
C007
E006
600E
781C
3FF8
0FF0
ENDCHAR
STARTCHAR 00D3
ENCODING 211
SWIDTH 760 0
DWIDTH 19 0
BBX 16 24 2 0
BITMAP
0060
00E0
00C0
0180
0000
0000
0FE0
3FF8
781C
700E
E006
C007
C007
C003
C003
C003
C003
C007
C007
E006
600E
781C
3FF8
0FF0
ENDCHAR
STARTCHAR 00D4
ENCODING 212
SWIDTH 760 0
DWIDTH 19 0
BBX 16 24 2 0
BITMAP
0180
03C0
06C0
0C60
0010
0000
0FE0
3FF8
781C
700E
E006
C007
C007
C003
C003
C003
C003
C007
C007
E006
600E
781C
3FF8
0FF0
ENDCHAR
STARTCHAR 00D5
ENCODING 213
SWIDTH 760 0
DWIDTH 19 0
BBX 16 23 2 0
BITMAP
0610
0FB0
19F0
0000
0000
0FE0
3FF8
781C
700E
E006
C007
C007
C003
C003
C003
C003
C007
C007
E006
600E
781C
3FF8
0FF0
ENDCHAR
STARTCHAR 00D6
ENCODING 214
SWIDTH 760 0
DWIDTH 19 0
BBX 16 23 2 0
BITMAP
0420
0E60
0460
0000
0000
0FE0
3FF8
781C
700E
E006
C007
C007
C003
C003
C003
C003
C007
C007
E006
600E
781C
3FF8
0FF0
ENDCHAR
STARTCHAR 00D7
ENCODING 215
SWIDTH 560 0
DWIDTH 14 0
BBX 11 11 2 3
BITMAP
C040
E0C0
7180
3B00
1E00
0E00
1F00
3380
61C0
C0E0
0040
ENDCHAR
STARTCHAR 00D8
ENCODING 216
SWIDTH 760 0
DWIDTH 19 0
BBX 16 19 2 -1
BITMAP
0004
0FE6
3FFC
781C
703E
E036
C067
C0E7
C0C3
C183
C303
C303
C607
CC07
FC06
780E
781C
7FF8
6FF0
ENDCHAR
STARTCHAR 00D9
ENCODING 217
SWIDTH 720 0
DWIDTH 18 0
BBX 14 24 2 0
BITMAP
0E00
0600
0700
0300
0000
0000
E00C
E00C
E00C
E00C
E00C
E00C
E00C
E00C
E00C
E00C
E00C
E00C
E00C
E01C
6018
7038
3FF0
1FE0
ENDCHAR
STARTCHAR 00DA
ENCODING 218
SWIDTH 720 0
DWIDTH 18 0
BBX 14 24 2 0
BITMAP
00E0
00C0
0180
0300
0000
0000
E00C
E00C
E00C
E00C
E00C
E00C
E00C
E00C
E00C
E00C
E00C
E00C
E00C
E01C
6018
7038
3FF0
1FE0
ENDCHAR
STARTCHAR 00DB
ENCODING 219
SWIDTH 720 0
DWIDTH 18 0
BBX 14 24 2 0
BITMAP
0300
0780
0FC0
1C60
0000
0000
E00C
E00C
E00C
E00C
E00C
E00C
E00C
E00C
E00C
E00C
E00C
E00C
E00C
E01C
6018
7038
3FF0
1FE0
ENDCHAR
STARTCHAR 00DC
ENCODING 220
SWIDTH 720 0
DWIDTH 18 0
BBX 14 23 2 0
BITMAP
0C40
0CE0
0C40
0000
0000
E00C
E00C
E00C
E00C
E00C
E00C
E00C
E00C
E00C
E00C
E00C
E00C
E00C
E01C
6018
7038
3FF0
1FE0
ENDCHAR
STARTCHAR 00DD
ENCODING 221
SWIDTH 560 0
DWIDTH 14 0
BBX 14 24 0 0
BITMAP
00E0
01C0
0180
0300
0000
0000
E00C
6018
7038
3030
3870
1860
1CE0
0CC0
07C0
0780
0380
0300
0300
0300
0300
0300
0300
0300
ENDCHAR
STARTCHAR 00DE
ENCODING 222
SWIDTH 600 0
DWIDTH 15 0
BBX 12 18 2 0
BITMAP
E000
E000
E000
FE00
FFC0
E1E0
E070
E070
E030
E070
E070
E0E0
FFC0
FF80
E000
E000
E000
E000
ENDCHAR
STARTCHAR 00DF
ENCODING 223
SWIDTH 600 0
DWIDTH 15 0
BBX 13 19 2 0
BITMAP
3F80
7FC0
E0E0
C060
C060
C0C0
C180
C300
C700
C700
C380
C1E0
C0F0
C030
C038
C038
C830
CFF0
C7E0
ENDCHAR
STARTCHAR 00E0
ENCODING 224
SWIDTH 560 0
DWIDTH 14 0
BBX 11 19 1 0
BITMAP
1C00
0C00
0600
0300
0000
0600
3FC0
30E0
0060
0060
0060
1FE0
7F60
6060
E060
C0E0
E0E0
7FE0
3E60
ENDCHAR
STARTCHAR 00E1
ENCODING 225
SWIDTH 560 0
DWIDTH 14 0
BBX 11 19 1 0
BITMAP
0180
0380
0700
0600
0000
0600
3FC0
30E0
0060
0060
0060
1FE0
7F60
6060
E060
C0E0
E0E0
7FE0
3E60
ENDCHAR
STARTCHAR 00E2
ENCODING 226
SWIDTH 560 0
DWIDTH 14 0
BBX 11 19 1 0
BITMAP
0F00
0F00
1980
30C0
0000
0600
3FC0
30E0
0060
0060
0060
1FE0
7F60
6060
E060
C0E0
E0E0
7FE0
3E60
ENDCHAR
STARTCHAR 00E3
ENCODING 227
SWIDTH 560 0
DWIDTH 14 0
BBX 11 18 1 0
BITMAP
3C40
3FC0
6180
0000
0600
3FC0
30E0
0060
0060
0060
1FE0
7F60
6060
E060
C0E0
E0E0
7FE0
3E60
ENDCHAR
STARTCHAR 00E4
ENCODING 228
SWIDTH 560 0
DWIDTH 14 0
BBX 11 18 1 0
BITMAP
1980
1980
0000
0000
0600
3FC0
30E0
0060
0060
0060
1FE0
7F60
6060
E060
C0E0
E0E0
7FE0
3E60
ENDCHAR
STARTCHAR 00E5
ENCODING 229
SWIDTH 560 0
DWIDTH 14 0
BBX 11 20 1 0
BITMAP
0F00
1980
1980
0F00
0F00
0000
0600
3FC0
30E0
0060
0060
0060
1FE0
7F60
6060
E060
C0E0
E0E0
7FE0
3E60
ENDCHAR
STARTCHAR 00E6
ENCODING 230
SWIDTH 840 0
DWIDTH 21 0
BBX 19 14 1 0
BITMAP
0E0700
7F9F80
31F9C0
00E0E0
00E060
00E060
1FFFE0
7FFFE0
60E000
E0E000
C0E000
E1B000
7FBFE0
3E1FC0
ENDCHAR
STARTCHAR 00E7
ENCODING 231
SWIDTH 480 0
DWIDTH 12 0
BBX 10 20 1 -6
BITMAP
0700
1FC0
38C0
7000
6000
E000
E000
E000
E000
6000
6000
7000
3FC0
1FC0
0600
0600
0300
0180
0300
0E00
ENDCHAR
STARTCHAR 00E8
ENCODING 232
SWIDTH 560 0
DWIDTH 14 0
BBX 12 19 1 0
BITMAP
1C00
0C00
0600
0300
0000
0700
1FC0
38E0
7060
6070
6070
FFF0
FFF0
E000
6000
6000
7000
3FE0
1FE0
ENDCHAR
STARTCHAR 00E9
ENCODING 233
SWIDTH 560 0
DWIDTH 14 0
BBX 12 19 1 0
BITMAP
01C0
0380
0300
0600
0000
0700
1FC0
38E0
7060
6070
6070
FFF0
FFF0
E000
6000
6000
7000
3FE0
1FE0
ENDCHAR
STARTCHAR 00EA
ENCODING 234
SWIDTH 560 0
DWIDTH 14 0
BBX 12 19 1 0
BITMAP
0700
0F00
1980
30C0
0000
0700
1FC0
38E0
7060
6070
6070
FFF0
FFF0
E000
6000
6000
7000
3FE0
1FE0
ENDCHAR
STARTCHAR 00EB
ENCODING 235
SWIDTH 560 0
DWIDTH 14 0
BBX 12 18 1 0
BITMAP
19C0
19C0
0000
0000
0700
1FC0
38E0
7060
6070
6070
FFF0
FFF0
E000
6000
6000
7000
3FE0
1FE0
ENDCHAR
STARTCHAR 00EC
ENCODING 236
SWIDTH 240 0
DWIDTH 6 0
BBX 5 19 0 0
BITMAP
E0
70
30
18
00
00
30
30
30
30
30
30
30
30
30
30
30
30
30
ENDCHAR
STARTCHAR 00ED
ENCODING 237
SWIDTH 240 0
DWIDTH 6 0
BBX 5 19 2 0
BITMAP
38
70
60
C0
00
00
C0
C0
C0
C0
C0
C0
C0
C0
C0
C0
C0
C0
C0
ENDCHAR
STARTCHAR 00EE
ENCODING 238
SWIDTH 240 0
DWIDTH 6 0
BBX 8 19 -1 0
BITMAP
1C
3E
66
C3
00
00
18
18
18
18
18
18
18
18
18
18
18
18
18
ENDCHAR
STARTCHAR 00EF
ENCODING 239
SWIDTH 240 0
DWIDTH 6 0
BBX 7 18 0 0
BITMAP
CE
CE
00
00
00
30
30
30
30
30
30
30
30
30
30
30
30
30
ENDCHAR
STARTCHAR 00F0
ENCODING 240
SWIDTH 600 0
DWIDTH 15 0
BBX 13 19 1 0
BITMAP
0C20
0EE0
0780
0FC0
1CC0
0060
0070
0F30
3FF0
7078
6038
6038
E018
E038
E038
6030
7070
3FE0
1FC0
ENDCHAR
STARTCHAR 00F1
ENCODING 241
SWIDTH 600 0
DWIDTH 15 0
BBX 11 18 2 0
BITMAP
3C40
7FC0
6380
0000
0700
DFC0
F0E0
E060
E060
C060
C060
C060
C060
C060
C060
C060
C060
C060
ENDCHAR
STARTCHAR 00F2
ENCODING 242
SWIDTH 600 0
DWIDTH 15 0
BBX 13 19 1 0
BITMAP
0C00
0E00
0700
0300
0000
0300
1FC0
38E0
7070
6030
E038
E038
E038
E038
6038
6030
7070
3FE0
1FC0
ENDCHAR
STARTCHAR 00F3
ENCODING 243
SWIDTH 600 0
DWIDTH 15 0
BBX 13 19 1 0
BITMAP
01C0
0180
0300
0600
0000
0300
1FC0
38E0
7070
6030
E038
E038
E038
E038
6038
6030
7070
3FE0
1FC0
ENDCHAR
STARTCHAR 00F4
ENCODING 244
SWIDTH 600 0
DWIDTH 15 0
BBX 13 19 1 0
BITMAP
0700
0F80
1DC0
3060
0000
0300
1FC0
38E0
7070
6030
E038
E038
E038
E038
6038
6030
7070
3FE0
1FC0
ENDCHAR
STARTCHAR 00F5
ENCODING 245
SWIDTH 600 0
DWIDTH 15 0
BBX 13 18 1 0
BITMAP
1E20
37E0
21C0
0000
0300
1FC0
38E0
7070
6030
E038
E038
E038
E038
6038
6030
7070
3FE0
1FC0
ENDCHAR
STARTCHAR 00F6
ENCODING 246
SWIDTH 600 0
DWIDTH 15 0
BBX 13 18 1 0
BITMAP
18C0
18C0
0000
0000
0300
1FC0
38E0
7070
6030
E038
E038
E038
E038
6038
6030
7070
3FE0
1FC0
ENDCHAR
STARTCHAR 00F7
ENCODING 247
SWIDTH 560 0
DWIDTH 14 0
BBX 12 11 1 4
BITMAP
0600
0600
0000
0000
FFF0
FFF0
0000
0000
0600
0700
0600
ENDCHAR
STARTCHAR 00F8
ENCODING 248
SWIDTH 600 0
DWIDTH 15 0
BBX 13 15 1 -1
BITMAP
0330
1FF0
38E0
70F0
60F0
E1B8
E338
E738
E638
6C38
7830
7870
3FE0
7FC0
2000
ENDCHAR
STARTCHAR 00F9
ENCODING 249
SWIDTH 600 0
DWIDTH 15 0
BBX 11 19 2 0
BITMAP
1800
0C00
0600
0200
0000
0000
C060
C060
C060
C060
C060
C060
C060
C060
C060
C060
E0E0
7FE0
3F60
ENDCHAR
STARTCHAR 00FA
ENCODING 250
SWIDTH 600 0
DWIDTH 15 0
BBX 11 19 2 0
BITMAP
0380
0300
0600
0C00
0000
0000
C060
C060
C060
C060
C060
C060
C060
C060
C060
C060
E0E0
7FE0
3F60
ENDCHAR
STARTCHAR 00FB
ENCODING 251
SWIDTH 600 0
DWIDTH 15 0
BBX 11 19 2 0
BITMAP
0E00
1F00
3980
20C0
0000
0000
C060
C060
C060
C060
C060
C060
C060
C060
C060
C060
E0E0
7FE0
3F60
ENDCHAR
STARTCHAR 00FC
ENCODING 252
SWIDTH 600 0
DWIDTH 15 0
BBX 11 18 2 0
BITMAP
3980
3980
0000
0000
0000
C060
C060
C060
C060
C060
C060
C060
C060
C060
C060
E0E0
7FE0
3F60
ENDCHAR
STARTCHAR 00FD
ENCODING 253
SWIDTH 480 0
DWIDTH 12 0
BBX 12 25 0 -6
BITMAP
01C0
0380
0300
0600
0000
0000
E030
6030
6070
3060
3060
38E0
18C0
18C0
0D80
0D80
0D80
0700
0700
0600
0600
0E00
0C00
FC00
F000
ENDCHAR
STARTCHAR 00FE
ENCODING 254
SWIDTH 600 0
DWIDTH 15 0
BBX 12 25 2 -6
BITMAP
C000
C000
C000
C000
C000
C600
DFC0
F0E0
E060
E070
C030
C030
C030
C030
E070
E070
E060
FFC0
CF80
C000
C000
C000
C000
C000
C000
ENDCHAR
STARTCHAR 00FF
ENCODING 255
SWIDTH 480 0
DWIDTH 12 0
BBX 12 24 0 -6
BITMAP
18C0
18C0
0000
0000
0000
E030
6030
6070
3060
3060
38E0
18C0
18C0
0D80
0D80
0D80
0700
0700
0600
0600
0E00
0C00
FC00
F000
ENDCHAR
STARTCHAR 0100
ENCODING 256
SWIDTH 600 0
DWIDTH 15 0
BBX 16 21 0 0
BITMAP
0FF0
0000
0000
0180
03C0
03C0
03C0
0660
0660
0E70
0C30
0C30
1C38
1FF8
1FF8
301C
300C
700E
6006
6006
C007
ENDCHAR
STARTCHAR 0101
ENCODING 257
SWIDTH 560 0
DWIDTH 14 0
BBX 11 17 1 0
BITMAP
3FC0
3FC0
0000
0600
3FC0
30E0
0060
0060
0060
1FE0
7F60
6060
E060
C0E0
E0E0
7FE0
3E60
ENDCHAR
STARTCHAR 0102
ENCODING 258
SWIDTH 600 0
DWIDTH 15 0
BBX 16 23 0 0
BITMAP
0830
0E60
07E0
0000
0000
0180
03C0
03C0
03C0
0660
0660
0E70
0C30
0C30
1C38
1FF8
1FF8
301C
300C
700E
6006
6006
C007
ENDCHAR
STARTCHAR 0103
ENCODING 259
SWIDTH 560 0
DWIDTH 14 0
BBX 11 19 1 0
BITMAP
2040
30C0
1F80
0F00
0000
0600
3FC0
30E0
0060
0060
0060
1FE0
7F60
6060
E060
C0E0
E0E0
7FE0
3E60
ENDCHAR
STARTCHAR 0104
ENCODING 260
SWIDTH 600 0
DWIDTH 15 0
BBX 16 23 0 -6
BITMAP
0180
03C0
03C0
03C0
0660
0660
0E70
0C30
0C30
1C38
1FF8
1FF8
301C
300C
700E
6006
6006
C007
0006
000C
000C
000C
000F
ENDCHAR
STARTCHAR 0105
ENCODING 261
SWIDTH 560 0
DWIDTH 14 0
BBX 12 19 1 -6
BITMAP
0600
3FC0
30E0
0060
0060
0060
1FE0
7F60
6060
E060
C0E0
E0E0
7FE0
3E60
0040
00C0
0080
0080
00F0
ENDCHAR
STARTCHAR 0106
ENCODING 262
SWIDTH 600 0
DWIDTH 15 0
BBX 13 24 2 0
BITMAP
00E0
00E0
01C0
0180
0000
0000
07F0
1FF8
3810
7000
E000
E000
C000
C000
C000
C000
C000
C000
C000
E000
7000
7800
3FF0
0FF0
ENDCHAR
STARTCHAR 0107
ENCODING 263
SWIDTH 480 0
DWIDTH 12 0
BBX 10 19 1 0
BITMAP
01C0
0380
0300
0600
0000
0700
1FC0
38C0
7000
6000
E000
E000
E000
E000
6000
6000
7000
3FC0
1FC0
ENDCHAR
STARTCHAR 0108
ENCODING 264
SWIDTH 600 0
DWIDTH 15 0
BBX 13 24 2 0
BITMAP
0380
0380
06C0
0C60
0000
0000
07F0
1FF8
3810
7000
E000
E000
C000
C000
C000
C000
C000
C000
C000
E000
7000
7800
3FF0
0FF0
ENDCHAR
STARTCHAR 0109
ENCODING 265
SWIDTH 480 0
DWIDTH 12 0
BBX 10 19 1 0
BITMAP
0700
0F00
1980
30C0
0000
0700
1FC0
38C0
7000
6000
E000
E000
E000
E000
6000
6000
7000
3FC0
1FC0
ENDCHAR
STARTCHAR 010A
ENCODING 266
SWIDTH 600 0
DWIDTH 15 0
BBX 13 23 2 0
BITMAP
0100
0380
0100
0000
0000
07F0
1FF8
3810
7000
E000
E000
C000
C000
C000
C000
C000
C000
C000
E000
7000
7800
3FF0
0FF0
ENDCHAR
STARTCHAR 010B
ENCODING 267
SWIDTH 480 0
DWIDTH 12 0
BBX 10 18 1 0
BITMAP
0600
0600
0000
0000
0700
1FC0
38C0
7000
6000
E000
E000
E000
E000
6000
6000
7000
3FC0
1FC0
ENDCHAR
STARTCHAR 010C
ENCODING 268
SWIDTH 600 0
DWIDTH 15 0
BBX 13 24 2 0
BITMAP
1830
0C60
06C0
0380
0000
0000
07F0
1FF8
3810
7000
E000
E000
C000
C000
C000
C000
C000
C000
C000
E000
7000
7800
3FF0
0FF0
ENDCHAR
STARTCHAR 010D
ENCODING 269
SWIDTH 480 0
DWIDTH 12 0
BBX 10 19 1 0
BITMAP
30C0
1980
0F00
0600
0000
0700
1FC0
38C0
7000
6000
E000
E000
E000
E000
6000
6000
7000
3FC0
1FC0
ENDCHAR
STARTCHAR 010E
ENCODING 270
SWIDTH 720 0
DWIDTH 18 0
BBX 15 24 2 0
BITMAP
1020
0CE0
0FC0
0780
0000
0000
FF80
FFE0
E0F0
E038
E01C
E00C
E00C
E00E
E00E
E00E
E00E
E00C
E00C
E01C
E038
E070
FFE0
FF80
ENDCHAR
STARTCHAR 010F
ENCODING 271
SWIDTH 600 0
DWIDTH 15 0
BBX 16 19 1 0
BITMAP
0033
0033
0032
0036
0030
0630
1FB0
38F0
7070
6030
E030
E030
E030
E030
6030
6030
7070
3FF0
1FB0
ENDCHAR
STARTCHAR 0110
ENCODING 272
SWIDTH 720 0
DWIDTH 18 0
BBX 16 18 1 0
BITMAP
3FC0
3FF0
3078
301C
300E
3006
3006
3007
FF07
FF07
3007
3006
3006
300E
301C
3038
3FF0
3FC0
ENDCHAR
STARTCHAR 0111
ENCODING 273
SWIDTH 600 0
DWIDTH 15 0
BBX 14 19 1 0
BITMAP
0030
0030
07FC
07FC
0030
0630
1FB0
38F0
7070
6030
E030
E030
E030
E030
6030
6030
7070
3FF0
1FB0
ENDCHAR
STARTCHAR 0112
ENCODING 274
SWIDTH 520 0
DWIDTH 13 0
BBX 10 21 2 0
BITMAP
3F80
0000
0000
FFC0
FFC0
E000
E000
E000
E000
E000
E000
FFC0
FFC0
E000
E000
E000
E000
E000
E000
FFC0
FFC0
ENDCHAR
STARTCHAR 0113
ENCODING 275
SWIDTH 560 0
DWIDTH 14 0
BBX 12 17 1 0
BITMAP
3FC0
3FC0
0000
0700
1FC0
38E0
7060
6070
6070
FFF0
FFF0
E000
6000
6000
7000
3FE0
1FE0
ENDCHAR
STARTCHAR 0114
ENCODING 276
SWIDTH 520 0
DWIDTH 13 0
BBX 10 23 2 0
BITMAP
2080
3B80
1F00
0000
0000
FFC0
FFC0
E000
E000
E000
E000
E000
E000
FFC0
FFC0
E000
E000
E000
E000
E000
E000
FFC0
FFC0
ENDCHAR
STARTCHAR 0115
ENCODING 277
SWIDTH 560 0
DWIDTH 14 0
BBX 12 19 1 0
BITMAP
3040
30C0
1F80
0F00
0000
0700
1FC0
38E0
7060
6070
6070
FFF0
FFF0
E000
6000
6000
7000
3FE0
1FE0
ENDCHAR
STARTCHAR 0116
ENCODING 278
SWIDTH 520 0
DWIDTH 13 0
BBX 10 23 2 0
BITMAP
0600
0E00
0600
0000
0000
FFC0
FFC0
E000
E000
E000
E000
E000
E000
FFC0
FFC0
E000
E000
E000
E000
E000
E000
FFC0
FFC0
ENDCHAR
STARTCHAR 0117
ENCODING 279
SWIDTH 560 0
DWIDTH 14 0
BBX 12 18 1 0
BITMAP
0600
0600
0000
0000
0700
1FC0
38E0
7060
6070
6070
FFF0
FFF0
E000
6000
6000
7000
3FE0
1FE0
ENDCHAR
STARTCHAR 0118
ENCODING 280
SWIDTH 520 0
DWIDTH 13 0
BBX 10 24 2 -6
BITMAP
FFC0
FFC0
E000
E000
E000
E000
E000
E000
FFC0
FFC0
E000
E000
E000
E000
E000
E000
FFC0
FFC0
0180
0100
0300
0300
03C0
0080
ENDCHAR
STARTCHAR 0119
ENCODING 281
SWIDTH 560 0
DWIDTH 14 0
BBX 12 20 1 -6
BITMAP
0700
1FC0
38E0
7060
6070
6070
FFF0
FFF0
E000
6000
6000
7000
3FE0
1FE0
00C0
0180
0180
0180
01E0
0040
ENDCHAR
STARTCHAR 011A
ENCODING 282
SWIDTH 520 0
DWIDTH 13 0
BBX 10 24 2 0
BITMAP
60C0
3180
1B00
0E00
0000
0000
FFC0
FFC0
E000
E000
E000
E000
E000
E000
FFC0
FFC0
E000
E000
E000
E000
E000
E000
FFC0
FFC0
ENDCHAR
STARTCHAR 011B
ENCODING 283
SWIDTH 560 0
DWIDTH 14 0
BBX 12 19 1 0
BITMAP
30C0
1980
0F00
0600
0000
0700
1FC0
38E0
7060
6070
6070
FFF0
FFF0
E000
6000
6000
7000
3FE0
1FE0
ENDCHAR
STARTCHAR 011C
ENCODING 284
SWIDTH 720 0
DWIDTH 18 0
BBX 14 24 2 0
BITMAP
0180
03C0
07E0
0E30
0000
0000
07F8
1FFC
3C08
7000
E000
E000
C000
C000
C000
C0FC
C0FC
C00C
C00C
E00C
700C
780C
3FFC
0FFC
ENDCHAR
STARTCHAR 011D
ENCODING 285
SWIDTH 600 0
DWIDTH 15 0
BBX 12 25 1 -6
BITMAP
0700
0F80
19C0
3060
0000
0600
1FB0
38F0
7070
6030
E030
E030
E030
E030
6030
6030
7070
3FF0
1FB0
0030
0030
0030
4070
7FE0
3F80
ENDCHAR
STARTCHAR 011E
ENCODING 286
SWIDTH 720 0
DWIDTH 18 0
BBX 14 23 2 0
BITMAP
0C10
0670
07E0
0000
0000
07F8
1FFC
3C08
7000
E000
E000
C000
C000
C000
C0FC
C0FC
C00C
C00C
E00C
700C
780C
3FFC
0FFC
ENDCHAR
STARTCHAR 011F
ENCODING 287
SWIDTH 600 0
DWIDTH 15 0
BBX 12 25 1 -6
BITMAP
1040
10C0
1FC0
0F00
0000
0600
1FB0
38F0
7070
6030
E030
E030
E030
E030
6030
6030
7070
3FF0
1FB0
0030
0030
0030
4070
7FE0
3F80
ENDCHAR
STARTCHAR 0120
ENCODING 288
SWIDTH 720 0
DWIDTH 18 0
BBX 14 23 2 0
BITMAP
0180
0180
0180
0000
0000
07F8
1FFC
3C08
7000
E000
E000
C000
C000
C000
C0FC
C0FC
C00C
C00C
E00C
700C
780C
3FFC
0FFC
ENDCHAR
STARTCHAR 0121
ENCODING 289
SWIDTH 600 0
DWIDTH 15 0
BBX 12 24 1 -6
BITMAP
0700
0700
0000
0000
0600
1FB0
38F0
7070
6030
E030
E030
E030
E030
6030
6030
7070
3FF0
1FB0
0030
0030
0030
4070
7FE0
3F80
ENDCHAR
STARTCHAR 0122
ENCODING 290
SWIDTH 720 0
DWIDTH 18 0
BBX 14 24 2 -6
BITMAP
07F8
1FFC
3C08
7000
E000
E000
C000
C000
C000
C0FC
C0FC
C00C
C00C
E00C
700C
780C
3FFC
0FFC
0000
0000
0180
0180
0100
0300
ENDCHAR
STARTCHAR 0123
ENCODING 291
SWIDTH 600 0
DWIDTH 15 0
BBX 12 25 1 -6
BITMAP
0300
0300
0600
0600
0000
0600
1FB0
38F0
7070
6030
E030
E030
E030
E030
6030
6030
7070
3FF0
1FB0
0030
0030
0030
4070
7FE0
3F80
ENDCHAR
STARTCHAR 0124
ENCODING 292
SWIDTH 720 0
DWIDTH 18 0
BBX 14 24 2 0
BITMAP
0300
0780
06C0
0C60
0000
0000
E00C
E00C
E00C
E00C
E00C
E00C
E00C
E00C
FFFC
FFFC
E00C
E00C
E00C
E00C
E00C
E00C
E00C
E00C
ENDCHAR
STARTCHAR 0125
ENCODING 293
SWIDTH 600 0
DWIDTH 15 0
BBX 14 25 -1 0
BITMAP
1800
3C00
7600
E300
0000
0000
1800
1800
1800
1800
1800
18C0
1BF8
1E1C
1C0C
1C0C
180C
180C
180C
180C
180C
180C
180C
180C
180C
ENDCHAR
STARTCHAR 0126
ENCODING 294
SWIDTH 720 0
DWIDTH 18 0
BBX 19 18 0 0
BITMAP
380300
380300
380300
FFFFE0
FFFFE0
380300
380300
380300
3FFF00
3FFF00
380300
380300
380300
380300
380300
380300
380300
380300
ENDCHAR
STARTCHAR 0127
ENCODING 295
SWIDTH 600 0
DWIDTH 15 0
BBX 13 19 0 0
BITMAP
3000
3000
FFC0
FFC0
3000
3000
33F0
37F8
3C38
3818
3818
3018
3018
3018
3018
3018
3018
3018
3018
ENDCHAR
STARTCHAR 0128
ENCODING 296
SWIDTH 320 0
DWIDTH 8 0
BBX 9 23 0 0
BITMAP
7180
FD80
8F00
0000
0000
7E00
7E00
1800
1800
1800
1800
1800
1800
1800
1800
1800
1800
1800
1800
1800
1800
3E00
7E00
ENDCHAR
STARTCHAR 0129
ENCODING 297
SWIDTH 240 0
DWIDTH 6 0
BBX 9 18 -1 0
BITMAP
7980
DF00
8600
0000
0000
1800
1800
1800
1800
1800
1800
1800
1800
1800
1800
1800
1800
1800
ENDCHAR
STARTCHAR 012A
ENCODING 298
SWIDTH 320 0
DWIDTH 8 0
BBX 7 21 1 0
BITMAP
FE
00
00
FC
FC
30
30
30
30
30
30
30
30
30
30
30
30
30
30
7C
FC
ENDCHAR
STARTCHAR 012B
ENCODING 299
SWIDTH 240 0
DWIDTH 6 0
BBX 8 17 -1 0
BITMAP
FF
FF
00
00
18
18
18
18
18
18
18
18
18
18
18
18
18
ENDCHAR
STARTCHAR 012C
ENCODING 300
SWIDTH 320 0
DWIDTH 8 0
BBX 8 23 0 0
BITMAP
C1
67
7E
00
00
7E
7E
18
18
18
18
18
18
18
18
18
18
18
18
18
18
3E
7E
ENDCHAR
STARTCHAR 012D
ENCODING 301
SWIDTH 240 0
DWIDTH 6 0
BBX 8 19 -1 0
BITMAP
C1
C3
7E
3C
00
00
18
18
18
18
18
18
18
18
18
18
18
18
18
ENDCHAR
STARTCHAR 012E
ENCODING 302
SWIDTH 320 0
DWIDTH 8 0
BBX 6 24 1 -6
BITMAP
FC
FC
30
30
30
30
30
30
30
30
30
30
30
30
30
30
7C
FC
08
18
30
30
1C
08
ENDCHAR
STARTCHAR 012F
ENCODING 303
SWIDTH 240 0
DWIDTH 6 0
BBX 4 23 1 -6
BITMAP
60
60
00
00
00
60
60
60
60
60
60
60
60
60
60
60
60
60
60
C0
C0
C0
F0
ENDCHAR
STARTCHAR 0130
ENCODING 304
SWIDTH 320 0
DWIDTH 8 0
BBX 6 23 1 0
BITMAP
30
38
30
00
00
FC
FC
30
30
30
30
30
30
30
30
30
30
30
30
30
30
7C
FC
ENDCHAR
STARTCHAR 0131
ENCODING 305
SWIDTH 240 0
DWIDTH 6 0
BBX 2 13 2 0
BITMAP
C0
C0
C0
C0
C0
C0
C0
C0
C0
C0
C0
C0
C0
ENDCHAR
STARTCHAR 0132
ENCODING 306
SWIDTH 600 0
DWIDTH 15 0
BBX 12 23 1 -5
BITMAP
FC30
FC30
3030
3030
3030
3030
3030
3030
3030
3030
3030
3030
3030
3030
3030
3030
7C30
FC30
0030
0070
0060
03E0
0380
ENDCHAR
STARTCHAR 0133
ENCODING 307
SWIDTH 480 0
DWIDTH 12 0
BBX 9 24 2 -6
BITMAP
C380
C380
0000
0000
0000
C180
C180
C180
C180
C180
C180
C180
C180
C180
C180
C180
C180
C180
0180
0180
0180
0380
1F00
1E00
ENDCHAR
STARTCHAR 0134
ENCODING 308
SWIDTH 240 0
DWIDTH 6 0
BBX 9 29 -2 -5
BITMAP
0E00
1E00
1B00
3180
0000
0000
0E00
0E00
0E00
0E00
0E00
0E00
0E00
0E00
0E00
0E00
0E00
0E00
0E00
0E00
0E00
0E00
0E00
0E00
0E00
0C00
1C00
F800
E000
ENDCHAR
STARTCHAR 0135
ENCODING 309
SWIDTH 240 0
DWIDTH 6 0
BBX 8 25 -1 -6
BITMAP
1C
3E
66
C3
00
00
18
18
18
18
18
18
18
18
18
18
18
18
18
18
18
18
18
F8
F0
ENDCHAR
STARTCHAR 0136
ENCODING 310
SWIDTH 600 0
DWIDTH 15 0
BBX 13 24 2 -6
BITMAP
E038
E070
E0E0
E0C0
E180
E300
E600
EE00
FE00
F600
E700
E380
E180
E1C0
E0E0
E070
E030
E038
0000
0000
0700
0600
0600
0400
ENDCHAR
STARTCHAR 0137
ENCODING 311
SWIDTH 520 0
DWIDTH 13 0
BBX 11 25 2 -6
BITMAP
C000
C000
C000
C000
C000
C000
C1C0
C380
C700
CE00
CC00
D800
FC00
EE00
C700
C300
C180
C1C0
C0E0
0000
0000
0C00
0C00
1800
1000
ENDCHAR
STARTCHAR 0138
ENCODING 312
SWIDTH 520 0
DWIDTH 13 0
BBX 11 13 2 0
BITMAP
C1C0
C380
C300
C600
CE00
DC00
FC00
EE00
C700
C380
C180
C1C0
C0E0
ENDCHAR
STARTCHAR 0139
ENCODING 313
SWIDTH 520 0
DWIDTH 13 0
BBX 10 24 2 0
BITMAP
3800
3800
7000
6000
0000
0000
E000
E000
E000
E000
E000
E000
E000
E000
E000
E000
E000
E000
E000
E000
E000
E000
FFC0
FFC0
ENDCHAR
STARTCHAR 013A
ENCODING 314
SWIDTH 240 0
DWIDTH 6 0
BBX 5 25 2 0
BITMAP
38
30
60
C0
00
00
C0
C0
C0
C0
C0
C0
C0
C0
C0
C0
C0
C0
C0
C0
C0
C0
C0
C0
C0
ENDCHAR
STARTCHAR 013B
ENCODING 315
SWIDTH 520 0
DWIDTH 13 0
BBX 10 24 2 -6
BITMAP
E000
E000
E000
E000
E000
E000
E000
E000
E000
E000
E000
E000
E000
E000
E000
E000
FFC0
FFC0
0000
0000
0600
0C00
0C00
0800
ENDCHAR
STARTCHAR 013C
ENCODING 316
SWIDTH 240 0
DWIDTH 6 0
BBX 3 25 2 -6
BITMAP
C0
C0
C0
C0
C0
C0
C0
C0
C0
C0
C0
C0
C0
C0
C0
C0
C0
C0
C0
00
00
E0
C0
C0
80
ENDCHAR
STARTCHAR 013D
ENCODING 317
SWIDTH 520 0
DWIDTH 13 0
BBX 10 18 2 0
BITMAP
E0C0
E0C0
E0C0
E080
E000
E000
E000
E000
E000
E000
E000
E000
E000
E000
E000
E000
FFC0
FFC0
ENDCHAR
STARTCHAR 013E
ENCODING 318
SWIDTH 240 0
DWIDTH 6 0
BBX 6 19 2 0
BITMAP
CC
CC
CC
D8
C0
C0
C0
C0
C0
C0
C0
C0
C0
C0
C0
C0
C0
C0
C0
ENDCHAR
STARTCHAR 013F
ENCODING 319
SWIDTH 520 0
DWIDTH 13 0
BBX 10 18 2 0
BITMAP
E000
E000
E000
E000
E000
E000
E000
E000
E380
E380
E000
E000
E000
E000
E000
E000
FFC0
FFC0
ENDCHAR
STARTCHAR 0140
ENCODING 320
SWIDTH 240 0
DWIDTH 6 0
BBX 6 19 2 0
BITMAP
C0
C0
C0
C0
C0
C0
C0
C0
C8
DC
CC
C0
C0
C0
C0
C0
C0
C0
C0
ENDCHAR
STARTCHAR 0141
ENCODING 321
SWIDTH 520 0
DWIDTH 13 0
BBX 11 18 1 0
BITMAP
7000
7000
7000
7000
7000
7000
7000
7700
7E00
7800
F000
F000
7000
7000
7000
7000
7FE0
7FE0
ENDCHAR
STARTCHAR 0142
ENCODING 322
SWIDTH 240 0
DWIDTH 6 0
BBX 7 19 0 0
BITMAP
30
30
30
30
30
30
30
34
3E
3C
70
F0
30
30
30
30
30
30
30
ENDCHAR
STARTCHAR 0143
ENCODING 323
SWIDTH 760 0
DWIDTH 19 0
BBX 15 24 2 0
BITMAP
00E0
00E0
01C0
0180
0000
0000
E00E
F00E
F80E
D80E
DC0E
CC0E
C60E
C70E
E30E
E38E
E1CE
E0CE
E0E6
E076
E036
E03E
E01E
E00E
ENDCHAR
STARTCHAR 0144
ENCODING 324
SWIDTH 600 0
DWIDTH 15 0
BBX 11 19 2 0
BITMAP
0380
0300
0600
0C00
0000
0700
DFC0
F0E0
E060
E060
C060
C060
C060
C060
C060
C060
C060
C060
C060
ENDCHAR
STARTCHAR 0145
ENCODING 325
SWIDTH 760 0
DWIDTH 19 0
BBX 15 24 2 -6
BITMAP
E00E
F00E
F80E
D80E
DC0E
CC0E
C60E
C70E
E30E
E38E
E1CE
E0CE
E0E6
E076
E036
E03E
E01E
E00E
0000
0000
0180
0300
0300
0200
ENDCHAR
STARTCHAR 0146
ENCODING 326
SWIDTH 600 0
DWIDTH 15 0
BBX 11 20 2 -6
BITMAP
0700
DFC0
F0E0
E060
E060
C060
C060
C060
C060
C060
C060
C060
C060
C060
0000
0000
0600
0600
0C00
0800
ENDCHAR
STARTCHAR 0147
ENCODING 327
SWIDTH 760 0
DWIDTH 19 0
BBX 15 24 2 0
BITMAP
1830
0C60
06C0
0380
0000
0000
E00E
F00E
F80E
D80E
DC0E
CC0E
C60E
C70E
E30E
E38E
E1CE
E0CE
E0E6
E076
E036
E03E
E01E
E00E
ENDCHAR
STARTCHAR 0148
ENCODING 328
SWIDTH 600 0
DWIDTH 15 0
BBX 11 19 2 0
BITMAP
31C0
1B80
0F00
0E00
0000
0700
DFC0
F0E0
E060
E060
C060
C060
C060
C060
C060
C060
C060
C060
C060
ENDCHAR
STARTCHAR 0149
ENCODING 329
SWIDTH 680 0
DWIDTH 17 0
BBX 15 18 0 0
BITMAP
7000
6000
6000
6000
C060
CDFC
0F1E
0E06
0C06
0C06
0C06
0C06
0C06
0C06
0C06
0C06
0C06
0C06
ENDCHAR
STARTCHAR 014A
ENCODING 330
SWIDTH 760 0
DWIDTH 19 0
BBX 15 23 2 -5
BITMAP
E00E
F00E
F80E
D80E
DC0E
CE0E
C60E
C70E
E38E
E18E
E1CE
E0EE
E066
E076
E03E
E01E
E01E
E00E
000E
000C
001C
00F8
00E0
ENDCHAR
STARTCHAR 014B
ENCODING 331
SWIDTH 600 0
DWIDTH 15 0
BBX 11 20 2 -6
BITMAP
0700
DFC0
F0E0
E060
E060
C060
C060
C060
C060
C060
C060
C060
C060
C060
0060
0060
0060
0060
03E0
03C0
ENDCHAR
STARTCHAR 014C
ENCODING 332
SWIDTH 760 0
DWIDTH 19 0
BBX 16 21 2 0
BITMAP
0FE0
0000
0000
0FE0
3FF8
781C
700E
E006
C007
C007
C003
C003
C003
C003
C007
C007
E006
600E
781C
3FF8
0FF0
ENDCHAR
STARTCHAR 014D
ENCODING 333
SWIDTH 600 0
DWIDTH 15 0
BBX 13 17 1 0
BITMAP
1FC0
1FC0
0000
0300
1FC0
38E0
7070
6030
E038
E038
E038
E038
6038
6030
7070
3FE0
1FC0
ENDCHAR
STARTCHAR 014E
ENCODING 334
SWIDTH 760 0
DWIDTH 19 0
BBX 16 23 2 0
BITMAP
0830
0EE0
07C0
0000
0000
0FE0
3FF8
781C
700E
E006
C007
C007
C003
C003
C003
C003
C007
C007
E006
600E
781C
3FF8
0FF0
ENDCHAR
STARTCHAR 014F
ENCODING 335
SWIDTH 600 0
DWIDTH 15 0
BBX 13 19 1 0
BITMAP
1040
1040
1FC0
0700
0000
0300
1FC0
38E0
7070
6030
E038
E038
E038
E038
6038
6030
7070
3FE0
1FC0
ENDCHAR
STARTCHAR 0150
ENCODING 336
SWIDTH 760 0
DWIDTH 19 0
BBX 16 24 2 0
BITMAP
0730
0670
0C60
0CC0
0000
0000
0FE0
3FF8
781C
700E
E006
C007
C007
C003
C003
C003
C003
C007
C007
E006
600E
781C
3FF8
0FF0
ENDCHAR
STARTCHAR 0151
ENCODING 337
SWIDTH 600 0
DWIDTH 15 0
BBX 13 19 1 0
BITMAP
0CE0
1CC0
1980
3100
0000
0300
1FC0
38E0
7070
6030
E038
E038
E038
E038
6038
6030
7070
3FE0
1FC0
ENDCHAR
STARTCHAR 0152
ENCODING 338
SWIDTH 920 0
DWIDTH 23 0
BBX 20 18 2 0
BITMAP
0FFFF0
3FFFF0
783800
703800
E03800
C03800
C03800
C03800
C03FE0
C03FE0
C03800
C03800
C03800
E03800
603800
783800
3FFFF0
0FFFF0
ENDCHAR
STARTCHAR 0153
ENCODING 339
SWIDTH 920 0
DWIDTH 23 0
BBX 21 14 1 0
BITMAP
030180
1FC7E0
38EC70
707838
603818
E03818
E03FF8
E03FF8
E03000
603800
603800
707C00
3FEFF8
1F87F0
ENDCHAR
STARTCHAR 0154
ENCODING 340
SWIDTH 600 0
DWIDTH 15 0
BBX 13 24 2 0
BITMAP
0180
0380
0300
0600
0000
0000
FF00
FFC0
E0E0
E070
E070
E030
E070
E060
E1E0
FF80
FF80
E180
E1C0
E0C0
E0E0
E070
E030
E038
ENDCHAR
STARTCHAR 0155
ENCODING 341
SWIDTH 400 0
DWIDTH 10 0
BBX 8 19 2 0
BITMAP
06
0E
1C
18
00
07
CF
D9
F0
E0
E0
C0
C0
C0
C0
C0
C0
C0
C0
ENDCHAR
STARTCHAR 0156
ENCODING 342
SWIDTH 600 0
DWIDTH 15 0
BBX 13 24 2 -6
BITMAP
FF00
FFC0
E0E0
E070
E070
E030
E070
E060
E1E0
FF80
FF80
E180
E1C0
E0C0
E0E0
E070
E030
E038
0000
0000
0700
0600
0600
0400
ENDCHAR
STARTCHAR 0157
ENCODING 343
SWIDTH 400 0
DWIDTH 10 0
BBX 8 20 2 -6
BITMAP
07
CF
D9
F0
E0
E0
C0
C0
C0
C0
C0
C0
C0
C0
00
00
E0
C0
80
80
ENDCHAR
STARTCHAR 0158
ENCODING 344
SWIDTH 600 0
DWIDTH 15 0
BBX 13 24 2 0
BITMAP
20C0
3180
1F00
0E00
0000
0000
FF00
FFC0
E0E0
E070
E070
E030
E070
E060
E1E0
FF80
FF80
E180
E1C0
E0C0
E0E0
E070
E030
E038
ENDCHAR
STARTCHAR 0159
ENCODING 345
SWIDTH 400 0
DWIDTH 10 0
BBX 8 19 2 0
BITMAP
C3
66
3C
18
00
07
CF
D9
F0
E0
E0
C0
C0
C0
C0
C0
C0
C0
C0
ENDCHAR
STARTCHAR 015A
ENCODING 346
SWIDTH 520 0
DWIDTH 13 0
BBX 12 24 1 0
BITMAP
01C0
0180
0300
0600
0000
0000
1FC0
3FE0
7020
6000
E000
6000
7000
7800
1F00
0FC0
01E0
0060
0060
0070
0060
80E0
FFC0
7F80
ENDCHAR
STARTCHAR 015B
ENCODING 347
SWIDTH 440 0
DWIDTH 11 0
BBX 10 19 1 0
BITMAP
0300
0700
0E00
0C00
0000
0E00
7F80
7180
C000
E000
7000
3C00
1F00
0380
01C0
00C0
81C0
FF80
7F00
ENDCHAR
STARTCHAR 015C
ENCODING 348
SWIDTH 520 0
DWIDTH 13 0
BBX 12 24 1 0
BITMAP
0600
0F00
1F80
38C0
0000
0000
1FC0
3FE0
7020
6000
E000
6000
7000
7800
1F00
0FC0
01E0
0060
0060
0070
0060
80E0
FFC0
7F80
ENDCHAR
STARTCHAR 015D
ENCODING 349
SWIDTH 440 0
DWIDTH 11 0
BBX 10 19 1 0
BITMAP
1E00
1E00
3300
6180
0000
0E00
7F80
7180
C000
E000
7000
3C00
1F00
0380
01C0
00C0
81C0
FF80
7F00
ENDCHAR
STARTCHAR 015E
ENCODING 350
SWIDTH 520 0
DWIDTH 13 0
BBX 12 24 1 -6
BITMAP
1FC0
3FE0
7020
6000
E000
6000
7000
7800
1F00
0FC0
01E0
0060
0060
0070
0060
80E0
FFC0
7F80
0400
0C00
0700
0300
0700
1E00
ENDCHAR
STARTCHAR 015F
ENCODING 351
SWIDTH 440 0
DWIDTH 11 0
BBX 10 20 1 -6
BITMAP
0E00
7F80
7180
C000
E000
7000
3C00
1F00
0380
01C0
00C0
81C0
FF80
7F00
0C00
0C00
0600
0200
0600
1C00
ENDCHAR
STARTCHAR 0160
ENCODING 352
SWIDTH 520 0
DWIDTH 13 0
BBX 12 24 1 0
BITMAP
3040
19C0
0F80
0F00
0000
0000
1FC0
3FE0
7020
6000
E000
6000
7000
7800
1F00
0FC0
01E0
0060
0060
0070
0060
80E0
FFC0
7F80
ENDCHAR
STARTCHAR 0161
ENCODING 353
SWIDTH 440 0
DWIDTH 11 0
BBX 10 19 1 0
BITMAP
6180
3300
1E00
0C00
0000
0E00
7F80
7180
C000
E000
7000
3C00
1F00
0380
01C0
00C0
81C0
FF80
7F00
ENDCHAR
STARTCHAR 0162
ENCODING 354
SWIDTH 520 0
DWIDTH 13 0
BBX 14 24 0 -6
BITMAP
FFFC
FFFC
0300
0300
0300
0300
0300
0300
0300
0300
0300
0300
0300
0300
0300
0300
0300
0300
0300
0300
0180
0080
0180
0700
ENDCHAR
STARTCHAR 0163
ENCODING 355
SWIDTH 360 0
DWIDTH 9 0
BBX 8 22 0 -6
BITMAP
18
18
38
FF
38
38
38
38
38
38
38
38
38
38
1F
0F
04
0C
07
03
07
1E
ENDCHAR
STARTCHAR 0164
ENCODING 356
SWIDTH 520 0
DWIDTH 13 0
BBX 14 24 0 0
BITMAP
1060
1CC0
0F80
0780
0000
0000
FFFC
FFFC
0300
0300
0300
0300
0300
0300
0300
0300
0300
0300
0300
0300
0300
0300
0300
0300
ENDCHAR
STARTCHAR 0165
ENCODING 357
SWIDTH 360 0
DWIDTH 9 0
BBX 12 19 0 0
BITMAP
0070
0060
0060
1840
1800
3800
FF00
3800
3800
3800
3800
3800
3800
3800
3800
3800
3800
1F00
0F00
ENDCHAR
STARTCHAR 0166
ENCODING 358
SWIDTH 520 0
DWIDTH 13 0
BBX 14 18 0 0
BITMAP
FFFC
FFFC
0300
0300
0300
0300
0300
0300
3FF0
3FF0
0300
0300
0300
0300
0300
0300
0300
0300
ENDCHAR
STARTCHAR 0167
ENCODING 359
SWIDTH 360 0
DWIDTH 9 0
BBX 8 16 0 0
BITMAP
18
18
38
FF
38
38
38
7F
7F
38
38
38
38
38
1F
0F
ENDCHAR
STARTCHAR 0168
ENCODING 360
SWIDTH 720 0
DWIDTH 18 0
BBX 14 23 2 0
BITMAP
0C30
1FE0
11E0
0000
0000
E00C
E00C
E00C
E00C
E00C
E00C
E00C
E00C
E00C
E00C
E00C
E00C
E00C
E01C
6018
7038
3FF0
1FE0
ENDCHAR
STARTCHAR 0169
ENCODING 361
SWIDTH 600 0
DWIDTH 15 0
BBX 11 18 2 0
BITMAP
3C40
7FC0
6380
0000
0000
C060
C060
C060
C060
C060
C060
C060
C060
C060
C060
E0E0
7FE0
3F60
ENDCHAR
STARTCHAR 016A
ENCODING 362
SWIDTH 720 0
DWIDTH 18 0
BBX 14 21 2 0
BITMAP
1FE0
0000
0000
E00C
E00C
E00C
E00C
E00C
E00C
E00C
E00C
E00C
E00C
E00C
E00C
E00C
E01C
6018
7038
3FF0
1FE0
ENDCHAR
STARTCHAR 016B
ENCODING 363
SWIDTH 600 0
DWIDTH 15 0
BBX 11 17 2 0
BITMAP
3F80
3F80
0000
0000
C060
C060
C060
C060
C060
C060
C060
C060
C060
C060
E0E0
7FE0
3F60
ENDCHAR
STARTCHAR 016C
ENCODING 364
SWIDTH 720 0
DWIDTH 18 0
BBX 14 23 2 0
BITMAP
1860
0CE0
0FC0
0000
0000
E00C
E00C
E00C
E00C
E00C
E00C
E00C
E00C
E00C
E00C
E00C
E00C
E00C
E01C
6018
7038
3FF0
1FE0
ENDCHAR
STARTCHAR 016D
ENCODING 365
SWIDTH 600 0
DWIDTH 15 0
BBX 11 19 2 0
BITMAP
20C0
3080
3F80
0F00
0000
0000
C060
C060
C060
C060
C060
C060
C060
C060
C060
C060
E0E0
7FE0
3F60
ENDCHAR
STARTCHAR 016E
ENCODING 366
SWIDTH 720 0
DWIDTH 18 0
BBX 14 25 2 0
BITMAP
0380
06C0
0C40
0CC0
0780
0000
0000
E00C
E00C
E00C
E00C
E00C
E00C
E00C
E00C
E00C
E00C
E00C
E00C
E00C
E01C
6018
7038
3FF0
1FE0
ENDCHAR
STARTCHAR 016F
ENCODING 367
SWIDTH 600 0
DWIDTH 15 0
BBX 11 20 2 0
BITMAP
0F00
1100
1100
1B00
0E00
0000
0000
C060
C060
C060
C060
C060
C060
C060
C060
C060
C060
E0E0
7FE0
3F60
ENDCHAR
STARTCHAR 0170
ENCODING 368
SWIDTH 720 0
DWIDTH 18 0
BBX 14 24 2 0
BITMAP
0670
0E60
0CC0
1980
0000
0000
E00C
E00C
E00C
E00C
E00C
E00C
E00C
E00C
E00C
E00C
E00C
E00C
E00C
E01C
6018
7038
3FF0
1FE0
ENDCHAR
STARTCHAR 0171
ENCODING 369
SWIDTH 600 0
DWIDTH 15 0
BBX 11 19 2 0
BITMAP
1DC0
1980
3300
6200
0000
0000
C060
C060
C060
C060
C060
C060
C060
C060
C060
C060
E0E0
7FE0
3F60
ENDCHAR
STARTCHAR 0172
ENCODING 370
SWIDTH 720 0
DWIDTH 18 0
BBX 14 23 2 -6
BITMAP
E00C
E00C
E00C
E00C
E00C
E00C
E00C
E00C
E00C
E00C
E00C
E00C
E00C
E01C
601C
7038
3FF0
1FE0
0040
00C0
00C0
00C0
00F0
ENDCHAR
STARTCHAR 0173
ENCODING 371
SWIDTH 600 0
DWIDTH 15 0
BBX 12 18 2 -6
BITMAP
C060
C060
C060
C060
C060
C060
C060
C060
C060
C060
E0E0
7FE0
3F60
0040
00C0
0180
0180
00F0
ENDCHAR
STARTCHAR 0174
ENCODING 372
SWIDTH 920 0
DWIDTH 23 0
BBX 23 24 0 0
BITMAP
003800
003800
006C00
00C600
000000
000000
E0380E
60380E
60380C
706C0C
706C1C
306C1C
306E18
38C618
18C638
18C730
198330
1D8330
0D8370
0D81E0
0F01E0
0F01E0
0701E0
0600C0
ENDCHAR
STARTCHAR 0175
ENCODING 373
SWIDTH 760 0
DWIDTH 19 0
BBX 18 19 1 0
BITMAP
01C000
03E000
033000
061800
000000
000000
C1C0C0
C1E0C0
C1E1C0
E36180
637180
633180
673300
763300
361B00
361B00
3C1E00
1C0E00
1C0E00
ENDCHAR
STARTCHAR 0176
ENCODING 374
SWIDTH 560 0
DWIDTH 14 0
BBX 14 24 0 0
BITMAP
0300
0780
0FC0
1CE0
0000
0000
E00C
6018
7038
3030
3870
1860
1CE0
0CC0
07C0
0780
0380
0300
0300
0300
0300
0300
0300
0300
ENDCHAR
STARTCHAR 0177
ENCODING 375
SWIDTH 480 0
DWIDTH 12 0
BBX 12 25 0 -6
BITMAP
0700
0F80
19C0
3060
0000
0000
E030
6030
6070
3060
3060
38E0
18C0
18C0
0D80
0D80
0D80
0700
0700
0600
0600
0E00
0C00
FC00
F000
ENDCHAR
STARTCHAR 0178
ENCODING 376
SWIDTH 560 0
DWIDTH 14 0
BBX 14 23 0 0
BITMAP
0840
0CE0
0840
0000
0000
E00C
6018
7038
3030
3870
1860
1CE0
0CC0
07C0
0780
0380
0300
0300
0300
0300
0300
0300
0300
ENDCHAR
STARTCHAR 0179
ENCODING 377
SWIDTH 560 0
DWIDTH 14 0
BBX 12 24 1 0
BITMAP
01C0
0180
0300
0600
0000
0000
FFF0
FFF0
0070
00E0
00C0
01C0
0380
0300
0700
0E00
0C00
1C00
3800
3000
7000
E000
FFF0
FFF0
ENDCHAR
STARTCHAR 017A
ENCODING 378
SWIDTH 440 0
DWIDTH 11 0
BBX 10 19 1 0
BITMAP
0300
0600
0C00
0800
0000
0000
FFC0
0180
0380
0300
0600
0E00
1C00
1800
3000
7000
6000
FFC0
FFC0
ENDCHAR
STARTCHAR 017B
ENCODING 379
SWIDTH 560 0
DWIDTH 14 0
BBX 12 23 1 0
BITMAP
0600
0700
0600
0000
0000
FFF0
FFF0
0070
00E0
00C0
01C0
0380
0300
0700
0E00
0C00
1C00
3800
3000
7000
E000
FFF0
FFF0
ENDCHAR
STARTCHAR 017C
ENCODING 380
SWIDTH 440 0
DWIDTH 11 0
BBX 10 18 1 0
BITMAP
0C00
0C00
0000
0000
0000
FFC0
0180
0380
0300
0600
0E00
1C00
1800
3000
7000
6000
FFC0
FFC0
ENDCHAR
STARTCHAR 017D
ENCODING 381
SWIDTH 560 0
DWIDTH 14 0
BBX 12 24 1 0
BITMAP
3040
19C0
0F80
0F00
0000
0000
FFF0
FFF0
0070
00E0
00C0
01C0
0380
0300
0700
0E00
0C00
1C00
3800
3000
7000
E000
FFF0
FFF0
ENDCHAR
STARTCHAR 017E
ENCODING 382
SWIDTH 440 0
DWIDTH 11 0
BBX 10 19 1 0
BITMAP
6180
3700
1E00
0C00
0000
0000
FFC0
0180
0380
0300
0600
0E00
1C00
1800
3000
7000
6000
FFC0
FFC0
ENDCHAR
STARTCHAR 017F
ENCODING 383
SWIDTH 320 0
DWIDTH 8 0
BBX 7 19 2 0
BITMAP
3E
7E
E0
C0
C0
C0
C0
C0
C0
C0
C0
C0
C0
C0
C0
C0
C0
C0
C0
ENDCHAR
STARTCHAR 0180
ENCODING 384
SWIDTH 600 0
DWIDTH 15 0
BBX 14 19 0 0
BITMAP
3000
3000
FFC0
FFC0
3000
3180
37F0
3C38
3818
381C
300C
300C
300C
300C
381C
381C
3818
3FF0
33E0
ENDCHAR
STARTCHAR 0181
ENCODING 385
SWIDTH 720 0
DWIDTH 18 0
BBX 17 18 0 0
BITMAP
3FF800
7FFE00
EE0F00
CE0300
CE0300
0E0300
0E0300
0E0E00
0FF800
0FFE00
0E0300
0E0380
0E0380
0E0380
0E0380
0E0700
0FFE00
0FFC00
ENDCHAR
STARTCHAR 0182
ENCODING 386
SWIDTH 600 0
DWIDTH 15 0
BBX 12 18 2 0
BITMAP
FFE0
FFE0
E000
E000
E000
E000
E000
E000
FFC0
FFE0
E070
E030
E030
E030
E070
E0E0
FFE0
FF80
ENDCHAR
STARTCHAR 0183
ENCODING 387
SWIDTH 600 0
DWIDTH 15 0
BBX 12 19 2 0
BITMAP
FFE0
FFE0
C000
C000
C000
C600
DFC0
F0E0
E060
E070
C030
C030
C030
C030
E070
E070
E060
FFC0
CF80
ENDCHAR
STARTCHAR 0184
ENCODING 388
SWIDTH 600 0
DWIDTH 15 0
BBX 13 18 2 0
BITMAP
E000
E000
E000
E000
E000
E000
E000
E000
FFC0
FFE0
E070
E030
E038
E038
E030
6070
7FE0
1FC0
ENDCHAR
STARTCHAR 0185
ENCODING 389
SWIDTH 600 0
DWIDTH 15 0
BBX 12 19 2 0
BITMAP
C000
C000
C000
C000
C000
C600
DFC0
F1E0
E060
E070
C030
C030
C030
C030
E070
E060
70E0
3FC0
1F80
ENDCHAR
STARTCHAR 0186
ENCODING 390
SWIDTH 600 0
DWIDTH 15 0
BBX 13 18 1 0
BITMAP
7F80
FFC0
40E0
0070
0030
0038
0018
0018
0018
0018
0018
0018
0038
0030
0070
00E0
FFC0
FF80
ENDCHAR
STARTCHAR 0187
ENCODING 391
SWIDTH 600 0
DWIDTH 15 0
BBX 15 21 2 0
BITMAP
000E
001C
0018
07F8
1FF8
3810
7000
E000
E000
C000
C000
C000
C000
C000
C000
C000
E000
7000
7800
3FF0
0FF0
ENDCHAR
STARTCHAR 0188
ENCODING 392
SWIDTH 480 0
DWIDTH 12 0
BBX 13 19 1 0
BITMAP
0078
0078
00C0
00C0
00C0
07C0
1FC0
38C0
7000
6000
E000
E000
E000
E000
6000
6000
7000
3FC0
1FC0
ENDCHAR
STARTCHAR 0189
ENCODING 393
SWIDTH 720 0
DWIDTH 18 0
BBX 16 18 1 0
BITMAP
3FC0
3FF0
3078
301C
300E
3006
3006
3007
FF07
FF07
3007
3006
3006
300E
301C
3038
3FF0
3FC0
ENDCHAR
STARTCHAR 018A
ENCODING 394
SWIDTH 800 0
DWIDTH 20 0
BBX 19 18 0 0
BITMAP
3FF800
7FFE00
EE0F00
CE0380
CE01C0
0E00C0
0E00C0
0E00E0
0E00E0
0E00E0
0E00E0
0E00C0
0E00C0
0E01C0
0E0380
0E0700
0FFE00
0FF800
ENDCHAR
STARTCHAR 018B
ENCODING 395
SWIDTH 600 0
DWIDTH 15 0
BBX 12 18 1 0
BITMAP
7FF0
7FF0
0030
0030
0030
0030
0030
0030
1FF0
3FF0
7030
E030
E030
E030
E030
7030
3FF0
1FF0
ENDCHAR
STARTCHAR 018C
ENCODING 396
SWIDTH 600 0
DWIDTH 15 0
BBX 12 19 1 0
BITMAP
3FF0
3FF0
0030
0030
0030
0630
1FB0
38F0
7070
6030
E030
E030
E030
E030
6030
6030
7070
3FF0
1FB0
ENDCHAR
STARTCHAR 018D
ENCODING 397
SWIDTH 600 0
DWIDTH 15 0
BBX 12 20 2 -6
BITMAP
0E00
3FC0
71E0
E060
C070
C030
C030
C030
C070
E060
70C0
3F80
0F00
0780
01C0
00C0
00C0
6180
7F80
1E00
ENDCHAR
STARTCHAR 018E
ENCODING 398
SWIDTH 520 0
DWIDTH 13 0
BBX 10 18 1 0
BITMAP
FFC0
FFC0
00C0
00C0
00C0
00C0
00C0
00C0
7FC0
7FC0
00C0
00C0
00C0
00C0
00C0
00C0
FFC0
FFC0
ENDCHAR
STARTCHAR 018F
ENCODING 399
SWIDTH 720 0
DWIDTH 18 0
BBX 16 18 1 0
BITMAP
1FE0
3FF8
203C
000E
0006
0006
0007
0007
FFFF
FFFF
6007
6007
6006
6006
700E
381C
1FF8
0FF0
ENDCHAR
STARTCHAR 0190
ENCODING 400
SWIDTH 560 0
DWIDTH 14 0
BBX 13 18 1 0
BITMAP
0FC0
3FF0
3030
7000
7000
7000
3000
1C00
0FE0
3FE0
7000
6000
E000
E000
6000
7008
3FF8
1FF0
ENDCHAR
STARTCHAR 0191
ENCODING 401
SWIDTH 560 0
DWIDTH 14 0
BBX 14 24 0 -6
BITMAP
07FC
07FC
0600
0600
0600
0600
0600
0600
07FC
07FC
0600
0600
0600
0600
0600
0600
0600
0600
0600
8600
C600
CE00
FC00
7800
ENDCHAR
STARTCHAR 0192
ENCODING 402
SWIDTH 400 0
DWIDTH 10 0
BBX 11 25 0 -6
BITMAP
03E0
07E0
0600
0600
0E00
0E00
3FC0
0E00
0E00
0E00
0E00
0E00
0E00
0E00
0E00
0E00
0E00
0E00
0E00
0E00
0E00
CE00
CE00
FC00
7800
ENDCHAR
STARTCHAR 0193
ENCODING 403
SWIDTH 720 0
DWIDTH 18 0
BBX 17 21 2 0
BITMAP
000780
000E80
000C00
07FC00
1FFC00
3C0800
700000
E00000
E00000
C00000
C00000
C00000
C0FC00
C0FC00
C00C00
C00C00
E00C00
700C00
780C00
3FFC00
0FFC00
ENDCHAR
STARTCHAR 0194
ENCODING 404
SWIDTH 560 0
DWIDTH 14 0
BBX 14 24 0 -6
BITMAP
C00C
601C
6018
7018
3038
3030
3870
1860
1C60
0CE0
0CC0
0EC0
0780
0780
0380
0300
0780
0780
06C0
0CC0
0CC0
0CC0
07C0
0780
ENDCHAR
STARTCHAR 0195
ENCODING 405
SWIDTH 920 0
DWIDTH 23 0
BBX 19 19 2 0
BITMAP
C00000
C00000
C00000
C00000
C00000
C60000
DFC060
F1C060
E0E060
E06060
C06060
C06060
C06060
C06060
C06060
C06060
C070E0
C07FC0
C01F80
ENDCHAR
STARTCHAR 0196
ENCODING 406
SWIDTH 320 0
DWIDTH 8 0
BBX 6 18 2 0
BITMAP
C0
C0
C0
C0
C0
C0
C0
C0
C0
C0
C0
C0
C0
C0
C0
E0
7C
7C
ENDCHAR
STARTCHAR 0197
ENCODING 407
SWIDTH 320 0
DWIDTH 8 0
BBX 7 18 1 0
BITMAP
FC
FC
30
30
30
30
30
30
FE
FE
30
30
30
30
30
30
7C
FC
ENDCHAR
STARTCHAR 0198
ENCODING 408
SWIDTH 600 0
DWIDTH 15 0
BBX 13 18 2 0
BITMAP
E038
E078
E0E0
E1C0
E180
E300
E600
EE00
FE00
FE00
F700
E380
E1C0
E0C0
E0E0
E070
E030
E038
ENDCHAR
STARTCHAR 0199
ENCODING 409
SWIDTH 520 0
DWIDTH 13 0
BBX 11 19 2 0
BITMAP
7800
F800
C000
C000
C000
C000
C1C0
C380
C700
CE00
CC00
D800
FC00
EE00
C700
C300
C180
C1C0
C0E0
ENDCHAR
STARTCHAR 019A
ENCODING 410
SWIDTH 240 0
DWIDTH 6 0
BBX 6 19 0 0
BITMAP
30
30
30
30
30
30
30
30
FC
FC
30
30
30
30
30
30
30
30
30
ENDCHAR
STARTCHAR 019B
ENCODING 411
SWIDTH 520 0
DWIDTH 13 0
BBX 14 19 0 0
BITMAP
7800
7C80
0FC0
3F00
3600
0700
0700
0700
0D80
0D80
0DC0
18C0
18C0
38E0
3060
7060
6070
E03C
C03C
ENDCHAR
STARTCHAR 019C
ENCODING 412
SWIDTH 1000 0
DWIDTH 25 0
BBX 21 18 2 0
BITMAP
E03018
E03018
E03018
E03018
E03018
E03018
E03018
E03018
E03018
E03018
E03018
E03018
E03018
E07018
E07038
60F838
7F9FF8
3F0F98
ENDCHAR
STARTCHAR 019D
ENCODING 413
SWIDTH 760 0
DWIDTH 19 0
BBX 17 24 0 -6
BITMAP
380380
3C0380
3E0380
360380
370380
330380
318380
31C380
38C380
38E380
387380
383380
383980
381D80
380D80
380F80
380780
380380
380000
380000
380000
300000
F00000
E00000
ENDCHAR
STARTCHAR 019E
ENCODING 414
SWIDTH 600 0
DWIDTH 15 0
BBX 11 20 2 -6
BITMAP
0700
DFC0
F0E0
E060
E060
C060
C060
C060
C060
C060
C060
C060
C060
C060
0060
0060
0060
0060
0060
0060
ENDCHAR
STARTCHAR 019F
ENCODING 415
SWIDTH 760 0
DWIDTH 19 0
BBX 16 18 2 0
BITMAP
0FE0
3FF8
781C
700E
E006
C007
C007
C003
FFFF
FFFF
C003
C007
C007
E006
600E
781C
3FF8
0FF0
ENDCHAR
STARTCHAR 01A0
ENCODING 416
SWIDTH 760 0
DWIDTH 19 0
BBX 18 19 2 0
BITMAP
0000C0
0FE1C0
3FF980
781F80
700F00
E00600
C00700
C00700
C00300
C00300
C00300
C00700
C00700
C00700
E00600
600E00
781C00
3FF800
0FF000
ENDCHAR
STARTCHAR 01A1
ENCODING 417
SWIDTH 600 0
DWIDTH 15 0
BBX 15 15 1 0
BITMAP
0006
020E
1FCC
38F8
7030
6030
E038
E038
E038
E038
6038
6030
7070
3FE0
1FC0
ENDCHAR
STARTCHAR 01A2
ENCODING 418
SWIDTH 1040 0
DWIDTH 26 0
BBX 23 18 2 0
BITMAP
0FE1F8
3FF3FC
783E1C
601C0C
E00C0E
C00E0E
C0060E
C0060E
C0060E
C0060E
C0060E
C0060E
C00E0E
E00C0E
601C0E
70380E
3FF00E
0FE00E
ENDCHAR
STARTCHAR 01A3
ENCODING 419
SWIDTH 840 0
DWIDTH 21 0
BBX 18 20 1 -6
BITMAP
060600
1FDF80
38F1C0
7060C0
6070C0
E030C0
E030C0
E030C0
E030C0
6030C0
6070C0
7060C0
3FC0C0
1F80C0
0000C0
0000C0
0000C0
0000C0
0000C0
0000C0
ENDCHAR
STARTCHAR 01A4
ENCODING 420
SWIDTH 680 0
DWIDTH 17 0
BBX 16 18 0 0
BITMAP
3FF0
7FFC
EE0E
CE07
CE07
0E03
0E07
0E06
0E0E
0FFC
0FF0
0E00
0E00
0E00
0E00
0E00
0E00
0E00
ENDCHAR
STARTCHAR 01A5
ENCODING 421
SWIDTH 600 0
DWIDTH 15 0
BBX 12 25 2 -6
BITMAP
7800
F800
C000
C000
C000
C600
DFC0
F1E0
E060
E070
C030
C030
C030
C030
E070
E070
E0E0
FFC0
CF80
C000
C000
C000
C000
C000
C000
ENDCHAR
STARTCHAR 01A6
ENCODING 422
SWIDTH 600 0
DWIDTH 15 0
BBX 13 21 2 -3
BITMAP
E000
E000
E000
FFC0
FFE0
E060
E070
E030
E070
E070
E0E0
FFC0
FF00
E380
E1C0
E0C0
E0E0
E060
0070
0038
0018
ENDCHAR
STARTCHAR 01A7
ENCODING 423
SWIDTH 520 0
DWIDTH 13 0
BBX 11 18 1 0
BITMAP
3F80
7FC0
20E0
0060
0060
0060
00E0
01E0
0F80
3E00
7800
E000
E000
C000
E000
6000
7FE0
1FE0
ENDCHAR
STARTCHAR 01A8
ENCODING 424
SWIDTH 440 0
DWIDTH 11 0
BBX 10 14 1 0
BITMAP
1C00
7F80
6380
00C0
01C0
0380
0F00
3E00
7000
E000
C000
E040
7FC0
3F80
ENDCHAR
STARTCHAR 01A9
ENCODING 425
SWIDTH 560 0
DWIDTH 14 0
BBX 12 18 1 0
BITMAP
FFF0
FFF0
6000
7000
3800
1C00
0E00
0700
0300
0700
0E00
0C00
1800
3800
7000
E000
FFF0
FFF0
ENDCHAR
STARTCHAR 01AA
ENCODING 426
SWIDTH 320 0
DWIDTH 8 0
BBX 10 25 0 -6
BITMAP
7800
FC00
CC00
CC00
FC00
0C00
0C00
0C00
0C00
0C00
0C00
0C00
0C00
0C00
0C00
0C00
0C00
0C00
0C00
0C00
0C00
0C00
0E00
07C0
03C0
ENDCHAR
STARTCHAR 01AB
ENCODING 427
SWIDTH 360 0
DWIDTH 9 0
BBX 8 22 0 -6
BITMAP
18
18
38
FF
38
38
38
38
38
38
38
38
38
38
1F
0F
03
03
03
03
0F
0E
ENDCHAR
STARTCHAR 01AC
ENCODING 428
SWIDTH 560 0
DWIDTH 14 0
BBX 14 18 0 0
BITMAP
3FFC
7FFC
E380
C380
C380
0380
0380
0380
0380
0380
0380
0380
0380
0380
0380
0380
0380
0380
ENDCHAR
STARTCHAR 01AD
ENCODING 429
SWIDTH 360 0
DWIDTH 9 0
BBX 8 19 0 0
BITMAP
0F
1F
38
38
38
38
FF
38
38
38
38
38
38
38
38
38
38
1F
0F
ENDCHAR
STARTCHAR 01AE
ENCODING 430
SWIDTH 520 0
DWIDTH 13 0
BBX 14 24 0 -6
BITMAP
FFFC
FFFC
0300
0300
0300
0300
0300
0300
0300
0300
0300
0300
0300
0300
0300
0300
0300
0300
0300
0300
0300
0300
03E0
01E0
ENDCHAR
STARTCHAR 01AF
ENCODING 431
SWIDTH 760 0
DWIDTH 19 0
BBX 18 19 2 0
BITMAP
0000C0
E00CC0
E00CC0
E00F80
E00F00
E00C00
E00C00
E00C00
E00C00
E00C00
E00C00
E00C00
E00C00
E00C00
E00C00
601C00
703800
3FF000
1FE000
ENDCHAR
STARTCHAR 01B0
ENCODING 432
SWIDTH 640 0
DWIDTH 16 0
BBX 16 15 2 0
BITMAP
0007
0006
C06E
C07C
C070
C060
C060
C060
C060
C060
C060
C060
E0E0
7FE0
3F60
ENDCHAR
STARTCHAR 01B1
ENCODING 433
SWIDTH 760 0
DWIDTH 19 0
BBX 18 18 1 0
BITMAP
FE3FC0
FE3FC0
0C1C00
180E00
380600
300300
700300
600380
600380
600180
600180
600380
600380
700300
700700
380E00
1FFC00
07F800
ENDCHAR
STARTCHAR 01B2
ENCODING 434
SWIDTH 720 0
DWIDTH 18 0
BBX 14 18 2 0
BITMAP
E0F8
E0FC
E00C
E00C
E00C
E00C
E00C
E00C
E00C
E00C
E00C
E00C
E00C
E01C
6018
7038
3FF0
1FE0
ENDCHAR
STARTCHAR 01B3
ENCODING 435
SWIDTH 560 0
DWIDTH 14 0
BBX 14 18 0 0
BITMAP
E01C
603C
7030
3070
3860
1860
1CC0
0CC0
0780
0780
0300
0300
0300
0300
0300
0300
0300
0300
ENDCHAR
STARTCHAR 01B4
ENCODING 436
SWIDTH 520 0
DWIDTH 13 0
BBX 14 20 0 -6
BITMAP
0018
E03C
6030
6070
3060
3060
38C0
18C0
18C0
0D80
0D80
0D80
0700
0700
0600
0600
0E00
0C00
FC00
F000
ENDCHAR
STARTCHAR 01B5
ENCODING 437
SWIDTH 560 0
DWIDTH 14 0
BBX 12 18 1 0
BITMAP
FFF0
FFF0
0070
00E0
00C0
01C0
0380
0300
7FE0
7FE0
0C00
1C00
3800
3000
7000
E000
FFF0
FFF0
ENDCHAR
STARTCHAR 01B6
ENCODING 438
SWIDTH 440 0
DWIDTH 11 0
BBX 10 13 1 0
BITMAP
FFC0
0180
0380
0300
0600
FF80
FF80
1800
3000
7000
6000
FFC0
FFC0
ENDCHAR
STARTCHAR 01B7
ENCODING 439
SWIDTH 560 0
DWIDTH 14 0
BBX 12 18 1 0
BITMAP
FFE0
FFE0
00E0
01C0
0380
0700
0E00
1C00
1F80
1FE0
0070
0030
0030
0030
0070
8070
FFE0
FF80
ENDCHAR
STARTCHAR 01B8
ENCODING 440
SWIDTH 560 0
DWIDTH 14 0
BBX 13 18 1 0
BITMAP
7FF0
7FF0
3000
1800
0C00
0600
0300
0F80
3F80
7000
6000
E000
E000
E000
6000
7008
3FF8
1FF0
ENDCHAR
STARTCHAR 01B9
ENCODING 441
SWIDTH 480 0
DWIDTH 12 0
BBX 11 19 1 -6
BITMAP
7FE0
6000
3000
1800
1C00
0E00
0700
0780
3F80
7000
E000
C000
C000
C000
C000
E000
7020
3FE0
1FC0
ENDCHAR
STARTCHAR 01BA
ENCODING 442
SWIDTH 480 0
DWIDTH 12 0
BBX 10 19 1 -6
BITMAP
FFC0
0380
0700
0E00
1C00
3E00
3F80
03C0
00C0
00C0
00C0
00C0
01C0
7F80
FE00
C000
C000
FF00
7F00
ENDCHAR
STARTCHAR 01BB
ENCODING 443
SWIDTH 560 0
DWIDTH 14 0
BBX 12 19 1 0
BITMAP
1F00
7FC0
61C0
00C0
00E0
00C0
00C0
00C0
0180
7FF0
0300
0600
0C00
1C00
3800
3000
6000
FFF0
FFF0
ENDCHAR
STARTCHAR 01BC
ENCODING 444
SWIDTH 560 0
DWIDTH 14 0
BBX 12 18 1 0
BITMAP
FFE0
FFE0
3800
3800
3800
3800
3800
3F80
3FC0
00E0
0070
0030
0030
0030
0070
80E0
FFE0
FF80
ENDCHAR
STARTCHAR 01BD
ENCODING 445
SWIDTH 480 0
DWIDTH 12 0
BBX 10 13 1 0
BITMAP
FF80
3000
3000
3000
3C00
3F80
03C0
00C0
00C0
00C0
01C0
FF80
FF00
ENDCHAR
STARTCHAR 01BE
ENCODING 446
SWIDTH 440 0
DWIDTH 11 0
BBX 9 16 1 0
BITMAP
1800
1800
3800
FF00
3800
3800
3800
3800
1C00
1F00
0780
0180
0180
0180
FF80
FF00
ENDCHAR
STARTCHAR 01BF
ENCODING 447
SWIDTH 560 0
DWIDTH 14 0
BBX 11 20 2 -6
BITMAP
0700
DFC0
F1E0
E0E0
E060
C060
C060
C060
C060
C0E0
C1C0
C380
FF00
FC00
C000
C000
C000
C000
C000
C000
ENDCHAR
STARTCHAR 01C0
ENCODING 448
SWIDTH 320 0
DWIDTH 8 0
BBX 2 19 3 0
BITMAP
C0
C0
C0
C0
C0
C0
C0
C0
C0
C0
C0
C0
C0
C0
C0
C0
C0
C0
C0
ENDCHAR
STARTCHAR 01C1
ENCODING 449
SWIDTH 520 0
DWIDTH 13 0
BBX 8 19 3 0
BITMAP
C3
C3
C3
C3
C3
C3
C3
C3
C3
C3
C3
C3
C3
C3
C3
C3
C3
C3
C3
ENDCHAR
STARTCHAR 01C2
ENCODING 450
SWIDTH 480 0
DWIDTH 12 0
BBX 9 19 2 0
BITMAP
1800
1800
1800
1800
1800
1800
FF80
FF80
1800
1800
1800
FF80
1800
1800
1800
1800
1800
1800
1800
ENDCHAR
STARTCHAR 01C3
ENCODING 451
SWIDTH 240 0
DWIDTH 6 0
BBX 3 18 2 0
BITMAP
E0
E0
E0
E0
E0
C0
C0
C0
C0
C0
40
40
40
00
00
E0
E0
E0
ENDCHAR
STARTCHAR 01C4
ENCODING 452
SWIDTH 1280 0
DWIDTH 32 0
BBX 29 24 2 0
BITMAP
00001820
00000CE0
000007C0
00000780
00000000
00000000
FF807FF8
FFE07FF8
E0F00038
E0380070
E01C0060
E00C00E0
E00C01C0
E00E0180
E00E0380
E00E0700
E00E0600
E00C0E00
E00C1C00
E01C1800
E0383800
E0707000
FFE07FF8
FF807FF8
ENDCHAR
STARTCHAR 01C5
ENCODING 453
SWIDTH 1200 0
DWIDTH 30 0
BBX 27 19 2 0
BITMAP
000030C0
FF801980
FFE00F00
E0F00600
E0380000
E01C0000
E00C3FE0
E00C00E0
E00E00C0
E00E0180
E00E0380
E00E0700
E00C0600
E00C0C00
E01C1C00
E0381800
E0703000
FFE07FE0
FF807FE0
ENDCHAR
STARTCHAR 01C6
ENCODING 454
SWIDTH 1080 0
DWIDTH 27 0
BBX 25 19 1 0
BITMAP
0030C300
00307600
00303C00
00301C00
00300000
06300000
1FB0FF80
38F00380
70700300
60300600
E0300E00
E0300C00
E0301800
E0303800
60307000
60306000
7070C000
3FF1FF80
1FB1FF80
ENDCHAR
STARTCHAR 01C7
ENCODING 455
SWIDTH 760 0
DWIDTH 19 0
BBX 16 23 2 -5
BITMAP
E007
E007
E007
E007
E007
E007
E007
E007
E007
E007
E007
E007
E007
E007
E007
E007
FFC7
FFC7
0007
0006
000E
007C
0078
ENDCHAR
STARTCHAR 01C8
ENCODING 456
SWIDTH 760 0
DWIDTH 19 0
BBX 16 24 2 -6
BITMAP
E007
E007
E000
E000
E000
E006
E006
E006
E006
E006
E006
E006
E006
E006
E006
E006
FFC6
FFC6
0006
0006
0006
0006
003E
003C
ENDCHAR
STARTCHAR 01C9
ENCODING 457
SWIDTH 480 0
DWIDTH 12 0
BBX 9 25 2 -6
BITMAP
C000
C380
C380
C000
C000
C000
C180
C180
C180
C180
C180
C180
C180
C180
C180
C180
C180
C180
C180
0180
0180
0180
0380
1F00
1E00
ENDCHAR
STARTCHAR 01CA
ENCODING 458
SWIDTH 1000 0
DWIDTH 25 0
BBX 22 23 2 -5
BITMAP
E00E1C
F00E1C
F80E1C
D80E1C
DC0E1C
CC0E1C
C60E1C
C70E1C
E30E1C
E38E1C
E1CE1C
E0CE1C
E0E61C
E0761C
E0361C
E03E1C
E01E1C
E00E1C
00001C
000018
000038
0001F0
0001C0
ENDCHAR
STARTCHAR 01CB
ENCODING 459
SWIDTH 1000 0
DWIDTH 25 0
BBX 21 24 2 -6
BITMAP
E00E18
F00E18
F80E00
D80E00
DC0E00
CC0E18
C60E18
C70E18
E30E18
E38E18
E1CE18
E0CE18
E0E618
E07618
E03618
E03E18
E01E18
E00E18
000018
000018
000018
000018
0000F8
0000F0
ENDCHAR
STARTCHAR 01CC
ENCODING 460
SWIDTH 840 0
DWIDTH 21 0
BBX 18 24 2 -6
BITMAP
0001C0
0001C0
000000
000000
070000
DFC0C0
F0E0C0
E060C0
E060C0
C060C0
C060C0
C060C0
C060C0
C060C0
C060C0
C060C0
C060C0
C060C0
0000C0
0000C0
0000C0
0001C0
000F80
000F00
ENDCHAR
STARTCHAR 01CD
ENCODING 461
SWIDTH 600 0
DWIDTH 15 0
BBX 16 24 0 0
BITMAP
0830
0E60
07C0
03C0
0000
0000
0180
03C0
03C0
03C0
0660
0660
0E70
0C30
0C30
1C38
1FF8
1FF8
301C
300C
700E
6006
6006
C007
ENDCHAR
STARTCHAR 01CE
ENCODING 462
SWIDTH 560 0
DWIDTH 14 0
BBX 11 19 1 0
BITMAP
30C0
1980
0F00
0600
0000
0600
3FC0
30E0
0060
0060
0060
1FE0
7F60
6060
E060
C0E0
E0E0
7FE0
3E60
ENDCHAR
STARTCHAR 01CF
ENCODING 463
SWIDTH 320 0
DWIDTH 8 0
BBX 8 24 0 0
BITMAP
C1
67
3E
3C
00
00
7E
7E
18
18
18
18
18
18
18
18
18
18
18
18
18
18
3E
7E
ENDCHAR
STARTCHAR 01D0
ENCODING 464
SWIDTH 240 0
DWIDTH 6 0
BBX 8 19 -1 0
BITMAP
C3
76
3C
1C
00
00
18
18
18
18
18
18
18
18
18
18
18
18
18
ENDCHAR
STARTCHAR 01D1
ENCODING 465
SWIDTH 760 0
DWIDTH 19 0
BBX 16 24 2 0
BITMAP
0830
0C60
07C0
0380
0000
0000
0FE0
3FF8
781C
700E
E006
C007
C007
C003
C003
C003
C003
C007
C007
E006
600E
781C
3FF8
0FF0
ENDCHAR
STARTCHAR 01D2
ENCODING 466
SWIDTH 600 0
DWIDTH 15 0
BBX 13 19 1 0
BITMAP
18C0
0DC0
0F80
0700
0000
0300
1FC0
38E0
7070
6030
E038
E038
E038
E038
6038
6030
7070
3FE0
1FC0
ENDCHAR
STARTCHAR 01D3
ENCODING 467
SWIDTH 720 0
DWIDTH 18 0
BBX 14 24 2 0
BITMAP
1820
0CE0
07C0
0780
0000
0000
E00C
E00C
E00C
E00C
E00C
E00C
E00C
E00C
E00C
E00C
E00C
E00C
E00C
E01C
6018
7038
3FF0
1FE0
ENDCHAR
STARTCHAR 01D4
ENCODING 468
SWIDTH 600 0
DWIDTH 15 0
BBX 11 19 2 0
BITMAP
31C0
1B80
0F00
0E00
0000
0000
C060
C060
C060
C060
C060
C060
C060
C060
C060
C060
E0E0
7FE0
3F60
ENDCHAR
STARTCHAR 01D5
ENCODING 469
SWIDTH 720 0
DWIDTH 18 0
BBX 14 25 2 0
BITMAP
1FE0
0000
0000
0C40
0CE0
0840
0000
E00C
E00C
E00C
E00C
E00C
E00C
E00C
E00C
E00C
E00C
E00C
E00C
E00C
E01C
6018
7038
3FF0
1FE0
ENDCHAR
STARTCHAR 01D6
ENCODING 470
SWIDTH 600 0
DWIDTH 15 0
BBX 11 21 2 0
BITMAP
3F80
3F80
0000
0000
3980
3180
0000
0000
C060
C060
C060
C060
C060
C060
C060
C060
C060
C060
E0E0
7FE0
3F60
ENDCHAR
STARTCHAR 01D7
ENCODING 471
SWIDTH 720 0
DWIDTH 18 0
BBX 14 26 2 0
BITMAP
00C0
01C0
0300
0000
0C40
0CE0
0840
0000
E00C
E00C
E00C
E00C
E00C
E00C
E00C
E00C
E00C
E00C
E00C
E00C
E00C
E01C
6018
7038
3FF0
1FE0
ENDCHAR
STARTCHAR 01D8
ENCODING 472
SWIDTH 600 0
DWIDTH 15 0
BBX 11 22 2 0
BITMAP
0180
0380
0600
0C00
0000
3980
3180
0000
0000
C060
C060
C060
C060
C060
C060
C060
C060
C060
C060
E0E0
7FE0
3F60
ENDCHAR
STARTCHAR 01D9
ENCODING 473
SWIDTH 720 0
DWIDTH 18 0
BBX 14 26 2 0
BITMAP
1CE0
07C0
0780
0000
0C40
0CE0
0840
0000
E00C
E00C
E00C
E00C
E00C
E00C
E00C
E00C
E00C
E00C
E00C
E00C
E00C
E01C
6018
7038
3FF0
1FE0
ENDCHAR
STARTCHAR 01DA
ENCODING 474
SWIDTH 600 0
DWIDTH 15 0
BBX 11 22 2 0
BITMAP
30C0
1B80
0F00
0E00
0000
3980
3180
0000
0000
C060
C060
C060
C060
C060
C060
C060
C060
C060
C060
E0E0
7FE0
3F60
ENDCHAR
STARTCHAR 01DB
ENCODING 475
SWIDTH 720 0
DWIDTH 18 0
BBX 14 26 2 0
BITMAP
0E00
0600
0300
0000
0C40
0CE0
0840
0000
E00C
E00C
E00C
E00C
E00C
E00C
E00C
E00C
E00C
E00C
E00C
E00C
E00C
E01C
6018
7038
3FF0
1FE0
ENDCHAR
STARTCHAR 01DC
ENCODING 476
SWIDTH 600 0
DWIDTH 15 0
BBX 11 22 2 0
BITMAP
3800
1800
0C00
0600
0000
3980
3180
0000
0000
C060
C060
C060
C060
C060
C060
C060
C060
C060
C060
E0E0
7FE0
3F60
ENDCHAR
STARTCHAR 01DD
ENCODING 477
SWIDTH 560 0
DWIDTH 14 0
BBX 12 14 1 0
BITMAP
0E00
7F80
61C0
00E0
0060
0070
0070
FFF0
FFF0
E060
6060
60E0
3FC0
1F80
ENDCHAR
STARTCHAR 01DE
ENCODING 478
SWIDTH 600 0
DWIDTH 15 0
BBX 16 25 0 0
BITMAP
0FF0
0000
0000
0660
0E60
0020
0000
0180
03C0
03C0
03C0
0660
0660
0E70
0C30
0C30
1C38
1FF8
1FF8
301C
300C
700E
6006
6006
C007
ENDCHAR
STARTCHAR 01DF
ENCODING 479
SWIDTH 560 0
DWIDTH 14 0
BBX 11 21 1 0
BITMAP
3FC0
3FC0
0000
0000
39C0
1980
0000
0600
3FC0
30E0
0060
0060
0060
1FE0
7F60
6060
E060
C0E0
E0E0
7FE0
3E60
ENDCHAR
STARTCHAR 01E0
ENCODING 480
SWIDTH 600 0
DWIDTH 15 0
BBX 16 25 0 0
BITMAP
0FF0
0FF0
0000
0180
0180
0180
0000
0180
03C0
03C0
03C0
0660
0660
0E70
0C30
0C30
1C38
1FF8
1FF8
301C
300C
700E
6006
6006
C007
ENDCHAR
STARTCHAR 01E1
ENCODING 481
SWIDTH 560 0
DWIDTH 14 0
BBX 11 21 1 0
BITMAP
3FC0
3FC0
0000
0600
0600
0600
0000
0600
3FC0
30E0
0060
0060
0060
1FE0
7F60
6060
E060
C0E0
E0E0
7FE0
3E60
ENDCHAR
STARTCHAR 01E2
ENCODING 482
SWIDTH 880 0
DWIDTH 22 0
BBX 21 21 0 0
BITMAP
007F00
000000
000000
00FFF8
00FFF8
01D800
019800
039800
031800
071800
061800
0E1FF0
0C1FF0
0FF800
1FF800
181800
301800
301800
701800
601FF8
E01FF8
ENDCHAR
STARTCHAR 01E3
ENCODING 483
SWIDTH 840 0
DWIDTH 21 0
BBX 19 17 1 0
BITMAP
03FC00
03FC00
000000
0E0700
7F9F80
31F9C0
00E0E0
00E060
00E060
1FFFE0
7FFFE0
60E000
E0E000
C0E000
E1B000
7FBFE0
3E1FC0
ENDCHAR
STARTCHAR 01E4
ENCODING 484
SWIDTH 720 0
DWIDTH 18 0
BBX 16 18 2 0
BITMAP
07F8
1FFC
3808
7000
E000
C000
C000
C000
C0FC
C0FC
C00C
C00C
C0FF
E0FF
700C
780C
3FFC
0FF8
ENDCHAR
STARTCHAR 01E5
ENCODING 485
SWIDTH 600 0
DWIDTH 15 0
BBX 14 20 1 -6
BITMAP
0600
3FB0
38F0
7070
6030
E030
E030
E030
E030
6030
7070
38F0
1FB0
0030
0030
03FC
03FC
4070
7FE0
3F80
ENDCHAR
STARTCHAR 01E6
ENCODING 486
SWIDTH 720 0
DWIDTH 18 0
BBX 14 24 2 0
BITMAP
0C10
0670
03E0
03C0
0000
0000
07F8
1FFC
3C08
7000
E000
E000
C000
C000
C000
C0FC
C0FC
C00C
C00C
E00C
700C
780C
3FFC
0FFC
ENDCHAR
STARTCHAR 01E7
ENCODING 487
SWIDTH 600 0
DWIDTH 15 0
BBX 12 25 1 -6
BITMAP
38C0
1D80
0F80
0700
0000
0600
1FB0
38F0
7070
6030
E030
E030
E030
E030
6030
6030
7070
3FF0
1FB0
0030
0030
0030
4070
7FE0
3F80
ENDCHAR
STARTCHAR 01E8
ENCODING 488
SWIDTH 600 0
DWIDTH 15 0
BBX 13 24 2 0
BITMAP
3060
18C0
0D80
0700
0000
0000
E038
E070
E0E0
E0C0
E180
E300
E600
EE00
FE00
F600
E700
E380
E180
E1C0
E0E0
E070
E030
E038
ENDCHAR
STARTCHAR 01E9
ENCODING 489
SWIDTH 520 0
DWIDTH 13 0
BBX 14 25 -1 0
BITMAP
C100
6700
3E00
1C00
0000
0000
1800
1800
1800
1800
1800
1800
1838
1870
18E0
19C0
1980
1B00
1F80
1DC0
18E0
1860
1830
1838
181C
ENDCHAR
STARTCHAR 01EA
ENCODING 490
SWIDTH 760 0
DWIDTH 19 0
BBX 16 23 2 -6
BITMAP
0FE0
3FF8
781C
700E
E006
C007
C007
C003
C003
C003
C003
C007
C007
E006
600E
781C
3FF8
0FF0
0180
0300
0300
0300
03C0
ENDCHAR
STARTCHAR 01EB
ENCODING 491
SWIDTH 600 0
DWIDTH 15 0
BBX 13 19 1 -6
BITMAP
0300
1FC0
38E0
7070
6030
E038
E038
E038
E038
6038
6030
7070
3FE0
1FC0
0300
0600
0600
0600
0780
ENDCHAR
STARTCHAR 01EC
ENCODING 492
SWIDTH 760 0
DWIDTH 19 0
BBX 16 27 2 -6
BITMAP
0FE0
0000
0000
0FE0
3FF8
781C
700E
E006
C007
C007
C003
C003
C003
C003
C007
C007
E006
600E
781C
3FF8
0FF0
0180
0100
0300
0300
01C0
0080
ENDCHAR
STARTCHAR 01ED
ENCODING 493
SWIDTH 600 0
DWIDTH 15 0
BBX 13 22 1 -6
BITMAP
1FC0
1FC0
0000
0300
1FC0
38E0
7070
6030
E038
E038
E038
E038
6038
6030
7070
3FE0
1FC0
0300
0600
0600
0600
0780
ENDCHAR
STARTCHAR 01EE
ENCODING 494
SWIDTH 560 0
DWIDTH 14 0
BBX 12 24 1 0
BITMAP
20C0
3980
1F00
0F00
0000
0000
FFE0
FFE0
00E0
01C0
0380
0700
0E00
1C00
1F80
1FE0
0070
0030
0030
0030
0070
8070
FFE0
FF80
ENDCHAR
STARTCHAR 01EF
ENCODING 495
SWIDTH 480 0
DWIDTH 12 0
BBX 12 25 0 -6
BITMAP
30C0
1B80
0F00
0600
0000
0000
7FE0
00E0
01C0
0380
0300
0600
0C00
1E00
1F80
01C0
0060
0060
0070
0070
0060
0060
80E0
FFC0
7F00
ENDCHAR
STARTCHAR 01F0
ENCODING 496
SWIDTH 240 0
DWIDTH 6 0
BBX 8 25 -1 -6
BITMAP
C3
76
3C
1C
00
00
18
18
18
18
18
18
18
18
18
18
18
18
18
18
18
18
18
F8
F0
ENDCHAR
STARTCHAR 01F1
ENCODING 497
SWIDTH 1280 0
DWIDTH 32 0
BBX 29 18 2 0
BITMAP
FF807FF8
FFE07FF8
E0F00038
E0380070
E01C0060
E00C00E0
E00C01C0
E00E0180
E00E0380
E00E0700
E00E0600
E00C0E00
E00C1C00
E01C1800
E0383800
E0707000
FFE07FF8
FF807FF8
ENDCHAR
STARTCHAR 01F2
ENCODING 498
SWIDTH 1200 0
DWIDTH 30 0
BBX 27 18 2 0
BITMAP
FF800000
FFE00000
E0F00000
E0380000
E01C0000
E00C3FE0
E00C00E0
E00E00C0
E00E0180
E00E0380
E00E0700
E00C0600
E00C0C00
E01C1C00
E0381800
E0703000
FFE07FE0
FF807FE0
ENDCHAR
STARTCHAR 01F3
ENCODING 499
SWIDTH 1080 0
DWIDTH 27 0
BBX 25 19 1 0
BITMAP
00300000
00300000
00300000
00300000
00300000
06300000
1FB0FF80
38F00380
70700300
60300600
E0300E00
E0300C00
E0301800
E0303800
60307000
60306000
7070C000
3FF1FF80
1FB1FF80
ENDCHAR
STARTCHAR 01F4
ENCODING 500
SWIDTH 720 0
DWIDTH 18 0
BBX 14 24 2 0
BITMAP
0070
0060
00C0
0180
0000
0000
07F8
1FFC
3C08
7000
E000
E000
C000
C000
C000
C0FC
C0FC
C00C
C00C
E00C
700C
780C
3FFC
0FFC
ENDCHAR
STARTCHAR 01F5
ENCODING 501
SWIDTH 600 0
DWIDTH 15 0
BBX 12 25 1 -6
BITMAP
01C0
0380
0300
0600
0000
0600
1FB0
38F0
7070
6030
E030
E030
E030
E030
6030
6030
7070
3FF0
1FB0
0030
0030
0030
4070
7FE0
3F80
ENDCHAR
STARTCHAR 01F6
ENCODING 502
SWIDTH 920 0
DWIDTH 23 0
BBX 19 18 2 0
BITMAP
E03000
E03000
E03000
E03000
E03000
E03060
E03060
E03060
FFF060
FFF060
E03060
E03060
E03060
E03060
E03060
E038E0
E01FC0
E00F80
ENDCHAR
STARTCHAR 01F7
ENCODING 503
SWIDTH 640 0
DWIDTH 16 0
BBX 13 24 2 -6
BITMAP
C7C0
CFF0
F830
F038
E018
E018
E018
E018
E018
E038
E030
E070
E0E0
E1C0
E380
EF00
FC00
F000
E000
E000
E000
E000
E000
E000
ENDCHAR
STARTCHAR 01F8
ENCODING 504
SWIDTH 760 0
DWIDTH 19 0
BBX 15 24 2 0
BITMAP
0E00
0600
0300
0180
0000
0000
E00E
F00E
F80E
D80E
DC0E
CC0E
C60E
C70E
E30E
E38E
E1CE
E0CE
E0E6
E076
E036
E03E
E01E
E00E
ENDCHAR
STARTCHAR 01F9
ENCODING 505
SWIDTH 600 0
DWIDTH 15 0
BBX 11 19 2 0
BITMAP
1800
0C00
0600
0200
0000
0700
DFC0
F0E0
E060
E060
C060
C060
C060
C060
C060
C060
C060
C060
C060
ENDCHAR
STARTCHAR 01FA
ENCODING 506
SWIDTH 640 0
DWIDTH 16 0
BBX 16 24 0 0
BITMAP
0060
00C0
0180
0000
03C0
0660
0660
0660
03C0
03C0
03C0
0660
0660
0E70
0C30
0C30
1818
1FF8
3FFC
300C
700E
6006
6006
E007
ENDCHAR
STARTCHAR 01FB
ENCODING 507
SWIDTH 560 0
DWIDTH 14 0
BBX 11 24 1 0
BITMAP
01C0
0300
0600
0000
0F00
1980
1980
0F80
0700
0000
0600
3FC0
30E0
0060
0060
0060
1FE0
7F60
6060
E060
C0E0
E0E0
7FE0
3E60
ENDCHAR
STARTCHAR 01FC
ENCODING 508
SWIDTH 880 0
DWIDTH 22 0
BBX 21 24 0 0
BITMAP
000700
000600
000C00
001800
000000
000000
00FFF8
00FFF8
01D800
019800
039800
031800
071800
061800
0E1FF0
0C1FF0
0FF800
1FF800
181800
301800
301800
701800
601FF8
E01FF8
ENDCHAR
STARTCHAR 01FD
ENCODING 509
SWIDTH 840 0
DWIDTH 21 0
BBX 19 19 1 0
BITMAP
001800
003800
007000
006000
000000
0E0700
7F9F80
31F9C0
00E0E0
00E060
00E060
1FFFE0
7FFFE0
60E000
E0E000
C0E000
E1B000
7FBFE0
3E1FC0
ENDCHAR
STARTCHAR 01FE
ENCODING 510
SWIDTH 760 0
DWIDTH 19 0
BBX 16 24 2 -1
BITMAP
0070
00E0
00C0
0180
0000
0004
0FE6
3FFC
781C
703E
E036
C067
C0E7
C0C3
C183
C303
C303
C607
CC07
FC06
780E
781C
7FF8
6FF0
ENDCHAR
STARTCHAR 01FF
ENCODING 511
SWIDTH 600 0
DWIDTH 15 0
BBX 13 20 1 -1
BITMAP
01C0
0180
0300
0600
0000
0330
1FF0
38E0
70F0
60F0
E1B8
E338
E738
E638
6C38
7830
7870
3FE0
7FC0
2000
ENDCHAR
STARTCHAR 0200
ENCODING 512
SWIDTH 600 0
DWIDTH 15 0
BBX 16 24 0 0
BITMAP
3980
19C0
0CC0
0660
0000
0000
0180
03C0
03C0
03C0
0660
0660
0E70
0C30
0C30
1C38
1FF8
1FF8
301C
300C
700E
6006
6006
C007
ENDCHAR
STARTCHAR 0201
ENCODING 513
SWIDTH 560 0
DWIDTH 14 0
BBX 11 19 1 0
BITMAP
6700
7300
3180
1880
0000
0600
3FC0
30E0
0060
0060
0060
1FE0
7F60
6060
E060
C0E0
E0E0
7FE0
3E60
ENDCHAR
STARTCHAR 0202
ENCODING 514
SWIDTH 600 0
DWIDTH 15 0
BBX 16 23 0 0
BITMAP
03C0
07E0
0C30
0000
0000
0180
03C0
03C0
03C0
0660
0660
0E70
0C30
0C30
1C38
1FF8
1FF8
301C
300C
700E
6006
6006
C007
ENDCHAR
STARTCHAR 0203
ENCODING 515
SWIDTH 560 0
DWIDTH 14 0
BBX 11 19 1 0
BITMAP
0200
1F80
39C0
30C0
0000
0600
3FC0
30E0
0060
0060
0060
1FE0
7F60
6060
E060
C0E0
E0E0
7FE0
3E60
ENDCHAR
STARTCHAR 0204
ENCODING 516
SWIDTH 520 0
DWIDTH 13 0
BBX 10 24 2 0
BITMAP
CE00
6600
7300
3180
0000
0000
FFC0
FFC0
E000
E000
E000
E000
E000
E000
FFC0
FFC0
E000
E000
E000
E000
E000
E000
FFC0
FFC0
ENDCHAR
STARTCHAR 0205
ENCODING 517
SWIDTH 560 0
DWIDTH 14 0
BBX 12 19 1 0
BITMAP
6700
3300
3180
1880
0000
0700
1FC0
38E0
7060
6070
6070
FFF0
FFF0
E000
6000
6000
7000
3FE0
1FE0
ENDCHAR
STARTCHAR 0206
ENCODING 518
SWIDTH 520 0
DWIDTH 13 0
BBX 10 23 2 0
BITMAP
0F00
3F80
2080
0000
0000
FFC0
FFC0
E000
E000
E000
E000
E000
E000
FFC0
FFC0
E000
E000
E000
E000
E000
E000
FFC0
FFC0
ENDCHAR
STARTCHAR 0207
ENCODING 519
SWIDTH 560 0
DWIDTH 14 0
BBX 12 19 1 0
BITMAP
0200
1F80
18C0
3040
0000
0700
1FC0
38E0
7060
6070
6070
FFF0
FFF0
E000
6000
6000
7000
3FE0
1FE0
ENDCHAR
STARTCHAR 0208
ENCODING 520
SWIDTH 320 0
DWIDTH 8 0
BBX 8 24 -1 0
BITMAP
CE
E6
67
33
00
00
3F
3F
0C
0C
0C
0C
0C
0C
0C
0C
0C
0C
0C
0C
0C
0C
1F
3F
ENDCHAR
STARTCHAR 0209
ENCODING 521
SWIDTH 240 0
DWIDTH 6 0
BBX 9 19 -2 0
BITMAP
CE00
6600
2300
1180
0000
0000
0C00
0C00
0C00
0C00
0C00
0C00
0C00
0C00
0C00
0C00
0C00
0C00
0C00
ENDCHAR
STARTCHAR 020A
ENCODING 522
SWIDTH 320 0
DWIDTH 8 0
BBX 8 23 0 0
BITMAP
3C
7F
C3
00
00
7E
7E
18
18
18
18
18
18
18
18
18
18
18
18
18
18
3E
7E
ENDCHAR
STARTCHAR 020B
ENCODING 523
SWIDTH 240 0
DWIDTH 6 0
BBX 8 19 -1 0
BITMAP
08
7E
63
C1
00
00
18
18
18
18
18
18
18
18
18
18
18
18
18
ENDCHAR
STARTCHAR 020C
ENCODING 524
SWIDTH 760 0
DWIDTH 19 0
BBX 16 24 2 0
BITMAP
3980
19C0
0CC0
0460
0000
0000
0FE0
3FF8
781C
700E
E006
C007
C007
C003
C003
C003
C003
C007
C007
E006
600E
781C
3FF8
0FF0
ENDCHAR
STARTCHAR 020D
ENCODING 525
SWIDTH 600 0
DWIDTH 15 0
BBX 13 19 1 0
BITMAP
7300
3380
1980
0CC0
0000
0300
1FC0
38E0
7070
6030
E038
E038
E038
E038
6038
6030
7070
3FE0
1FC0
ENDCHAR
STARTCHAR 020E
ENCODING 526
SWIDTH 760 0
DWIDTH 19 0
BBX 16 23 2 0
BITMAP
03C0
07E0
0C30
0000
0000
0FE0
3FF8
781C
700E
E006
C007
C007
C003
C003
C003
C003
C007
C007
E006
600E
781C
3FF8
0FF0
ENDCHAR
STARTCHAR 020F
ENCODING 527
SWIDTH 600 0
DWIDTH 15 0
BBX 13 18 1 1
BITMAP
0FC0
18C0
1040
0000
0300
1FC0
38E0
7070
6030
E038
E038
E038
E038
6038
6030
7070
3FE0
1FC0
ENDCHAR
STARTCHAR 0210
ENCODING 528
SWIDTH 600 0
DWIDTH 15 0
BBX 13 24 2 0
BITMAP
E600
6700
3300
1180
0000
0000
FF00
FFC0
E0E0
E070
E070
E030
E070
E060
E1E0
FF80
FF80
E180
E1C0
E0C0
E0E0
E070
E030
E038
ENDCHAR
STARTCHAR 0211
ENCODING 529
SWIDTH 400 0
DWIDTH 10 0
BBX 9 19 1 0
BITMAP
CE00
E600
6300
3100
0000
0380
6780
6C80
7800
7000
7000
6000
6000
6000
6000
6000
6000
6000
6000
ENDCHAR
STARTCHAR 0212
ENCODING 530
SWIDTH 600 0
DWIDTH 15 0
BBX 13 23 2 0
BITMAP
0F00
1F80
30C0
0000
0000
FF00
FFC0
E0E0
E070
E070
E030
E070
E060
E1E0
FF80
FF80
E180
E1C0
E0C0
E0E0
E070
E030
E038
ENDCHAR
STARTCHAR 0213
ENCODING 531
SWIDTH 400 0
DWIDTH 10 0
BBX 8 18 2 1
BITMAP
7E
E7
C3
00
07
CF
D9
F0
E0
E0
C0
C0
C0
C0
C0
C0
C0
C0
ENDCHAR
STARTCHAR 0214
ENCODING 532
SWIDTH 720 0
DWIDTH 18 0
BBX 14 24 2 0
BITMAP
3300
3980
19C0
0CC0
0000
0000
E00C
E00C
E00C
E00C
E00C
E00C
E00C
E00C
E00C
E00C
E00C
E00C
E00C
E01C
6018
7038
3FF0
1FE0
ENDCHAR
STARTCHAR 0215
ENCODING 533
SWIDTH 600 0
DWIDTH 15 0
BBX 11 19 2 0
BITMAP
E600
6300
3300
1980
0000
0000
C060
C060
C060
C060
C060
C060
C060
C060
C060
C060
E0E0
7FE0
3F60
ENDCHAR
STARTCHAR 0216
ENCODING 534
SWIDTH 720 0
DWIDTH 18 0
BBX 14 23 2 0
BITMAP
0780
0FC0
1860
0000
0000
E00C
E00C
E00C
E00C
E00C
E00C
E00C
E00C
E00C
E00C
E00C
E00C
E00C
E01C
6018
7038
3FF0
1FE0
ENDCHAR
STARTCHAR 0217
ENCODING 535
SWIDTH 600 0
DWIDTH 15 0
BBX 11 18 2 1
BITMAP
1F80
3180
20C0
0000
0000
C060
C060
C060
C060
C060
C060
C060
C060
C060
C060
E0E0
7FE0
3F60
ENDCHAR
STARTCHAR 0218
ENCODING 536
SWIDTH 520 0
DWIDTH 13 0
BBX 12 24 1 -6
BITMAP
1FC0
3FE0
7020
6000
E000
6000
7000
7800
1F00
0FC0
01E0
0060
0060
0070
0060
80E0
FFC0
7F80
0000
0000
0600
0C00
0C00
0800
ENDCHAR
STARTCHAR 0219
ENCODING 537
SWIDTH 440 0
DWIDTH 11 0
BBX 10 20 1 -6
BITMAP
0E00
7F80
7180
C000
E000
7000
3C00
1F00
0380
01C0
00C0
81C0
FF80
7F00
0000
0000
0C00
0C00
0800
1800
ENDCHAR
STARTCHAR 021A
ENCODING 538
SWIDTH 520 0
DWIDTH 13 0
BBX 14 24 0 -6
BITMAP
FFFC
FFFC
0300
0300
0300
0300
0300
0300
0300
0300
0300
0300
0300
0300
0300
0300
0300
0300
0000
0000
0300
0300
0200
0600
ENDCHAR
STARTCHAR 021B
ENCODING 539
SWIDTH 360 0
DWIDTH 9 0
BBX 8 22 0 -6
BITMAP
18
18
38
FF
38
38
38
38
38
38
38
38
38
38
1F
0F
00
00
06
0C
0C
08
ENDCHAR
STARTCHAR 021C
ENCODING 540
SWIDTH 560 0
DWIDTH 14 0
BBX 12 22 1 -5
BITMAP
3F80
FFE0
C0E0
0070
0070
0070
00E0
01C0
0F80
1FC0
10E0
0070
0030
0030
0030
0070
0060
01E0
03C0
1F00
FC00
F000
ENDCHAR
STARTCHAR 021D
ENCODING 541
SWIDTH 480 0
DWIDTH 12 0
BBX 10 20 1 -6
BITMAP
1C00
FF80
4380
01C0
01C0
01C0
0180
0700
3F00
3B80
01C0
00C0
00C0
00C0
01C0
0380
0700
3E00
F800
C000
ENDCHAR
STARTCHAR 021E
ENCODING 542
SWIDTH 720 0
DWIDTH 18 0
BBX 14 24 2 0
BITMAP
1830
0CE0
07C0
0780
0000
0000
E00C
E00C
E00C
E00C
E00C
E00C
E00C
E00C
FFFC
FFFC
E00C
E00C
E00C
E00C
E00C
E00C
E00C
E00C
ENDCHAR
STARTCHAR 021F
ENCODING 543
SWIDTH 600 0
DWIDTH 15 0
BBX 14 25 -1 0
BITMAP
C100
6700
3E00
1C00
0000
0000
1800
1800
1800
1800
1800
18C0
1BF8
1E1C
1C0C
1C0C
180C
180C
180C
180C
180C
180C
180C
180C
180C
ENDCHAR
STARTCHAR 0220
ENCODING 544
SWIDTH 720 0
DWIDTH 18 0
BBX 14 24 2 -6
BITMAP
C7E0
CFF8
F838
F01C
E00C
E00C
E00C
E00C
E00C
E00C
E00C
E00C
E00C
E00C
E00C
E00C
E00C
E00C
000C
000C
000C
000C
000C
000C
ENDCHAR
STARTCHAR 0221
ENCODING 545
SWIDTH 840 0
DWIDTH 21 0
BBX 20 22 1 -3
BITMAP
003000
003000
003000
003000
003000
063000
1FB000
38F000
707000
603000
E03000
E03000
E03000
E031E0
6033F0
603630
707C30
3FDFF0
1F8FC0
001800
001800
001800
ENDCHAR
STARTCHAR 0222
ENCODING 546
SWIDTH 640 0
DWIDTH 16 0
BBX 14 18 1 0
BITMAP
7018
7018
7018
7018
3018
3838
1FF0
1FE0
3838
701C
600C
E00C
E00C
600C
601C
7038
3FF8
0FE0
ENDCHAR
STARTCHAR 0223
ENCODING 547
SWIDTH 560 0
DWIDTH 14 0
BBX 13 19 1 0
BITMAP
6030
6030
6030
6030
6070
7070
38E0
1FC0
3FE0
7070
6030
E038
E038
E038
E038
6030
7070
3FE0
1FC0
ENDCHAR
STARTCHAR 0224
ENCODING 548
SWIDTH 560 0
DWIDTH 14 0
BBX 12 23 1 -5
BITMAP
FFF0
FFF0
0070
00E0
00C0
01C0
0380
0300
0700
0E00
0C00
1C00
3800
3000
7000
E000
FFF0
FFF0
0030
0030
0030
00F0
00E0
ENDCHAR
STARTCHAR 0225
ENCODING 549
SWIDTH 440 0
DWIDTH 11 0
BBX 10 18 1 -5
BITMAP
FFC0
0180
0380
0300
0600
0E00
1C00
1800
3000
7000
6000
FFC0
FFC0
00C0
00C0
00C0
0780
0780
ENDCHAR
STARTCHAR 0226
ENCODING 550
SWIDTH 600 0
DWIDTH 15 0
BBX 16 23 0 0
BITMAP
0180
0180
0180
0000
0000
0180
03C0
03C0
03C0
0660
0660
0E70
0C30
0C30
1C38
1FF8
1FF8
301C
300C
700E
6006
6006
C007
ENDCHAR
STARTCHAR 0227
ENCODING 551
SWIDTH 560 0
DWIDTH 14 0
BBX 11 18 1 0
BITMAP
0600
0600
0000
0000
0600
3FC0
30E0
0060
0060
0060
1FE0
7F60
6060
E060
C0E0
E0E0
7FE0
3E60
ENDCHAR
STARTCHAR 0228
ENCODING 552
SWIDTH 520 0
DWIDTH 13 0
BBX 10 24 2 -6
BITMAP
FFC0
FFC0
E000
E000
E000
E000
E000
E000
FFC0
FFC0
E000
E000
E000
E000
E000
E000
FFC0
FFC0
0400
0C00
0700
0300
0700
1E00
ENDCHAR
STARTCHAR 0229
ENCODING 553
SWIDTH 560 0
DWIDTH 14 0
BBX 12 20 1 -6
BITMAP
0700
1FC0
38E0
7060
6070
6070
FFF0
FFF0
E000
6000
6000
7000
3FE0
1FE0
0200
0600
0380
0180
0380
0F00
ENDCHAR
STARTCHAR 022A
ENCODING 554
SWIDTH 760 0
DWIDTH 19 0
BBX 16 25 2 0
BITMAP
0FE0
0000
0000
0C60
0E60
0400
0000
0FE0
3FF8
781C
700E
E006
C007
C007
C003
C003
C003
C003
C007
C007
E006
600E
781C
3FF8
0FF0
ENDCHAR
STARTCHAR 022B
ENCODING 555
SWIDTH 600 0
DWIDTH 15 0
BBX 13 21 1 0
BITMAP
1FC0
1FC0
0000
0000
18C0
18C0
0000
0300
1FC0
38E0
7070
6030
E038
E038
E038
E038
6038
6030
7070
3FE0
1FC0
ENDCHAR
STARTCHAR 022C
ENCODING 556
SWIDTH 760 0
DWIDTH 19 0
BBX 16 25 2 0
BITMAP
0FE0
0000
0000
0FB0
09E0
0000
0000
0FE0
3FF8
781C
700E
E006
C007
C007
C003
C003
C003
C003
C007
C007
E006
600E
781C
3FF8
0FF0
ENDCHAR
STARTCHAR 022D
ENCODING 557
SWIDTH 600 0
DWIDTH 15 0
BBX 13 21 1 0
BITMAP
1FC0
1FC0
0000
1C60
1FC0
31C0
0000
0300
1FC0
38E0
7070
6030
E038
E038
E038
E038
6038
6030
7070
3FE0
1FC0
ENDCHAR
STARTCHAR 022E
ENCODING 558
SWIDTH 760 0
DWIDTH 19 0
BBX 16 23 2 0
BITMAP
0180
0380
0180
0000
0000
0FE0
3FF8
781C
700E
E006
C007
C007
C003
C003
C003
C003
C007
C007
E006
600E
781C
3FF8
0FF0
ENDCHAR
STARTCHAR 022F
ENCODING 559
SWIDTH 600 0
DWIDTH 15 0
BBX 13 18 1 0
BITMAP
0700
0700
0000
0000
0300
1FC0
38E0
7070
6030
E038
E038
E038
E038
6038
6030
7070
3FE0
1FC0
ENDCHAR
STARTCHAR 0230
ENCODING 560
SWIDTH 760 0
DWIDTH 19 0
BBX 16 25 2 0
BITMAP
0FE0
0FE0
0000
0180
0180
0100
0000
0FE0
3FF8
781C
700E
E006
C007
C007
C003
C003
C003
C003
C007
C007
E006
600E
781C
3FF8
0FF0
ENDCHAR
STARTCHAR 0231
ENCODING 561
SWIDTH 600 0
DWIDTH 15 0
BBX 13 21 1 0
BITMAP
1FC0
1FC0
0000
0300
0700
0200
0000
0300
1FC0
38E0
7070
6030
E038
E038
E038
E038
6038
6030
7070
3FE0
1FC0
ENDCHAR
STARTCHAR 0232
ENCODING 562
SWIDTH 560 0
DWIDTH 14 0
BBX 14 21 0 0
BITMAP
1FE0
0000
0000
E00C
6018
7038
3030
3870
1860
1CE0
0CC0
07C0
0780
0380
0300
0300
0300
0300
0300
0300
0300
ENDCHAR
STARTCHAR 0233
ENCODING 563
SWIDTH 480 0
DWIDTH 12 0
BBX 12 23 0 -6
BITMAP
1FC0
1FC0
0000
0000
E030
6030
6070
3060
3060
38E0
18C0
18C0
0D80
0D80
0D80
0700
0700
0600
0600
0E00
0C00
FC00
F000
ENDCHAR
STARTCHAR 0234
ENCODING 564
SWIDTH 360 0
DWIDTH 9 0
BBX 9 20 0 -1
BITMAP
3000
3000
3000
3000
3000
3000
3000
3000
3000
3000
3000
3000
3000
3F00
3F80
3180
7180
7F80
DF00
4000
ENDCHAR
STARTCHAR 0235
ENCODING 565
SWIDTH 720 0
DWIDTH 18 0
BBX 16 15 2 -1
BITMAP
0700
DFC0
F0E0
E060
E060
C060
C060
C060
C06E
C07F
C073
C0F3
C0FF
C19E
0080
ENDCHAR
STARTCHAR 0236
ENCODING 566
SWIDTH 360 0
DWIDTH 9 0
BBX 9 17 0 -1
BITMAP
1800
1800
3800
FF00
3800
3800
3800
3800
3800
3800
3F00
3F80
3980
7980
7F80
6F80
4000
ENDCHAR
STARTCHAR 0237
ENCODING 567
SWIDTH 240 0
DWIDTH 6 0
BBX 5 19 -1 -6
BITMAP
18
18
18
18
18
18
18
18
18
18
18
18
18
18
18
18
18
F8
F0
ENDCHAR
STARTCHAR 0238
ENCODING 568
SWIDTH 960 0
DWIDTH 24 0
BBX 22 19 1 0
BITMAP
003000
003000
003000
003000
003000
063180
1FB7F0
38FC78
707818
60381C
E0300C
E0300C
E0300C
E0300C
60301C
607818
707C38
3FCFF0
1F87E0
ENDCHAR
STARTCHAR 0239
ENCODING 569
SWIDTH 960 0
DWIDTH 24 0
BBX 22 20 1 -6
BITMAP
070180
1FC7F0
38EC38
707818
60381C
E0300C
E0300C
E0300C
E0300C
60301C
603818
707838
3FFFF0
1FB3E0
003000
003000
003000
003000
003000
003000
ENDCHAR
STARTCHAR 023A
ENCODING 570
SWIDTH 600 0
DWIDTH 15 0
BBX 16 21 0 -2
BITMAP
0010
01B0
03F0
03E0
03E0
0660
0660
0EE0
0CF0
0DB0
1DB8
1FF8
1FF8
331C
320C
760E
6606
6406
CC07
0C00
0800
ENDCHAR
STARTCHAR 023B
ENCODING 571
SWIDTH 600 0
DWIDTH 15 0
BBX 13 21 2 -2
BITMAP
0030
07F0
1FF8
3870
7040
E0C0
E0C0
C080
C180
C180
C100
C300
C300
C200
E600
7600
7C00
3FF0
0FF0
0800
1800
ENDCHAR
STARTCHAR 023C
ENCODING 572
SWIDTH 480 0
DWIDTH 12 0
BBX 11 24 1 -5
BITMAP
0060
0040
00C0
00C0
0080
0780
1FC0
39C0
7300
6300
E200
E600
E600
EC00
6C00
6800
7800
3FC0
1FC0
3000
3000
2000
6000
6000
ENDCHAR
STARTCHAR 023D
ENCODING 573
SWIDTH 520 0
DWIDTH 13 0
BBX 12 18 0 0
BITMAP
3800
3800
3800
3800
3800
3800
3800
3800
FF80
FF80
3800
3800
3800
3800
3800
3800
3FF0
3FF0
ENDCHAR
STARTCHAR 023E
ENCODING 574
SWIDTH 520 0
DWIDTH 13 0
BBX 14 21 0 -2
BITMAP
0018
FFFC
FFFC
0320
0360
0340
03C0
03C0
0380
0380
0300
0300
0700
0700
0F00
0F00
0B00
1B00
1300
3000
2000
ENDCHAR
STARTCHAR 023F
ENCODING 575
SWIDTH 440 0
DWIDTH 11 0
BBX 10 20 1 -6
BITMAP
0E00
7F80
7180
C000
E000
7000
3C00
1F00
0380
01C0
00C0
81C0
FF80
FF00
1800
1800
0C00
0C00
0FC0
03C0
ENDCHAR
STARTCHAR 0240
ENCODING 576
SWIDTH 440 0
DWIDTH 11 0
BBX 10 19 1 -6
BITMAP
FFC0
0180
0380
0300
0600
0E00
1C00
1800
3000
7000
6000
E000
F800
1800
0C00
0C00
0E00
07C0
03C0
ENDCHAR
STARTCHAR 0241
ENCODING 577
SWIDTH 440 0
DWIDTH 11 0
BBX 10 18 0 0
BITMAP
3F00
FF80
41C0
00C0
00C0
00C0
00C0
01C0
0380
0F00
1E00
1800
1800
1800
1800
1800
1800
1800
ENDCHAR
STARTCHAR 0242
ENCODING 578
SWIDTH 400 0
DWIDTH 10 0
BBX 9 14 1 0
BITMAP
1800
FF00
C700
0380
0180
0180
0180
0380
0700
0E00
3C00
3000
3000
3000
ENDCHAR
STARTCHAR 0243
ENCODING 579
SWIDTH 640 0
DWIDTH 16 0
BBX 15 18 0 0
BITMAP
3FE0
3FF8
383C
380C
380C
380C
380C
3838
3FE0
3FF8
380C
380E
FF0E
FF0E
380E
381C
3FF8
3FF0
ENDCHAR
STARTCHAR 0244
ENCODING 580
SWIDTH 720 0
DWIDTH 18 0
BBX 18 18 0 0
BITMAP
380300
380300
380300
380300
380300
380300
380300
FFFFC0
FFFFC0
380300
380300
380300
380300
380700
180600
1C0E00
0FFC00
07F800
ENDCHAR
STARTCHAR 0245
ENCODING 581
SWIDTH 600 0
DWIDTH 15 0
BBX 15 18 0 0
BITMAP
0380
0380
03C0
06C0
06C0
0660
0C60
0C60
1C30
1830
1830
3818
3018
301C
700C
600C
600E
C006
ENDCHAR
STARTCHAR 0246
ENCODING 582
SWIDTH 520 0
DWIDTH 13 0
BBX 10 21 2 -2
BITMAP
0080
FFC0
FFC0
E180
E100
E300
E300
E300
E200
FFC0
FFC0
E600
E400
EC00
EC00
EC00
E800
FFC0
FFC0
1800
1000
ENDCHAR
STARTCHAR 0247
ENCODING 583
SWIDTH 560 0
DWIDTH 14 0
BBX 12 24 1 -5
BITMAP
0060
0040
00C0
00C0
0080
0780
1FC0
39E0
7360
6370
6230
FFF0
FFF0
E400
6C00
6C00
7800
3FE0
1FE0
1000
3000
3000
2000
6000
ENDCHAR
STARTCHAR 0248
ENCODING 584
SWIDTH 240 0
DWIDTH 6 0
BBX 9 23 -2 -5
BITMAP
0E00
0E00
0E00
0E00
0E00
0E00
0E00
0E00
3F80
3F80
0E00
0E00
0E00
0E00
0E00
0E00
0E00
0E00
0E00
0C00
1C00
F800
E000
ENDCHAR
STARTCHAR 0249
ENCODING 585
SWIDTH 240 0
DWIDTH 6 0
BBX 7 24 -1 -6
BITMAP
18
18
00
00
00
18
18
18
18
18
7E
7E
18
18
18
18
18
18
18
18
18
18
F8
F0
ENDCHAR
STARTCHAR 024A
ENCODING 586
SWIDTH 760 0
DWIDTH 19 0
BBX 17 24 2 -6
BITMAP
0FC600
3FF600
783E00
600E00
E00E00
C00E00
C00E00
C00E00
C00E00
C00E00
C00E00
C00E00
C00E00
E00E00
600E00
701E00
3FFE00
0FCE00
000E00
000E00
000E00
000600
000780
000380
ENDCHAR
STARTCHAR 024B
ENCODING 587
SWIDTH 600 0
DWIDTH 15 0
BBX 15 20 1 -6
BITMAP
0600
1FB0
38F0
7070
6030
E030
E030
E030
E030
6030
6030
7070
3FF0
1FB0
0030
0030
0030
0030
001E
001E
ENDCHAR
STARTCHAR 024C
ENCODING 588
SWIDTH 600 0
DWIDTH 15 0
BBX 15 18 0 0
BITMAP
3FC0
3FF0
3838
381C
381C
380C
381C
3818
3878
FFE0
FFE0
3860
3870
3830
3838
381C
380C
380E
ENDCHAR
STARTCHAR 024D
ENCODING 589
SWIDTH 400 0
DWIDTH 10 0
BBX 10 14 0 0
BITMAP
01C0
33C0
3640
3C00
3800
3000
FE00
FE00
3000
3000
3000
3000
3000
3000
ENDCHAR
STARTCHAR 024E
ENCODING 590
SWIDTH 560 0
DWIDTH 14 0
BBX 14 18 0 0
BITMAP
E00C
6018
7038
FFFC
FFFC
1860
1CE0
0CC0
07C0
0780
0380
0300
0300
0300
0300
0300
0300
0300
ENDCHAR
STARTCHAR 024F
ENCODING 591
SWIDTH 480 0
DWIDTH 12 0
BBX 13 19 0 -6
BITMAP
E030
6030
6070
3060
FFF8
FFF8
18C0
18C0
0D80
0D80
0D80
0700
0700
0600
0600
0E00
0C00
FC00
F000
ENDCHAR
STARTCHAR 0250
ENCODING 592
SWIDTH 560 0
DWIDTH 14 0
BBX 11 14 2 0
BITMAP
0700
DFC0
F0E0
E0E0
C060
C0E0
C1C0
FF80
F800
C000
C000
E000
7F80
3F00
ENDCHAR
STARTCHAR 0251
ENCODING 593
SWIDTH 600 0
DWIDTH 15 0
BBX 14 14 1 0
BITMAP
0600
1FB0
38F0
7070
6030
E030
E030
E030
E030
6030
6030
7070
3FFC
1F9C
ENDCHAR
STARTCHAR 0252
ENCODING 594
SWIDTH 600 0
DWIDTH 15 0
BBX 14 14 0 0
BITMAP
4180
F7F0
3C38
3818
381C
300C
300C
300C
300C
381C
381C
3838
37F0
33E0
ENDCHAR
STARTCHAR 0253
ENCODING 595
SWIDTH 600 0
DWIDTH 15 0
BBX 12 19 2 0
BITMAP
7800
F800
C000
C000
C000
C600
DFC0
F0E0
E060
E070
C030
C030
C030
C030
E070
E070
E060
FFC0
CF80
ENDCHAR
STARTCHAR 0254
ENCODING 596
SWIDTH 480 0
DWIDTH 12 0
BBX 10 14 1 0
BITMAP
3800
FE00
C700
0380
0180
01C0
01C0
01C0
01C0
0180
0180
0380
FF00
FE00
ENDCHAR
STARTCHAR 0255
ENCODING 597
SWIDTH 520 0
DWIDTH 13 0
BBX 11 15 1 -1
BITMAP
0780
1FC0
3CC0
7000
6000
6000
6000
6000
6FC0
7FE0
7860
7060
7FE0
7FC0
C000
ENDCHAR
STARTCHAR 0256
ENCODING 598
SWIDTH 600 0
DWIDTH 15 0
BBX 15 25 1 -6
BITMAP
0030
0030
0030
0030
0030
0630
1FB0
38F0
7070
6030
E030
E030
E030
E030
6030
6030
7070
3FF0
1FB0
0030
0030
0030
0030
001E
001E
ENDCHAR
STARTCHAR 0257
ENCODING 599
SWIDTH 600 0
DWIDTH 15 0
BBX 15 19 1 0
BITMAP
001E
003E
0030
0030
0030
0630
1FB0
38F0
7070
6030
E030
E030
E030
E030
6030
6030
7070
3FF0
1FB0
ENDCHAR
STARTCHAR 0258
ENCODING 600
SWIDTH 560 0
DWIDTH 14 0
BBX 12 14 1 0
BITMAP
0E00
3F80
71C0
6060
E060
E070
FFF0
FFF0
0070
0070
0060
00E0
7FC0
7F80
ENDCHAR
STARTCHAR 0259
ENCODING 601
SWIDTH 560 0
DWIDTH 14 0
BBX 12 14 1 0
BITMAP
0E00
7F80
61C0
00E0
0060
0070
0070
FFF0
FFF0
E060
6060
60E0
3FC0
1F80
ENDCHAR
STARTCHAR 025A
ENCODING 602
SWIDTH 760 0
DWIDTH 19 0
BBX 19 14 1 0
BITMAP
0C0000
7F8000
61C000
00E000
006400
007C00
03F600
3FF740
F877E0
E06100
606000
60E000
3FC000
1F8000
ENDCHAR
STARTCHAR 025B
ENCODING 603
SWIDTH 480 0
DWIDTH 12 0
BBX 10 14 1 0
BITMAP
0E00
3FC0
70C0
6000
6000
6000
3F00
3F00
6000
C000
C000
E000
7FC0
3FC0
ENDCHAR
STARTCHAR 025C
ENCODING 604
SWIDTH 480 0
DWIDTH 12 0
BBX 10 14 1 0
BITMAP
1C00
FF80
4380
01C0
00C0
0180
3F00
3F80
01C0
00C0
00C0
01C0
FF80
FF00
ENDCHAR
STARTCHAR 025D
ENCODING 605
SWIDTH 680 0
DWIDTH 17 0
BBX 17 14 1 0
BITMAP
1C0000
FF8000
439000
01F000
00D800
019D00
3F0F80
3F8400
01C000
00C000
00C000
01C000
FF8000
FF0000
ENDCHAR
STARTCHAR 025E
ENCODING 606
SWIDTH 600 0
DWIDTH 15 0
BBX 13 14 1 0
BITMAP
0380
1FE0
3870
7030
6030
6030
E3E0
E3E0
E030
6018
6018
7038
3FF0
1FE0
ENDCHAR
STARTCHAR 025F
ENCODING 607
SWIDTH 240 0
DWIDTH 6 0
BBX 7 19 -1 -6
BITMAP
18
18
18
18
18
7E
7E
18
18
18
18
18
18
18
18
18
18
F8
F0
ENDCHAR
STARTCHAR 0260
ENCODING 608
SWIDTH 600 0
DWIDTH 15 0
BBX 15 25 1 -6
BITMAP
001E
003E
0030
0030
0030
0630
1FB0
38F0
7070
6030
E030
E030
E030
E030
6030
6030
7070
3FF0
1FB0
0030
0030
0030
4070
7FE0
3F80
ENDCHAR
STARTCHAR 0261
ENCODING 609
SWIDTH 600 0
DWIDTH 15 0
BBX 12 20 1 -6
BITMAP
0600
1FB0
38F0
7070
6030
E030
E030
E030
E030
6030
6030
7070
3FF0
1FB0
0030
0030
0030
4070
7FE0
3F80
ENDCHAR
STARTCHAR 0262
ENCODING 610
SWIDTH 560 0
DWIDTH 14 0
BBX 12 14 1 0
BITMAP
0780
1FE0
3C60
7000
6000
E000
E000
E3F0
E070
6070
6070
7070
3FF0
1FE0
ENDCHAR
STARTCHAR 0263
ENCODING 611
SWIDTH 480 0
DWIDTH 12 0
BBX 12 19 0 -6
BITMAP
E030
6030
7060
3060
30E0
18C0
19C0
0D80
0D80
0F00
0700
0700
0F00
0D80
0D80
1980
0D80
0F80
0700
ENDCHAR
STARTCHAR 0264
ENCODING 612
SWIDTH 480 0
DWIDTH 12 0
BBX 13 14 0 0
BITMAP
C018
E038
7060
38C0
19C0
0D80
0F00
0700
0F00
0D80
0D80
1980
0F80
0F00
ENDCHAR
STARTCHAR 0265
ENCODING 613
SWIDTH 600 0
DWIDTH 15 0
BBX 11 19 2 -6
BITMAP
C060
C060
C060
C060
C060
C060
C060
C060
C060
C060
E0E0
7FE0
3F60
0060
0060
0060
0060
0060
0060
ENDCHAR
STARTCHAR 0266
ENCODING 614
SWIDTH 600 0
DWIDTH 15 0
BBX 11 19 2 0
BITMAP
7800
F800
C000
C000
C000
C600
DFC0
F0E0
E060
E060
C060
C060
C060
C060
C060
C060
C060
C060
C060
ENDCHAR
STARTCHAR 0267
ENCODING 615
SWIDTH 600 0
DWIDTH 15 0
BBX 11 25 2 -6
BITMAP
7800
F800
C000
C000
C000
C600
DFC0
F0E0
E060
E060
C060
C060
C060
C060
C060
C060
C060
C060
C060
0060
0060
0060
0060
01E0
01C0
ENDCHAR
STARTCHAR 0268
ENCODING 616
SWIDTH 240 0
DWIDTH 6 0
BBX 6 18 0 0
BITMAP
30
30
00
00
00
30
30
30
30
30
FC
FC
30
30
30
30
30
30
ENDCHAR
STARTCHAR 0269
ENCODING 617
SWIDTH 320 0
DWIDTH 8 0
BBX 6 13 2 0
BITMAP
C0
C0
C0
C0
C0
C0
C0
C0
C0
C0
C0
FC
7C
ENDCHAR
STARTCHAR 026A
ENCODING 618
SWIDTH 320 0
DWIDTH 8 0
BBX 6 13 1 0
BITMAP
FC
30
30
30
30
30
30
30
30
30
30
78
FC
ENDCHAR
STARTCHAR 026B
ENCODING 619
SWIDTH 360 0
DWIDTH 9 0
BBX 9 19 0 0
BITMAP
0C00
0C00
0C00
0C00
0C00
0C00
0C00
0C00
7C80
FF80
CF00
0C00
0C00
0C00
0C00
0C00
0C00
0C00
0C00
ENDCHAR
STARTCHAR 026C
ENCODING 620
SWIDTH 320 0
DWIDTH 8 0
BBX 9 19 0 0
BITMAP
0C00
0C00
0C00
0C00
0C00
0C00
2C00
FC00
DC00
CC00
FF80
3F80
0C00
0C00
0C00
0C00
0C00
0C00
0C00
ENDCHAR
STARTCHAR 026D
ENCODING 621
SWIDTH 240 0
DWIDTH 6 0
BBX 6 25 2 -6
BITMAP
C0
C0
C0
C0
C0
C0
C0
C0
C0
C0
C0
C0
C0
C0
C0
C0
C0
C0
C0
C0
C0
C0
E0
7C
3C
ENDCHAR
STARTCHAR 026E
ENCODING 622
SWIDTH 640 0
DWIDTH 16 0
BBX 14 25 2 -6
BITMAP
C000
C000
C000
C000
C000
C000
FFF8
C038
C070
C0E0
C0C0
C180
C300
C780
C7E0
C078
C018
C018
C01C
001C
0018
0018
2038
3FF0
1FC0
ENDCHAR
STARTCHAR 026F
ENCODING 623
SWIDTH 920 0
DWIDTH 23 0
BBX 19 13 2 0
BITMAP
C06060
C06060
C06060
C06060
C06060
C06060
C06060
C06060
C0E060
C0E060
E1E0E0
7FFFE0
3E3F60
ENDCHAR
STARTCHAR 0270
ENCODING 624
SWIDTH 920 0
DWIDTH 23 0
BBX 19 19 2 -6
BITMAP
C06060
C06060
C06060
C06060
C06060
C06060
C06060
C06060
C0E060
C0E060
E1E0E0
7FFFE0
3E3F60
000060
000060
000060
000060
000060
000060
ENDCHAR
STARTCHAR 0271
ENCODING 625
SWIDTH 920 0
DWIDTH 23 0
BBX 19 20 2 -6
BITMAP
070300
DFDFC0
F1D8E0
E0F060
E06060
C06060
C06060
C06060
C06060
C06060
C06060
C06060
C06060
C06060
000060
000060
000060
000060
0001E0
0001C0
ENDCHAR
STARTCHAR 0272
ENCODING 626
SWIDTH 600 0
DWIDTH 15 0
BBX 14 20 -1 -6
BITMAP
00E0
1BF8
1E1C
1C0C
1C0C
180C
180C
180C
180C
180C
180C
180C
180C
180C
1800
1800
1800
1800
F800
F000
ENDCHAR
STARTCHAR 0273
ENCODING 627
SWIDTH 600 0
DWIDTH 15 0
BBX 14 20 2 -6
BITMAP
0700
DFC0
F0E0
E060
E060
C060
C060
C060
C060
C060
C060
C060
C060
C060
0060
0060
0060
0070
003C
001C
ENDCHAR
STARTCHAR 0274
ENCODING 628
SWIDTH 600 0
DWIDTH 15 0
BBX 12 13 2 0
BITMAP
E030
F030
F830
D830
CC30
CE30
C630
C730
C3B0
C1B0
C1F0
C0F0
C070
ENDCHAR
STARTCHAR 0275
ENCODING 629
SWIDTH 600 0
DWIDTH 15 0
BBX 13 14 1 0
BITMAP
0300
1FC0
38E0
7030
6030
E038
FFF8
FFF8
E038
6038
6030
7070
3FE0
1FC0
ENDCHAR
STARTCHAR 0276
ENCODING 630
SWIDTH 840 0
DWIDTH 21 0
BBX 19 14 1 0
BITMAP
020000
1FFFE0
38F800
707800
603800
E03800
E03FE0
E03FE0
E03800
603800
603800
707800
3FFFE0
1FBFE0
ENDCHAR
STARTCHAR 0277
ENCODING 631
SWIDTH 760 0
DWIDTH 19 0
BBX 17 14 1 0
BITMAP
01C000
0FFC00
1E1E00
380700
700300
600380
60C180
E0C180
E0C180
E0C180
60C180
61C380
3F7F00
1F3E00
ENDCHAR
STARTCHAR 0278
ENCODING 632
SWIDTH 720 0
DWIDTH 18 0
BBX 16 25 1 -6
BITMAP
0180
0180
0180
0180
0180
03C0
1FF8
3DBC
718E
6186
E187
E187
E187
E187
6186
6186
318E
1FFC
0FF0
0180
0180
0180
0180
0180
0180
ENDCHAR
STARTCHAR 0279
ENCODING 633
SWIDTH 400 0
DWIDTH 10 0
BBX 8 13 0 0
BITMAP
03
03
03
03
03
03
03
03
03
07
0F
7B
F3
ENDCHAR
STARTCHAR 027A
ENCODING 634
SWIDTH 400 0
DWIDTH 10 0
BBX 8 19 0 0
BITMAP
03
03
03
03
03
03
03
03
03
03
03
03
03
03
03
07
0F
7B
F3
ENDCHAR
STARTCHAR 027B
ENCODING 635
SWIDTH 400 0
DWIDTH 10 0
BBX 11 19 0 -6
BITMAP
0300
0300
0300
0300
0300
0300
0300
0300
0300
0700
0F00
7B00
F300
0300
0300
0300
0300
01E0
01E0
ENDCHAR
STARTCHAR 027C
ENCODING 636
SWIDTH 400 0
DWIDTH 10 0
BBX 8 20 2 -6
BITMAP
07
CF
D9
F0
E0
E0
C0
C0
C0
C0
C0
C0
C0
C0
C0
C0
C0
C0
C0
C0
ENDCHAR
STARTCHAR 027D
ENCODING 637
SWIDTH 400 0
DWIDTH 10 0
BBX 8 20 2 -6
BITMAP
07
CF
D9
F0
E0
E0
C0
C0
C0
C0
C0
C0
C0
C0
C0
C0
E0
E0
7C
3C
ENDCHAR
STARTCHAR 027E
ENCODING 638
SWIDTH 320 0
DWIDTH 8 0
BBX 6 14 2 0
BITMAP
18
7C
E4
C0
C0
C0
C0
C0
C0
C0
C0
C0
C0
C0
ENDCHAR
STARTCHAR 027F
ENCODING 639
SWIDTH 320 0
DWIDTH 8 0
BBX 6 20 1 -6
BITMAP
C0
F8
18
1C
1C
1C
1C
1C
1C
1C
1C
1C
1C
1C
1C
1C
1C
1C
1C
1C
ENDCHAR
STARTCHAR 0280
ENCODING 640
SWIDTH 520 0
DWIDTH 13 0
BBX 11 13 2 0
BITMAP
FF80
C1C0
C0E0
C060
C060
C1C0
FFC0
FF00
C380
C180
C1C0
C0E0
C060
ENDCHAR
STARTCHAR 0281
ENCODING 641
SWIDTH 520 0
DWIDTH 13 0
BBX 11 13 2 0
BITMAP
C0E0
C0C0
C1C0
C380
C300
FF80
FFC0
C0E0
C060
C060
C0E0
FFC0
FF80
ENDCHAR
STARTCHAR 0282
ENCODING 642
SWIDTH 440 0
DWIDTH 11 0
BBX 10 19 1 -5
BITMAP
0E00
7F80
7180
C000
E000
7000
3C00
1F00
0380
01C0
00C0
81C0
FF80
FF00
E000
E000
E000
7C00
3C00
ENDCHAR
STARTCHAR 0283
ENCODING 643
SWIDTH 240 0
DWIDTH 6 0
BBX 8 25 -1 -6
BITMAP
0F
0F
1C
18
18
18
18
18
18
18
18
18
18
18
18
18
18
18
18
18
18
18
18
F8
F0
ENDCHAR
STARTCHAR 0284
ENCODING 644
SWIDTH 240 0
DWIDTH 6 0
BBX 8 25 -1 -6
BITMAP
0F
0F
1C
18
18
18
18
18
18
18
18
7E
7E
18
18
18
18
18
18
18
18
18
18
F8
F0
ENDCHAR
STARTCHAR 0285
ENCODING 645
SWIDTH 240 0
DWIDTH 6 0
BBX 7 20 0 -6
BITMAP
C0
F0
30
30
30
30
30
30
30
30
30
30
30
30
30
30
30
38
1E
0E
ENDCHAR
STARTCHAR 0286
ENCODING 646
SWIDTH 240 0
DWIDTH 6 0
BBX 10 25 -3 -6
BITMAP
03C0
03C0
0700
0600
0600
0600
0600
0600
0600
0600
0600
0600
0600
0600
0600
0600
0600
0600
0600
3F80
7F80
C600
C600
7E00
3C00
ENDCHAR
STARTCHAR 0287
ENCODING 647
SWIDTH 360 0
DWIDTH 9 0
BBX 8 17 1 -3
BITMAP
E0
F8
18
1C
0C
0C
0C
0C
0C
0C
0C
0C
FF
FE
0C
08
08
ENDCHAR
STARTCHAR 0288
ENCODING 648
SWIDTH 360 0
DWIDTH 9 0
BBX 8 22 0 -6
BITMAP
18
18
38
FF
38
38
38
38
38
38
38
38
38
38
38
38
38
38
38
38
1F
0F
ENDCHAR
STARTCHAR 0289
ENCODING 649
SWIDTH 600 0
DWIDTH 15 0
BBX 15 13 0 0
BITMAP
3018
3018
3018
3018
3018
FFFE
FFFE
3018
3018
3018
3838
1FF8
0FD8
ENDCHAR
STARTCHAR 028A
ENCODING 650
SWIDTH 600 0
DWIDTH 15 0
BBX 13 13 1 0
BITMAP
FDF8
18C0
3060
6030
6030
E038
E038
E038
E038
6030
7070
3FE0
1FC0
ENDCHAR
STARTCHAR 028B
ENCODING 651
SWIDTH 600 0
DWIDTH 15 0
BBX 11 14 2 0
BITMAP
0300
C3E0
C0E0
C060
C060
C060
C060
C060
C060
C060
E060
60E0
7FC0
3F80
ENDCHAR
STARTCHAR 028C
ENCODING 652
SWIDTH 480 0
DWIDTH 12 0
BBX 13 13 0 0
BITMAP
0700
0F00
0D80
0D80
1980
18C0
38C0
30E0
3060
7060
6070
6030
E038
ENDCHAR
STARTCHAR 028D
ENCODING 653
SWIDTH 760 0
DWIDTH 19 0
BBX 19 13 0 0
BITMAP
0E0700
1E0700
1E0F00
1B0D80
1B0D80
3B1980
3199C0
3198C0
31B0C0
60F0C0
60F0E0
60E060
E0E060
ENDCHAR
STARTCHAR 028E
ENCODING 654
SWIDTH 480 0
DWIDTH 12 0
BBX 13 19 0 0
BITMAP
00F0
01C0
0380
0300
0700
0600
0700
0F00
0D80
0D80
1980
18C0
38C0
30E0
3060
7060
6070
6030
E038
ENDCHAR
STARTCHAR 028F
ENCODING 655
SWIDTH 440 0
DWIDTH 11 0
BBX 11 13 0 0
BITMAP
E060
70E0
30C0
3980
1980
0F00
0F00
0600
0600
0600
0600
0600
0600
ENDCHAR
STARTCHAR 0290
ENCODING 656
SWIDTH 440 0
DWIDTH 11 0
BBX 13 19 1 -6
BITMAP
FFC0
0180
0380
0300
0600
0E00
1C00
1800
3000
7000
6000
FFC0
FFC0
00C0
00C0
00C0
00C0
00F8
0078
ENDCHAR
STARTCHAR 0291
ENCODING 657
SWIDTH 520 0
DWIDTH 13 0
BBX 12 15 1 -2
BITMAP
FFC0
0180
0380
0300
0600
0E00
1C00
18C0
33F0
7330
6630
FFF0
FFE0
0C00
1800
ENDCHAR
STARTCHAR 0292
ENCODING 658
SWIDTH 480 0
DWIDTH 12 0
BBX 12 19 0 -6
BITMAP
7FE0
00E0
01C0
0380
0300
0600
0C00
1E00
1F80
01C0
0060
0060
0070
0070
0060
0060
80E0
FFC0
7F00
ENDCHAR
STARTCHAR 0293
ENCODING 659
SWIDTH 480 0
DWIDTH 12 0
BBX 14 19 -1 -6
BITMAP
3FF0
0070
00E0
01C0
0180
0300
0600
0F00
0FC0
00E0
0030
0030
0838
7FB8
73F0
E070
60F8
7FDC
1F08
ENDCHAR
STARTCHAR 0294
ENCODING 660
SWIDTH 400 0
DWIDTH 10 0
BBX 10 19 0 0
BITMAP
3F00
FF80
41C0
00C0
00C0
00C0
01C0
0180
0380
0F00
1C00
1800
1800
1800
1800
1800
1800
1800
1800
ENDCHAR
STARTCHAR 0295
ENCODING 661
SWIDTH 400 0
DWIDTH 10 0
BBX 9 19 1 0
BITMAP
3F00
7F80
E080
C000
C000
C000
C000
E000
7000
3800
1E00
0E00
0E00
0E00
0E00
0E00
0E00
0E00
0E00
ENDCHAR
STARTCHAR 0296
ENCODING 662
SWIDTH 400 0
DWIDTH 10 0
BBX 10 19 0 0
BITMAP
1800
1800
1800
1800
1800
1800
1800
1800
1C00
0F00
0380
0180
01C0
00C0
00C0
00C0
41C0
FF80
7F00
ENDCHAR
STARTCHAR 0297
ENCODING 663
SWIDTH 440 0
DWIDTH 11 0
BBX 10 20 1 -6
BITMAP
0700
1FC0
38C0
3000
7000
6000
6000
E000
E000
E000
E000
E000
E000
6000
6000
6000
7000
3840
1FC0
0F80
ENDCHAR
STARTCHAR 0298
ENCODING 664
SWIDTH 760 0
DWIDTH 19 0
BBX 16 18 2 0
BITMAP
0FE0
3FF8
781C
700E
E006
C007
C007
C003
C383
C383
C183
C007
C007
E006
600E
781C
3FF8
0FF0
ENDCHAR
STARTCHAR 0299
ENCODING 665
SWIDTH 560 0
DWIDTH 14 0
BBX 11 13 2 0
BITMAP
FFC0
C3E0
C060
C060
C0E0
FF80
FFC0
C0E0
C060
C060
C0E0
FFC0
FF80
ENDCHAR
STARTCHAR 029A
ENCODING 666
SWIDTH 600 0
DWIDTH 15 0
BBX 13 14 1 0
BITMAP
0E00
3FC0
70E0
6070
6030
6030
3E38
3E38
6038
C030
C030
E070
7FE0
3F80
ENDCHAR
STARTCHAR 029B
ENCODING 667
SWIDTH 560 0
DWIDTH 14 0
BBX 14 19 1 0
BITMAP
003C
003C
0070
0060
0060
07E0
1FE0
3C60
7000
6000
E000
E000
E3F0
E070
6070
6070
7070
3FF0
1FE0
ENDCHAR
STARTCHAR 029C
ENCODING 668
SWIDTH 600 0
DWIDTH 15 0
BBX 12 13 2 0
BITMAP
C030
C030
C030
C030
C030
FFF0
FFF0
C030
C030
C030
C030
C030
C030
ENDCHAR
STARTCHAR 029D
ENCODING 669
SWIDTH 240 0
DWIDTH 6 0
BBX 8 24 -2 -6
BITMAP
0C
0C
00
00
00
0C
0C
0C
0C
0C
0C
0C
0C
0C
0C
0C
0C
0C
7F
FF
CC
CC
FC
78
ENDCHAR
STARTCHAR 029E
ENCODING 670
SWIDTH 520 0
DWIDTH 13 0
BBX 10 19 1 -6
BITMAP
E0C0
60C0
70C0
38C0
1CC0
0DC0
0FC0
06C0
0CC0
18C0
38C0
70C0
E0C0
00C0
00C0
00C0
00C0
00C0
00C0
ENDCHAR
STARTCHAR 029F
ENCODING 671
SWIDTH 400 0
DWIDTH 10 0
BBX 8 13 2 0
BITMAP
C0
C0
C0
C0
C0
C0
C0
C0
C0
C0
C0
FF
FF
ENDCHAR
STARTCHAR 02A0
ENCODING 672
SWIDTH 600 0
DWIDTH 15 0
BBX 15 25 1 -6
BITMAP
001E
003E
0030
0030
0030
0630
1FB0
38F0
7070
6030
E030
E030
E030
E030
6030
6030
7070
3FF0
1FB0
0030
0030
0030
0030
0030
0030
ENDCHAR
STARTCHAR 02A1
ENCODING 673
SWIDTH 400 0
DWIDTH 10 0
BBX 10 19 0 0
BITMAP
3F00
FF80
41C0
00C0
00C0
00C0
01C0
0180
0380
0F00
1E00
1C00
1C00
7F00
7F00
1C00
1C00
1C00
1C00
ENDCHAR
STARTCHAR 02A2
ENCODING 674
SWIDTH 400 0
DWIDTH 10 0
BBX 9 19 1 0
BITMAP
3F00
7F80
E080
C000
C000
C000
C000
E000
7000
3800
1C00
0C00
0C00
7F80
7F80
0C00
0C00
0C00
0C00
ENDCHAR
STARTCHAR 02A3
ENCODING 675
SWIDTH 960 0
DWIDTH 24 0
BBX 22 19 1 0
BITMAP
003000
003000
003000
003000
003000
063000
1FBFFC
38F01C
707018
603030
E03070
E030E0
E030C0
E03180
603380
603300
707600
3FFFFC
1FBFFC
ENDCHAR
STARTCHAR 02A4
ENCODING 676
SWIDTH 960 0
DWIDTH 24 0
BBX 23 25 1 -6
BITMAP
003000
003000
003000
003000
003000
063000
1FBFFC
38F01C
707038
603030
E03060
E030C0
E03180
E033C0
6033F0
60303C
70700C
3FF00E
1FB00E
00000E
00000E
00000C
00101C
001FF8
000FE0
ENDCHAR
STARTCHAR 02A5
ENCODING 677
SWIDTH 1000 0
DWIDTH 25 0
BBX 25 21 1 -2
BITMAP
00300000
00300000
00300000
00300000
00300000
06300000
1FBFFC00
38F01C00
70701800
60303000
E0307000
E030E000
E030C000
E0318600
60339F00
60333380
70766380
3FFFFF00
1FBFFE00
0000C000
00018000
ENDCHAR
STARTCHAR 02A6
ENCODING 678
SWIDTH 720 0
DWIDTH 18 0
BBX 18 16 0 0
BITMAP
180000
180000
380E00
FFFF80
387180
38C000
38E000
387000
383C00
381F00
380380
3801C0
3800C0
3801C0
1FFF80
0FFF00
ENDCHAR
STARTCHAR 02A7
ENCODING 679
SWIDTH 480 0
DWIDTH 12 0
BBX 13 25 0 -6
BITMAP
0038
0078
0060
18E0
18E0
38E0
FFE0
38E0
38E0
38E0
38E0
38E0
38E0
38E0
38E0
38E0
38E0
1FE0
0FE0
00E0
00E0
00E0
00C0
03C0
0380
ENDCHAR
STARTCHAR 02A8
ENCODING 680
SWIDTH 840 0
DWIDTH 21 0
BBX 20 16 0 0
BITMAP
180000
180000
3801C0
FF0FE0
381E20
381800
383800
383000
383000
383000
3837E0
383F70
383C30
387830
1FFFF0
0F87E0
ENDCHAR
STARTCHAR 02A9
ENCODING 681
SWIDTH 840 0
DWIDTH 21 0
BBX 20 25 0 -6
BITMAP
07C000
1F8000
180000
180000
180000
180700
FFDFC0
18F8E0
18E060
18E060
18E070
18C070
18C070
18C070
18C070
18C070
18C070
18C070
18C070
000070
000070
000070
000060
0003E0
0003C0
ENDCHAR
STARTCHAR 02AA
ENCODING 682
SWIDTH 640 0
DWIDTH 16 0
BBX 13 19 2 0
BITMAP
C000
C000
C000
C000
C000
C1C0
C7F8
CE18
CC00
CC00
CE00
C7C0
C1F0
C078
C018
C018
E018
FFF8
DFE0
ENDCHAR
STARTCHAR 02AB
ENCODING 683
SWIDTH 600 0
DWIDTH 15 0
BBX 12 19 2 0
BITMAP
C000
C000
C000
C000
C000
C000
FFF0
C070
C060
C0C0
C1C0
C180
C300
C700
CE00
CC00
D800
FFF0
FFF0
ENDCHAR
STARTCHAR 02AC
ENCODING 684
SWIDTH 480 0
DWIDTH 12 0
BBX 13 18 0 0
BITMAP
C618
C710
4730
6D30
6DA0
29A0
38E0
38E0
30C0
0000
C710
4730
6530
6D30
69A0
28E0
38E0
30C0
ENDCHAR
STARTCHAR 02AD
ENCODING 685
SWIDTH 560 0
DWIDTH 14 0
BBX 11 18 2 0
BITMAP
FFE0
FFE0
C0E0
C0E0
C0E0
C0E0
0000
0000
0000
0000
0000
0000
FFE0
FFE0
C0E0
C0E0
C0E0
C0E0
ENDCHAR
STARTCHAR 02AE
ENCODING 686
SWIDTH 600 0
DWIDTH 15 0
BBX 15 20 -1 -6
BITMAP
6000
F80E
180E
180E
180E
180E
180E
180E
180E
180E
1C0E
0C1E
0FFE
07EE
000E
000E
000E
000E
000E
000E
ENDCHAR
STARTCHAR 02AF
ENCODING 687
SWIDTH 600 0
DWIDTH 15 0
BBX 17 20 -1 -6
BITMAP
600000
F80E00
180E00
180E00
180E00
180E00
180E00
180E00
180E00
180E00
1C0E00
0C1E00
0FFE00
07EE00
000E00
000E00
000E00
000E00
000780
000380
ENDCHAR
STARTCHAR 02B0
ENCODING 688
SWIDTH 400 0
DWIDTH 10 0
BBX 8 12 1 7
BITMAP
C0
C0
C0
C0
FE
C3
C3
C3
C3
C3
C3
C3
ENDCHAR
STARTCHAR 02B1
ENCODING 689
SWIDTH 400 0
DWIDTH 10 0
BBX 8 12 1 7
BITMAP
60
60
C0
C0
FE
C3
C3
C3
C3
C3
C3
C3
ENDCHAR
STARTCHAR 02B2
ENCODING 690
SWIDTH 160 0
DWIDTH 4 0
BBX 4 14 -1 4
BITMAP
30
00
00
30
30
30
30
30
30
30
30
30
30
E0
ENDCHAR
STARTCHAR 02B3
ENCODING 691
SWIDTH 240 0
DWIDTH 6 0
BBX 5 8 1 7
BITMAP
F8
E0
C0
C0
C0
C0
C0
C0
ENDCHAR
STARTCHAR 02B4
ENCODING 692
SWIDTH 240 0
DWIDTH 6 0
BBX 5 8 0 7
BITMAP
08
08
08
08
08
08
38
E8
ENDCHAR
STARTCHAR 02B5
ENCODING 693
SWIDTH 240 0
DWIDTH 6 0
BBX 7 11 0 4
BITMAP
08
08
08
08
08
08
38
E8
08
08
0E
ENDCHAR
STARTCHAR 02B6
ENCODING 694
SWIDTH 360 0
DWIDTH 9 0
BBX 7 8 1 7
BITMAP
C2
C6
CC
FC
C2
C2
C6
FC
ENDCHAR
STARTCHAR 02B7
ENCODING 695
SWIDTH 480 0
DWIDTH 12 0
BBX 12 8 0 7
BITMAP
C610
4710
4530
6D20
29A0
28A0
38E0
30C0
ENDCHAR
STARTCHAR 02B8
ENCODING 696
SWIDTH 320 0
DWIDTH 8 0
BBX 8 11 0 4
BITMAP
C3
43
62
26
24
14
1C
18
18
10
F0
ENDCHAR
STARTCHAR 02B9
ENCODING 697
SWIDTH 160 0
DWIDTH 4 0
BBX 4 6 0 12
BITMAP
70
70
60
60
60
C0
ENDCHAR
STARTCHAR 02BA
ENCODING 698
SWIDTH 320 0
DWIDTH 8 0
BBX 9 6 0 12
BITMAP
7380
7300
6300
6700
6600
C600
ENDCHAR
STARTCHAR 02BB
ENCODING 699
SWIDTH 160 0
DWIDTH 4 0
BBX 4 6 0 12
BITMAP
30
30
70
60
60
E0
ENDCHAR
STARTCHAR 02BC
ENCODING 700
SWIDTH 160 0
DWIDTH 4 0
BBX 4 6 0 12
BITMAP
70
70
60
60
60
C0
ENDCHAR
STARTCHAR 02BD
ENCODING 701
SWIDTH 160 0
DWIDTH 4 0
BBX 4 6 0 12
BITMAP
E0
60
60
60
30
30
ENDCHAR
STARTCHAR 02BE
ENCODING 702
SWIDTH 160 0
DWIDTH 4 0
BBX 2 5 1 14
BITMAP
80
C0
40
40
C0
ENDCHAR
STARTCHAR 02BF
ENCODING 703
SWIDTH 160 0
DWIDTH 4 0
BBX 2 6 1 14
BITMAP
40
C0
80
80
C0
40
ENDCHAR
STARTCHAR 02C0
ENCODING 704
SWIDTH 280 0
DWIDTH 7 0
BBX 6 7 1 12
BITMAP
F8
98
0C
0C
18
70
60
ENDCHAR
STARTCHAR 02C1
ENCODING 705
SWIDTH 280 0
DWIDTH 7 0
BBX 7 7 0 12
BITMAP
3E
66
C0
40
60
38
08
ENDCHAR
STARTCHAR 02C2
ENCODING 706
SWIDTH 280 0
DWIDTH 7 0
BBX 6 6 1 13
BITMAP
04
18
60
80
60
18
ENDCHAR
STARTCHAR 02C3
ENCODING 707
SWIDTH 280 0
DWIDTH 7 0
BBX 6 5 1 14
BITMAP
C0
30
0C
30
C0
ENDCHAR
STARTCHAR 02C4
ENCODING 708
SWIDTH 280 0
DWIDTH 7 0
BBX 5 6 1 14
BITMAP
20
20
50
50
88
88
ENDCHAR
STARTCHAR 02C5
ENCODING 709
SWIDTH 280 0
DWIDTH 7 0
BBX 6 6 0 14
BITMAP
84
44
44
28
28
10
ENDCHAR
STARTCHAR 02C6
ENCODING 710
SWIDTH 400 0
DWIDTH 10 0
BBX 8 4 1 15
BITMAP
1C
3E
66
C3
ENDCHAR
STARTCHAR 02C7
ENCODING 711
SWIDTH 400 0
DWIDTH 10 0
BBX 8 4 1 15
BITMAP
C3
76
3C
1C
ENDCHAR
STARTCHAR 02C8
ENCODING 712
SWIDTH 160 0
DWIDTH 4 0
BBX 2 7 1 12
BITMAP
C0
C0
C0
C0
C0
C0
C0
ENDCHAR
STARTCHAR 02C9
ENCODING 713
SWIDTH 360 0
DWIDTH 9 0
BBX 7 2 1 15
BITMAP
FE
FE
ENDCHAR
STARTCHAR 02CA
ENCODING 714
SWIDTH 280 0
DWIDTH 7 0
BBX 5 4 1 15
BITMAP
38
70
60
C0
ENDCHAR
STARTCHAR 02CB
ENCODING 715
SWIDTH 280 0
DWIDTH 7 0
BBX 5 4 1 15
BITMAP
E0
70
30
18
ENDCHAR
STARTCHAR 02CC
ENCODING 716
SWIDTH 160 0
DWIDTH 4 0
BBX 2 7 1 -5
BITMAP
C0
C0
C0
C0
C0
C0
C0
ENDCHAR
STARTCHAR 02CD
ENCODING 717
SWIDTH 360 0
DWIDTH 9 0
BBX 7 2 1 -4
BITMAP
FE
FE
ENDCHAR
STARTCHAR 02CE
ENCODING 718
SWIDTH 280 0
DWIDTH 7 0
BBX 5 4 1 -5
BITMAP
E0
60
30
18
ENDCHAR
STARTCHAR 02CF
ENCODING 719
SWIDTH 280 0
DWIDTH 7 0
BBX 5 4 1 -5
BITMAP
38
30
60
C0
ENDCHAR
STARTCHAR 02D0
ENCODING 720
SWIDTH 320 0
DWIDTH 8 0
BBX 4 13 2 0
BITMAP
F0
60
40
00
00
00
00
00
00
00
60
60
F0
ENDCHAR
STARTCHAR 02D1
ENCODING 721
SWIDTH 320 0
DWIDTH 8 0
BBX 4 3 2 10
BITMAP
F0
60
40
ENDCHAR
STARTCHAR 02D2
ENCODING 722
SWIDTH 160 0
DWIDTH 4 0
BBX 3 5 1 5
BITMAP
C0
60
60
60
C0
ENDCHAR
STARTCHAR 02D3
ENCODING 723
SWIDTH 160 0
DWIDTH 4 0
BBX 3 5 1 5
BITMAP
60
C0
80
C0
60
ENDCHAR
STARTCHAR 02D4
ENCODING 724
SWIDTH 240 0
DWIDTH 6 0
BBX 5 4 1 6
BITMAP
20
20
20
F8
ENDCHAR
STARTCHAR 02D5
ENCODING 725
SWIDTH 240 0
DWIDTH 6 0
BBX 5 4 1 6
BITMAP
F8
F8
20
20
ENDCHAR
STARTCHAR 02D6
ENCODING 726
SWIDTH 240 0
DWIDTH 6 0
BBX 5 5 1 5
BITMAP
20
20
F8
20
20
ENDCHAR
STARTCHAR 02D7
ENCODING 727
SWIDTH 280 0
DWIDTH 7 0
BBX 5 1 1 7
BITMAP
F8
ENDCHAR
STARTCHAR 02D8
ENCODING 728
SWIDTH 360 0
DWIDTH 9 0
BBX 8 4 1 15
BITMAP
83
C3
7E
3C
ENDCHAR
STARTCHAR 02D9
ENCODING 729
SWIDTH 160 0
DWIDTH 4 0
BBX 3 2 1 16
BITMAP
E0
E0
ENDCHAR
STARTCHAR 02DA
ENCODING 730
SWIDTH 280 0
DWIDTH 7 0
BBX 5 5 1 15
BITMAP
78
C8
88
D8
70
ENDCHAR
STARTCHAR 02DB
ENCODING 731
SWIDTH 240 0
DWIDTH 6 0
BBX 4 6 1 -6
BITMAP
60
C0
C0
C0
F0
20
ENDCHAR
STARTCHAR 02DC
ENCODING 732
SWIDTH 440 0
DWIDTH 11 0
BBX 9 3 1 15
BITMAP
7880
DF80
8700
ENDCHAR
STARTCHAR 02DD
ENCODING 733
SWIDTH 400 0
DWIDTH 10 0
BBX 9 4 1 15
BITMAP
3380
7300
6600
CC00
ENDCHAR
STARTCHAR 02DE
ENCODING 734
SWIDTH 240 0
DWIDTH 6 0
BBX 9 6 -3 4
BITMAP
0800
F800
F800
1C80
0F80
0700
ENDCHAR
STARTCHAR 02DF
ENCODING 735
SWIDTH 280 0
DWIDTH 7 0
BBX 5 4 1 14
BITMAP
D8
70
70
D8
ENDCHAR
STARTCHAR 02E0
ENCODING 736
SWIDTH 320 0
DWIDTH 8 0
BBX 8 11 0 4
BITMAP
C3
42
66
24
34
1C
18
18
3C
34
3C
ENDCHAR
STARTCHAR 02E1
ENCODING 737
SWIDTH 160 0
DWIDTH 4 0
BBX 2 12 1 7
BITMAP
C0
C0
C0
C0
C0
C0
C0
C0
C0
C0
C0
C0
ENDCHAR
STARTCHAR 02E2
ENCODING 738
SWIDTH 280 0
DWIDTH 7 0
BBX 6 8 1 7
BITMAP
FC
80
C0
70
1C
04
0C
F8
ENDCHAR
STARTCHAR 02E3
ENCODING 739
SWIDTH 320 0
DWIDTH 8 0
BBX 7 8 1 7
BITMAP
C6
4C
28
30
38
6C
C4
86
ENDCHAR
STARTCHAR 02E4
ENCODING 740
SWIDTH 240 0
DWIDTH 6 0
BBX 7 12 0 7
BITMAP
18
7E
C0
C0
40
60
38
18
18
18
18
18
ENDCHAR
STARTCHAR 02E5
ENCODING 741
SWIDTH 400 0
DWIDTH 10 0
BBX 7 17 2 0
BITMAP
FE
06
06
06
06
06
06
06
06
06
06
06
06
06
06
06
06
ENDCHAR
STARTCHAR 02E6
ENCODING 742
SWIDTH 400 0
DWIDTH 10 0
BBX 7 17 2 0
BITMAP
06
06
06
06
FE
FE
06
06
06
06
06
06
06
06
06
06
06
ENDCHAR
STARTCHAR 02E7
ENCODING 743
SWIDTH 400 0
DWIDTH 10 0
BBX 7 17 2 0
BITMAP
06
06
06
06
06
06
06
FE
FE
06
06
06
06
06
06
06
06
ENDCHAR
STARTCHAR 02E8
ENCODING 744
SWIDTH 400 0
DWIDTH 10 0
BBX 7 17 2 0
BITMAP
06
06
06
06
06
06
06
06
06
06
06
FE
FE
06
06
06
06
ENDCHAR
STARTCHAR 02E9
ENCODING 745
SWIDTH 400 0
DWIDTH 10 0
BBX 7 17 2 0
BITMAP
06
06
06
06
06
06
06
06
06
06
06
06
06
06
06
FE
FE
ENDCHAR
STARTCHAR 02EA
ENCODING 746
SWIDTH 400 0
DWIDTH 10 0
BBX 7 9 2 4
BITMAP
C0
C0
C0
C0
C0
C0
C0
FE
FE
ENDCHAR
STARTCHAR 02EB
ENCODING 747
SWIDTH 400 0
DWIDTH 10 0
BBX 7 9 2 4
BITMAP
C0
C0
C0
FE
FE
C0
C0
C0
C0
ENDCHAR
STARTCHAR 02EC
ENCODING 748
SWIDTH 400 0
DWIDTH 10 0
BBX 8 4 1 -5
BITMAP
C3
66
3C
1C
ENDCHAR
STARTCHAR 02ED
ENCODING 749
SWIDTH 480 0
DWIDTH 12 0
BBX 10 5 1 15
BITMAP
FFC0
FFC0
0000
FFC0
FFC0
ENDCHAR
STARTCHAR 02EE
ENCODING 750
SWIDTH 320 0
DWIDTH 8 0
BBX 9 6 0 12
BITMAP
7380
7300
6300
6700
6600
C600
ENDCHAR
STARTCHAR 02EF
ENCODING 751
SWIDTH 400 0
DWIDTH 10 0
BBX 8 6 1 -6
BITMAP
C3
63
66
3C
1C
18
ENDCHAR
STARTCHAR 02F0
ENCODING 752
SWIDTH 400 0
DWIDTH 10 0
BBX 8 6 1 -6
BITMAP
08
18
3C
36
66
C3
ENDCHAR
STARTCHAR 02F1
ENCODING 753
SWIDTH 320 0
DWIDTH 8 0
BBX 6 6 1 -5
BITMAP
0C
78
E0
F0
1C
04
ENDCHAR
STARTCHAR 02F2
ENCODING 754
SWIDTH 320 0
DWIDTH 8 0
BBX 6 6 1 -5
BITMAP
E0
78
1C
3C
F0
80
ENDCHAR
STARTCHAR 02F3
ENCODING 755
SWIDTH 320 0
DWIDTH 8 0
BBX 6 5 1 -7
BITMAP
78
CC
CC
7C
38
ENDCHAR
STARTCHAR 02F4
ENCODING 756
SWIDTH 280 0
DWIDTH 7 0
BBX 5 4 1 7
BITMAP
E0
60
30
18
ENDCHAR
STARTCHAR 02F5
ENCODING 757
SWIDTH 400 0
DWIDTH 10 0
BBX 9 4 1 7
BITMAP
E600
6700
3300
1180
ENDCHAR
STARTCHAR 02F6
ENCODING 758
SWIDTH 400 0
DWIDTH 10 0
BBX 9 4 1 7
BITMAP
3380
7300
6600
C400
ENDCHAR
STARTCHAR 02F7
ENCODING 759
SWIDTH 440 0
DWIDTH 11 0
BBX 9 4 1 -5
BITMAP
0080
7980
DF80
8200
ENDCHAR
STARTCHAR 02F8
ENCODING 760
SWIDTH 240 0
DWIDTH 6 0
BBX 3 14 2 5
BITMAP
E0
E0
E0
00
00
00
00
00
00
00
00
E0
E0
E0
ENDCHAR
STARTCHAR 02F9
ENCODING 761
SWIDTH 280 0
DWIDTH 7 0
BBX 5 6 1 11
BITMAP
F8
80
80
80
80
80
ENDCHAR
STARTCHAR 02FA
ENCODING 762
SWIDTH 280 0
DWIDTH 7 0
BBX 5 6 1 11
BITMAP
F8
08
08
08
08
08
ENDCHAR
STARTCHAR 02FB
ENCODING 763
SWIDTH 280 0
DWIDTH 7 0
BBX 5 6 1 0
BITMAP
80
80
80
80
80
F8
ENDCHAR
STARTCHAR 02FC
ENCODING 764
SWIDTH 280 0
DWIDTH 7 0
BBX 5 6 1 0
BITMAP
08
08
08
08
08
F8
ENDCHAR
STARTCHAR 02FD
ENCODING 765
SWIDTH 520 0
DWIDTH 13 0
BBX 11 4 1 -5
BITMAP
8020
8020
8020
FFE0
ENDCHAR
STARTCHAR 02FE
ENCODING 766
SWIDTH 520 0
DWIDTH 13 0
BBX 11 4 1 -5
BITMAP
8000
8000
8000
FFE0
ENDCHAR
STARTCHAR 02FF
ENCODING 767
SWIDTH 520 0
DWIDTH 13 0
BBX 11 7 1 -5
BITMAP
0C00
3800
FFE0
FFE0
3000
1C00
0400
ENDCHAR
STARTCHAR 0300
ENCODING 768
SWIDTH 0 0
DWIDTH 0 0
BBX 5 4 -12 15
BITMAP
E0
60
30
18
ENDCHAR
STARTCHAR 0301
ENCODING 769
SWIDTH 0 0
DWIDTH 0 0
BBX 5 4 -8 15
BITMAP
38
70
60
C0
ENDCHAR
STARTCHAR 0302
ENCODING 770
SWIDTH 0 0
DWIDTH 0 0
BBX 8 4 -4 15
BITMAP
3C
3C
66
C3
ENDCHAR
STARTCHAR 0303
ENCODING 771
SWIDTH 0 0
DWIDTH 0 0
BBX 9 3 -12 15
BITMAP
7980
DF00
8600
ENDCHAR
STARTCHAR 0304
ENCODING 772
SWIDTH 0 0
DWIDTH 0 0
BBX 8 2 -4 15
BITMAP
FF
FF
ENDCHAR
STARTCHAR 0305
ENCODING 773
SWIDTH 0 0
DWIDTH 0 0
BBX 10 2 -5 19
BITMAP
FFC0
FFC0
ENDCHAR
STARTCHAR 0306
ENCODING 774
SWIDTH 0 0
DWIDTH 0 0
BBX 8 4 -4 15
BITMAP
81
C3
7E
3C
ENDCHAR
STARTCHAR 0307
ENCODING 775
SWIDTH 0 0
DWIDTH 0 0
BBX 2 2 -1 16
BITMAP
C0
C0
ENDCHAR
STARTCHAR 0308
ENCODING 776
SWIDTH 0 0
DWIDTH 0 0
BBX 6 2 -3 16
BITMAP
CC
CC
ENDCHAR
STARTCHAR 0309
ENCODING 777
SWIDTH 0 0
DWIDTH 0 0
BBX 4 6 -9 15
BITMAP
80
F0
30
30
60
40
ENDCHAR
STARTCHAR 030A
ENCODING 778
SWIDTH 0 0
DWIDTH 0 0
BBX 6 5 -3 15
BITMAP
78
CC
CC
78
78
ENDCHAR
STARTCHAR 030B
ENCODING 779
SWIDTH 0 0
DWIDTH 0 0
BBX 9 4 -3 15
BITMAP
3380
6300
6600
CC00
ENDCHAR
STARTCHAR 030C
ENCODING 780
SWIDTH 0 0
DWIDTH 0 0
BBX 8 4 -4 15
BITMAP
C3
66
3C
18
ENDCHAR
STARTCHAR 030D
ENCODING 781
SWIDTH 0 0
DWIDTH 0 0
BBX 2 4 -1 15
BITMAP
C0
C0
C0
C0
ENDCHAR
STARTCHAR 030E
ENCODING 782
SWIDTH 0 0
DWIDTH 0 0
BBX 6 4 -3 15
BITMAP
CC
CC
CC
CC
ENDCHAR
STARTCHAR 030F
ENCODING 783
SWIDTH 0 0
DWIDTH 0 0
BBX 9 4 -13 15
BITMAP
E600
6700
3300
1980
ENDCHAR
STARTCHAR 0310
ENCODING 784
SWIDTH 0 0
DWIDTH 0 0
BBX 8 6 -4 15
BITMAP
18
18
9B
C3
7E
3C
ENDCHAR
STARTCHAR 0311
ENCODING 785
SWIDTH 0 0
DWIDTH 0 0
BBX 8 3 -4 16
BITMAP
7E
E7
C3
ENDCHAR
STARTCHAR 0312
ENCODING 786
SWIDTH 0 0
DWIDTH 0 0
BBX 4 6 -2 12
BITMAP
30
20
60
60
E0
E0
ENDCHAR
STARTCHAR 0313
ENCODING 787
SWIDTH 0 0
DWIDTH 0 0
BBX 4 6 -2 12
BITMAP
70
70
60
60
40
C0
ENDCHAR
STARTCHAR 0314
ENCODING 788
SWIDTH 0 0
DWIDTH 0 0
BBX 4 6 -2 12
BITMAP
E0
E0
60
60
60
30
ENDCHAR
STARTCHAR 0315
ENCODING 789
SWIDTH 0 0
DWIDTH 0 0
BBX 4 6 -2 12
BITMAP
70
70
60
60
60
C0
ENDCHAR
STARTCHAR 0316
ENCODING 790
SWIDTH 0 0
DWIDTH 0 0
BBX 4 4 -2 -5
BITMAP
C0
E0
70
30
ENDCHAR
STARTCHAR 0317
ENCODING 791
SWIDTH 0 0
DWIDTH 0 0
BBX 4 4 -2 -5
BITMAP
30
70
E0
C0
ENDCHAR
STARTCHAR 0318
ENCODING 792
SWIDTH 0 0
DWIDTH 0 0
BBX 4 4 -2 -5
BITMAP
10
F0
F0
10
ENDCHAR
STARTCHAR 0319
ENCODING 793
SWIDTH 0 0
DWIDTH 0 0
BBX 4 4 -2 -5
BITMAP
80
F0
F0
80
ENDCHAR
STARTCHAR 031A
ENCODING 794
SWIDTH 0 0
DWIDTH 0 0
BBX 6 6 -2 18
BITMAP
FC
FC
04
04
04
04
ENDCHAR
STARTCHAR 031B
ENCODING 795
SWIDTH 0 0
DWIDTH 0 0
BBX 6 5 -3 14
BITMAP
1C
18
38
70
E0
ENDCHAR
STARTCHAR 031C
ENCODING 796
SWIDTH 0 0
DWIDTH 0 0
BBX 2 5 -1 -6
BITMAP
40
C0
80
80
C0
ENDCHAR
STARTCHAR 031D
ENCODING 797
SWIDTH 0 0
DWIDTH 0 0
BBX 6 4 -3 -5
BITMAP
30
30
30
FC
ENDCHAR
STARTCHAR 031E
ENCODING 798
SWIDTH 0 0
DWIDTH 0 0
BBX 6 4 -3 -5
BITMAP
FC
FC
30
30
ENDCHAR
STARTCHAR 031F
ENCODING 799
SWIDTH 0 0
DWIDTH 0 0
BBX 6 5 -3 -6
BITMAP
30
FC
FC
30
30
ENDCHAR
STARTCHAR 0320
ENCODING 800
SWIDTH 0 0
DWIDTH 0 0
BBX 6 2 -3 -4
BITMAP
FC
FC
ENDCHAR
STARTCHAR 0321
ENCODING 801
SWIDTH 0 0
DWIDTH 0 0
BBX 4 7 -4 -6
BITMAP
30
30
30
30
30
F0
E0
ENDCHAR
STARTCHAR 0322
ENCODING 802
SWIDTH 0 0
DWIDTH 0 0
BBX 4 7 0 -6
BITMAP
C0
C0
C0
C0
C0
F0
70
ENDCHAR
STARTCHAR 0323
ENCODING 803
SWIDTH 0 0
DWIDTH 0 0
BBX 3 2 -9 -4
BITMAP
E0
E0
ENDCHAR
STARTCHAR 0324
ENCODING 804
SWIDTH 0 0
DWIDTH 0 0
BBX 6 2 -3 -4
BITMAP
CC
CC
ENDCHAR
STARTCHAR 0325
ENCODING 805
SWIDTH 0 0
DWIDTH 0 0
BBX 6 6 -3 -6
BITMAP
30
78
CC
CC
78
30
ENDCHAR
STARTCHAR 0326
ENCODING 806
SWIDTH 0 0
DWIDTH 0 0
BBX 3 4 -2 -6
BITMAP
60
60
40
C0
ENDCHAR
STARTCHAR 0327
ENCODING 807
SWIDTH 0 0
DWIDTH 0 0
BBX 5 6 -2 -6
BITMAP
60
60
30
18
30
E0
ENDCHAR
STARTCHAR 0328
ENCODING 808
SWIDTH 0 0
DWIDTH 0 0
BBX 4 6 -2 -6
BITMAP
60
C0
C0
C0
F0
20
ENDCHAR
STARTCHAR 0329
ENCODING 809
SWIDTH 0 0
DWIDTH 0 0
BBX 2 4 -1 -5
BITMAP
C0
C0
C0
C0
ENDCHAR
STARTCHAR 032A
ENCODING 810
SWIDTH 0 0
DWIDTH 0 0
BBX 8 4 -4 -5
BITMAP
FF
FF
81
81
ENDCHAR
STARTCHAR 032B
ENCODING 811
SWIDTH 0 0
DWIDTH 0 0
BBX 10 2 -5 -4
BITMAP
CCC0
7F80
ENDCHAR
STARTCHAR 032C
ENCODING 812
SWIDTH 0 0
DWIDTH 0 0
BBX 8 4 -4 -5
BITMAP
C3
66
3C
18
ENDCHAR
STARTCHAR 032D
ENCODING 813
SWIDTH 0 0
DWIDTH 0 0
BBX 8 4 -4 -5
BITMAP
18
3C
66
C3
ENDCHAR
STARTCHAR 032E
ENCODING 814
SWIDTH 0 0
DWIDTH 0 0
BBX 8 4 -4 -5
BITMAP
83
C3
7E
18
ENDCHAR
STARTCHAR 032F
ENCODING 815
SWIDTH 0 0
DWIDTH 0 0
BBX 8 4 -4 -5
BITMAP
1C
7E
C3
C1
ENDCHAR
STARTCHAR 0330
ENCODING 816
SWIDTH 0 0
DWIDTH 0 0
BBX 10 4 -5 -5
BITMAP
30C0
7C80
4F80
C100
ENDCHAR
STARTCHAR 0331
ENCODING 817
SWIDTH 0 0
DWIDTH 0 0
BBX 8 2 -4 -4
BITMAP
FF
FF
ENDCHAR
STARTCHAR 0332
ENCODING 818
SWIDTH 0 0
DWIDTH 0 0
BBX 12 2 -6 -4
BITMAP
FFF0
FFF0
ENDCHAR
STARTCHAR 0333
ENCODING 819
SWIDTH 0 0
DWIDTH 0 0
BBX 10 5 -5 -6
BITMAP
FFC0
0000
0000
FFC0
FFC0
ENDCHAR
STARTCHAR 0334
ENCODING 820
SWIDTH 0 0
DWIDTH 0 0
BBX 9 3 -4 5
BITMAP
F980
DF00
8600
ENDCHAR
STARTCHAR 0335
ENCODING 821
SWIDTH 0 0
DWIDTH 0 0
BBX 10 2 -5 6
BITMAP
FFC0
FFC0
ENDCHAR
STARTCHAR 0336
ENCODING 822
SWIDTH 0 0
DWIDTH 0 0
BBX 18 2 -9 6
BITMAP
FFFFC0
FFFFC0
ENDCHAR
STARTCHAR 0337
ENCODING 823
SWIDTH 0 0
DWIDTH 0 0
BBX 7 5 -3 5
BITMAP
04
1E
38
F0
C0
ENDCHAR
STARTCHAR 0338
ENCODING 824
SWIDTH 0 0
DWIDTH 0 0
BBX 10 20 -5 -1
BITMAP
00C0
0180
0180
0180
0300
0300
0200
0600
0600
0C00
0C00
0800
1800
1800
3000
3000
3000
6000
6000
C000
ENDCHAR
STARTCHAR 0339
ENCODING 825
SWIDTH 0 0
DWIDTH 0 0
BBX 2 5 -1 -6
BITMAP
80
C0
40
40
C0
ENDCHAR
STARTCHAR 033A
ENCODING 826
SWIDTH 0 0
DWIDTH 0 0
BBX 8 4 -4 -5
BITMAP
81
81
81
FF
ENDCHAR
STARTCHAR 033B
ENCODING 827
SWIDTH 0 0
DWIDTH 0 0
BBX 10 5 -5 -6
BITMAP
FFC0
C0C0
C0C0
FFC0
FFC0
ENDCHAR
STARTCHAR 033C
ENCODING 828
SWIDTH 0 0
DWIDTH 0 0
BBX 10 2 -5 -4
BITMAP
7F80
CCC0
ENDCHAR
STARTCHAR 033D
ENCODING 829
SWIDTH 0 0
DWIDTH 0 0
BBX 4 5 -2 14
BITMAP
90
F0
60
F0
90
ENDCHAR
STARTCHAR 033E
ENCODING 830
SWIDTH 0 0
DWIDTH 0 0
BBX 4 8 -2 14
BITMAP
30
70
C0
60
60
30
E0
C0
ENDCHAR
STARTCHAR 033F
ENCODING 831
SWIDTH 0 0
DWIDTH 0 0
BBX 10 5 -5 19
BITMAP
FFC0
FFC0
0000
FFC0
FFC0
ENDCHAR
STARTCHAR 0340
ENCODING 832
SWIDTH 0 0
DWIDTH 0 0
BBX 5 4 -4 15
BITMAP
E0
70
30
18
ENDCHAR
STARTCHAR 0341
ENCODING 833
SWIDTH 0 0
DWIDTH 0 0
BBX 5 4 -1 15
BITMAP
38
70
60
C0
ENDCHAR
STARTCHAR 0342
ENCODING 834
SWIDTH 0 0
DWIDTH 0 0
BBX 9 3 -5 15
BITMAP
7880
7F80
C700
ENDCHAR
STARTCHAR 0343
ENCODING 835
SWIDTH 0 0
DWIDTH 0 0
BBX 4 4 -2 15
BITMAP
E0
30
20
40
ENDCHAR
STARTCHAR 0344
ENCODING 836
SWIDTH 0 0
DWIDTH 0 0
BBX 9 4 -4 15
BITMAP
0C00
ED80
F980
1800
ENDCHAR
STARTCHAR 0345
ENCODING 837
SWIDTH 0 0
DWIDTH 0 0
BBX 4 4 -1 -6
BITMAP
C0
C0
F0
70
ENDCHAR
STARTCHAR 0346
ENCODING 838
SWIDTH 0 0
DWIDTH 0 0
BBX 10 4 -5 15
BITMAP
FFC0
8040
8040
8040
ENDCHAR
STARTCHAR 0347
ENCODING 839
SWIDTH 0 0
DWIDTH 0 0
BBX 10 5 -5 -6
BITMAP
FFC0
0000
0000
FFC0
FFC0
ENDCHAR
STARTCHAR 0348
ENCODING 840
SWIDTH 0 0
DWIDTH 0 0
BBX 6 4 -3 -5
BITMAP
CC
CC
CC
CC
ENDCHAR
STARTCHAR 0349
ENCODING 841
SWIDTH 0 0
DWIDTH 0 0
BBX 4 5 -2 -6
BITMAP
F0
F0
10
10
10
ENDCHAR
STARTCHAR 034A
ENCODING 842
SWIDTH 0 0
DWIDTH 0 0
BBX 9 4 -5 14
BITMAP
0600
7C80
7F80
DB00
ENDCHAR
STARTCHAR 034B
ENCODING 843
SWIDTH 0 0
DWIDTH 0 0
BBX 9 8 -5 14
BITMAP
0C00
0C00
0000
7880
7F80
C700
0C00
0C00
ENDCHAR
STARTCHAR 034C
ENCODING 844
SWIDTH 0 0
DWIDTH 0 0
BBX 8 7 -4 15
BITMAP
01
FB
9F
00
71
FF
8E
ENDCHAR
STARTCHAR 034D
ENCODING 845
SWIDTH 0 0
DWIDTH 0 0
BBX 8 4 -4 -5
BITMAP
24
7E
FF
66
ENDCHAR
STARTCHAR 034E
ENCODING 846
SWIDTH 0 0
DWIDTH 0 0
BBX 4 5 -2 -6
BITMAP
60
F0
60
60
60
ENDCHAR
STARTCHAR 034F
ENCODING 847
SWIDTH 0 0
DWIDTH 0 0
BBX 18 18 -9 0
BITMAP
F1E3C0
F1E3C0
800040
82D040
021000
0C0C00
180200
800240
900240
900240
800040
180600
040800
040800
82D040
800040
800040
F1E3C0
ENDCHAR
STARTCHAR 0350
ENCODING 848
SWIDTH 0 0
DWIDTH 0 0
BBX 4 5 -2 15
BITMAP
80
E0
30
70
C0
ENDCHAR
STARTCHAR 0351
ENCODING 849
SWIDTH 0 0
DWIDTH 0 0
BBX 3 5 -1 15
BITMAP
60
C0
80
C0
60
ENDCHAR
STARTCHAR 0352
ENCODING 850
SWIDTH 0 0
DWIDTH 0 0
BBX 8 6 -4 15
BITMAP
3C
7E
C3
18
18
18
ENDCHAR
STARTCHAR 0353
ENCODING 851
SWIDTH 0 0
DWIDTH 0 0
BBX 4 4 -2 -6
BITMAP
90
F0
60
F0
ENDCHAR
STARTCHAR 0354
ENCODING 852
SWIDTH 0 0
DWIDTH 0 0
BBX 4 5 -2 -6
BITMAP
10
F0
C0
F0
10
ENDCHAR
STARTCHAR 0355
ENCODING 853
SWIDTH 0 0
DWIDTH 0 0
BBX 4 5 -2 -6
BITMAP
80
F0
30
F0
80
ENDCHAR
STARTCHAR 0356
ENCODING 854
SWIDTH 0 0
DWIDTH 0 0
BBX 10 5 -5 -6
BITMAP
C300
7380
1B80
7680
C4C0
ENDCHAR
STARTCHAR 0357
ENCODING 855
SWIDTH 0 0
DWIDTH 0 0
BBX 3 5 -1 15
BITMAP
C0
40
60
40
C0
ENDCHAR
STARTCHAR 0358
ENCODING 856
SWIDTH 0 0
DWIDTH 0 0
BBX 3 2 3 16
BITMAP
E0
E0
ENDCHAR
STARTCHAR 0359
ENCODING 857
SWIDTH 0 0
DWIDTH 0 0
BBX 6 5 -3 -6
BITMAP
30
78
FC
78
50
ENDCHAR
STARTCHAR 035A
ENCODING 858
SWIDTH 0 0
DWIDTH 0 0
BBX 10 5 -5 -6
BITMAP
7F80
CCC0
CCC0
CCC0
7F80
ENDCHAR
STARTCHAR 035B
ENCODING 859
SWIDTH 0 0
DWIDTH 0 0
BBX 4 5 -2 15
BITMAP
C0
80
F0
10
30
ENDCHAR
STARTCHAR 035C
ENCODING 860
SWIDTH 0 0
DWIDTH 0 0
BBX 18 5 -9 -6
BITMAP
800040
E001C0
780780
1FFE00
03F000
ENDCHAR
STARTCHAR 035D
ENCODING 861
SWIDTH 0 0
DWIDTH 0 0
BBX 18 4 -9 15
BITMAP
C000C0
600180
3FBF00
0FFC00
ENDCHAR
STARTCHAR 035E
ENCODING 862
SWIDTH 0 0
DWIDTH 0 0
BBX 16 1 -8 16
BITMAP
FFFF
ENDCHAR
STARTCHAR 035F
ENCODING 863
SWIDTH 0 0
DWIDTH 0 0
BBX 16 1 -8 -3
BITMAP
FFFF
ENDCHAR
STARTCHAR 0360
ENCODING 864
SWIDTH 0 0
DWIDTH 0 0
BBX 19 3 -10 15
BITMAP
3FE020
71FFE0
C00F80
ENDCHAR
STARTCHAR 0361
ENCODING 865
SWIDTH 0 0
DWIDTH 0 0
BBX 20 5 -10 16
BITMAP
07FE00
1FFF80
3801C0
600060
C00030
ENDCHAR
STARTCHAR 0362
ENCODING 866
SWIDTH 0 0
DWIDTH 0 0
BBX 19 4 -9 -5
BITMAP
000080
FFFFC0
FFFFE0
000080
ENDCHAR
STARTCHAR 0363
ENCODING 867
SWIDTH 0 0
DWIDTH 0 0
BBX 5 6 -2 15
BITMAP
F0
10
38
98
98
68
ENDCHAR
STARTCHAR 0364
ENCODING 868
SWIDTH 0 0
DWIDTH 0 0
BBX 5 6 -2 15
BITMAP
70
88
F8
80
C8
30
ENDCHAR
STARTCHAR 0365
ENCODING 869
SWIDTH 0 0
DWIDTH 0 0
BBX 1 8 0 15
BITMAP
80
00
80
80
80
80
80
80
ENDCHAR
STARTCHAR 0366
ENCODING 870
SWIDTH 0 0
DWIDTH 0 0
BBX 6 6 -3 15
BITMAP
38
44
C4
44
4C
10
ENDCHAR
STARTCHAR 0367
ENCODING 871
SWIDTH 0 0
DWIDTH 0 0
BBX 5 6 -2 15
BITMAP
88
88
88
88
98
08
ENDCHAR
STARTCHAR 0368
ENCODING 872
SWIDTH 0 0
DWIDTH 0 0
BBX 5 6 -2 15
BITMAP
78
C0
80
80
40
30
ENDCHAR
STARTCHAR 0369
ENCODING 873
SWIDTH 0 0
DWIDTH 0 0
BBX 6 8 -3 15
BITMAP
04
04
74
44
84
C4
4C
24
ENDCHAR
STARTCHAR 036A
ENCODING 874
SWIDTH 0 0
DWIDTH 0 0
BBX 5 8 -2 15
BITMAP
80
80
F0
88
88
88
88
88
ENDCHAR
STARTCHAR 036B
ENCODING 875
SWIDTH 0 0
DWIDTH 0 0
BBX 9 6 -4 15
BITMAP
F700
8880
8880
8880
8880
8880
ENDCHAR
STARTCHAR 036C
ENCODING 876
SWIDTH 0 0
DWIDTH 0 0
BBX 3 6 -1 15
BITMAP
E0
80
80
80
80
80
ENDCHAR
STARTCHAR 036D
ENCODING 877
SWIDTH 0 0
DWIDTH 0 0
BBX 4 7 -2 15
BITMAP
40
F0
40
40
40
40
10
ENDCHAR
STARTCHAR 036E
ENCODING 878
SWIDTH 0 0
DWIDTH 0 0
BBX 5 6 -2 15
BITMAP
88
98
90
50
60
20
ENDCHAR
STARTCHAR 036F
ENCODING 879
SWIDTH 0 0
DWIDTH 0 0
BBX 6 6 -3 15
BITMAP
44
28
30
30
48
C4
ENDCHAR
STARTCHAR 0370
ENCODING 880
SWIDTH 440 0
DWIDTH 11 0
BBX 8 18 2 0
BITMAP
E0
E0
E0
E0
E0
E0
E0
E0
FF
FF
E0
E0
E0
E0
E0
E0
E0
E0
ENDCHAR
STARTCHAR 0371
ENCODING 881
SWIDTH 360 0
DWIDTH 9 0
BBX 7 13 2 0
BITMAP
C0
C0
C0
C0
C0
FE
FE
C0
C0
C0
C0
C0
C0
ENDCHAR
STARTCHAR 0372
ENCODING 882
SWIDTH 640 0
DWIDTH 16 0
BBX 14 18 1 0
BITMAP
FFFC
FFFC
C30C
C30C
C30C
C30C
C30C
C30C
0300
0300
0300
0300
0300
0300
0300
0300
0300
0300
ENDCHAR
STARTCHAR 0373
ENCODING 883
SWIDTH 640 0
DWIDTH 16 0
BBX 12 19 2 0
BITMAP
FFF0
FFF0
C630
C630
C630
C630
0600
0600
0600
0600
0600
0600
0600
0600
0600
0600
0600
0600
0600
ENDCHAR
STARTCHAR 0374
ENCODING 884
SWIDTH 160 0
DWIDTH 4 0
BBX 4 5 1 14
BITMAP
70
60
E0
C0
C0
ENDCHAR
STARTCHAR 0375
ENCODING 885
SWIDTH 160 0
DWIDTH 4 0
BBX 4 5 -1 -4
BITMAP
10
30
30
60
E0
ENDCHAR
STARTCHAR 0376
ENCODING 886
SWIDTH 760 0
DWIDTH 19 0
BBX 15 18 2 0
BITMAP
E00E
E01E
E01E
E03E
E076
E066
E0E6
E1C6
E186
E386
E706
E606
EE06
DC06
D806
F806
F006
E006
ENDCHAR
STARTCHAR 0377
ENCODING 887
SWIDTH 640 0
DWIDTH 16 0
BBX 12 13 2 0
BITMAP
C070
C0F0
C1F0
C1B0
C330
C730
C630
CC30
CC30
D830
F030
F030
E030
ENDCHAR
STARTCHAR 037A
ENCODING 890
SWIDTH 240 0
DWIDTH 6 0
BBX 4 4 2 -6
BITMAP
C0
C0
F0
70
ENDCHAR
STARTCHAR 037B
ENCODING 891
SWIDTH 480 0
DWIDTH 12 0
BBX 10 14 1 0
BITMAP
3800
FE00
C700
0380
0180
01C0
01C0
01C0
01C0
0180
0180
0380
FF00
FE00
ENDCHAR
STARTCHAR 037C
ENCODING 892
SWIDTH 480 0
DWIDTH 12 0
BBX 10 14 1 0
BITMAP
0700
1FC0
38C0
7000
6000
E000
E700
E700
E000
6000
6000
7000
3FC0
1FC0
ENDCHAR
STARTCHAR 037D
ENCODING 893
SWIDTH 480 0
DWIDTH 12 0
BBX 10 14 1 0
BITMAP
3800
FE00
C700
0380
0180
01C0
39C0
39C0
01C0
0180
0180
0380
FF00
FE00
ENDCHAR
STARTCHAR 037E
ENCODING 894
SWIDTH 240 0
DWIDTH 6 0
BBX 4 17 1 -3
BITMAP
20
70
70
20
00
00
00
00
00
00
00
70
60
60
E0
C0
C0
ENDCHAR
STARTCHAR 037F
ENCODING 895
SWIDTH 240 0
DWIDTH 6 0
BBX 7 23 -2 -5
BITMAP
0E
0E
0E
0E
0E
0E
0E
0E
0E
0E
0E
0E
0E
0E
0E
0E
0E
0E
0E
0C
1C
F8
E0
ENDCHAR
STARTCHAR 0384
ENCODING 900
SWIDTH 200 0
DWIDTH 5 0
BBX 3 4 1 15
BITMAP
60
60
C0
C0
ENDCHAR
STARTCHAR 0385
ENCODING 901
SWIDTH 640 0
DWIDTH 16 0
BBX 8 4 4 15
BITMAP
1C
DB
DB
10
ENDCHAR
STARTCHAR 0386
ENCODING 902
SWIDTH 680 0
DWIDTH 17 0
BBX 17 18 0 0
BITMAP
706000
60E000
60F000
C1B000
01B000
019800
031800
031C00
070C00
060C00
07FE00
0FFE00
0C0700
1C0300
180300
180380
380180
300180
ENDCHAR
STARTCHAR 0387
ENCODING 903
SWIDTH 240 0
DWIDTH 6 0
BBX 3 4 2 10
BITMAP
40
E0
E0
40
ENDCHAR
STARTCHAR 0388
ENCODING 904
SWIDTH 720 0
DWIDTH 18 0
BBX 17 18 0 0
BITMAP
71FF80
61FF80
618000
C18000
018000
018000
018000
018000
01FF00
01FF00
018000
018000
018000
018000
018000
018000
01FF80
01FF80
ENDCHAR
STARTCHAR 0389
ENCODING 905
SWIDTH 880 0
DWIDTH 22 0
BBX 20 18 0 0
BITMAP
718030
618030
618030
C18030
018030
018030
018030
018030
01FFF0
01FFF0
018030
018030
018030
018030
018030
018030
018030
018030
ENDCHAR
STARTCHAR 038A
ENCODING 906
SWIDTH 520 0
DWIDTH 13 0
BBX 12 18 0 0
BITMAP
73F0
63F0
60C0
C0C0
00C0
00C0
00C0
00C0
00C0
00C0
00C0
00C0
00C0
00C0
00C0
00C0
03E0
03F0
ENDCHAR
STARTCHAR 038C
ENCODING 908
SWIDTH 880 0
DWIDTH 22 0
BBX 21 18 0 0
BITMAP
707F00
61FFC0
63C0E0
C30070
070070
060030
060038
0E0038
0E0038
0E0038
0E0038
060038
060030
070030
030070
0380E0
01FFC0
007F00
ENDCHAR
STARTCHAR 038E
ENCODING 910
SWIDTH 760 0
DWIDTH 19 0
BBX 19 18 0 0
BITMAP
730060
6380E0
6180C0
C1C1C0
00C180
00E380
006300
007700
003600
003C00
001C00
001C00
001C00
001C00
001C00
001C00
001C00
001C00
ENDCHAR
STARTCHAR 038F
ENCODING 911
SWIDTH 840 0
DWIDTH 21 0
BBX 20 18 0 0
BITMAP
707F00
61FF80
6381C0
C700E0
060070
0E0070
0C0030
0C0030
0C0030
0C0030
0C0030
0E0070
060060
0700E0
0300C0
01C180
0FC3F0
0FC3F0
ENDCHAR
STARTCHAR 0390
ENCODING 912
SWIDTH 320 0
DWIDTH 8 0
BBX 9 19 0 0
BITMAP
1C00
DB80
DB80
1000
0000
0000
3000
3000
3000
3000
3000
3000
3000
3000
3000
3000
3000
3F00
1F00
ENDCHAR
STARTCHAR 0391
ENCODING 913
SWIDTH 600 0
DWIDTH 15 0
BBX 16 18 0 0
BITMAP
0180
03C0
03C0
03C0
0660
0660
0E70
0C30
0C30
1C38
1FF8
1FF8
301C
300C
700E
6006
6006
C007
ENDCHAR
STARTCHAR 0392
ENCODING 914
SWIDTH 640 0
DWIDTH 16 0
BBX 13 18 2 0
BITMAP
FF80
FFE0
E0F0
E030
E030
E030
E030
E0E0
FF80
FFE0
E030
E038
E038
E038
E038
E070
FFE0
FFC0
ENDCHAR
STARTCHAR 0393
ENCODING 915
SWIDTH 480 0
DWIDTH 12 0
BBX 10 18 2 0
BITMAP
FFC0
FFC0
E000
E000
E000
E000
E000
E000
E000
E000
E000
E000
E000
E000
E000
E000
E000
E000
ENDCHAR
STARTCHAR 0394
ENCODING 916
SWIDTH 600 0
DWIDTH 15 0
BBX 16 18 0 0
BITMAP
0180
03C0
03C0
03C0
0660
0660
0E70
0C30
0C30
1818
1818
381C
300C
300C
6006
6006
FFFF
FFFF
ENDCHAR
STARTCHAR 0395
ENCODING 917
SWIDTH 520 0
DWIDTH 13 0
BBX 10 18 2 0
BITMAP
FFC0
FFC0
E000
E000
E000
E000
E000
E000
FFC0
FFC0
E000
E000
E000
E000
E000
E000
FFC0
FFC0
ENDCHAR
STARTCHAR 0396
ENCODING 918
SWIDTH 560 0
DWIDTH 14 0
BBX 12 18 1 0
BITMAP
FFF0
FFF0
0070
00E0
00C0
01C0
0380
0300
0700
0E00
0C00
1C00
3800
3000
7000
E000
FFF0
FFF0
ENDCHAR
STARTCHAR 0397
ENCODING 919
SWIDTH 720 0
DWIDTH 18 0
BBX 14 18 2 0
BITMAP
E00C
E00C
E00C
E00C
E00C
E00C
E00C
E00C
FFFC
FFFC
E00C
E00C
E00C
E00C
E00C
E00C
E00C
E00C
ENDCHAR
STARTCHAR 0398
ENCODING 920
SWIDTH 760 0
DWIDTH 19 0
BBX 16 18 2 0
BITMAP
0FE0
3FF8
781C
700E
E006
C007
C007
C003
CFF3
CFF3
C003
C007
C007
E006
600E
781C
3FF8
0FF0
ENDCHAR
STARTCHAR 0399
ENCODING 921
SWIDTH 320 0
DWIDTH 8 0
BBX 6 18 1 0
BITMAP
FC
FC
30
30
30
30
30
30
30
30
30
30
30
30
30
30
7C
FC
ENDCHAR
STARTCHAR 039A
ENCODING 922
SWIDTH 600 0
DWIDTH 15 0
BBX 13 18 2 0
BITMAP
E038
E070
E0E0
E0C0
E180
E300
E600
EE00
FE00
F600
E700
E380
E180
E1C0
E0E0
E070
E030
E038
ENDCHAR
STARTCHAR 039B
ENCODING 923
SWIDTH 600 0
DWIDTH 15 0
BBX 15 18 0 0
BITMAP
0380
0380
03C0
06C0
06C0
0660
0C60
0C60
1C30
1830
1830
3818
3018
301C
700C
600C
600E
C006
ENDCHAR
STARTCHAR 039C
ENCODING 924
SWIDTH 880 0
DWIDTH 22 0
BBX 18 18 2 0
BITMAP
F001C0
F003C0
F803C0
D803C0
D806C0
CC06C0
CC06C0
EE0CC0
E60CC0
E618C0
E718C0
E318C0
E330C0
E1B0C0
E1F0C0
E1E0C0
E0E0C0
E0C0C0
ENDCHAR
STARTCHAR 039D
ENCODING 925
SWIDTH 760 0
DWIDTH 19 0
BBX 15 18 2 0
BITMAP
E00E
F00E
F80E
D80E
DC0E
CC0E
C60E
C70E
E30E
E38E
E1CE
E0CE
E0E6
E076
E036
E03E
E01E
E00E
ENDCHAR
STARTCHAR 039E
ENCODING 926
SWIDTH 600 0
DWIDTH 15 0
BBX 13 18 1 0
BITMAP
7FF8
7FF8
0000
0000
0000
0000
0000
0000
3FF0
3FF0
0000
0000
0000
0000
0000
0000
FFF8
FFF8
ENDCHAR
STARTCHAR 039F
ENCODING 927
SWIDTH 760 0
DWIDTH 19 0
BBX 16 18 2 0
BITMAP
0FE0
3FF8
781C
700E
E006
C007
C007
C003
C003
C003
C003
C007
C007
E006
600E
781C
3FF8
0FF0
ENDCHAR
STARTCHAR 03A0
ENCODING 928
SWIDTH 720 0
DWIDTH 18 0
BBX 14 18 2 0
BITMAP
FFFC
FFFC
E00C
E00C
E00C
E00C
E00C
E00C
E00C
E00C
E00C
E00C
E00C
E00C
E00C
E00C
E00C
E00C
ENDCHAR
STARTCHAR 03A1
ENCODING 929
SWIDTH 600 0
DWIDTH 15 0
BBX 12 18 2 0
BITMAP
FF00
FFC0
E0E0
E070
E070
E030
E070
E060
E0E0
FFC0
FF00
E000
E000
E000
E000
E000
E000
E000
ENDCHAR
STARTCHAR 03A3
ENCODING 931
SWIDTH 560 0
DWIDTH 14 0
BBX 12 18 1 0
BITMAP
FFF0
FFF0
6000
7000
3800
1C00
0E00
0700
0300
0700
0E00
0C00
1800
3800
7000
E000
FFF0
FFF0
ENDCHAR
STARTCHAR 03A4
ENCODING 932
SWIDTH 520 0
DWIDTH 13 0
BBX 14 18 0 0
BITMAP
FFFC
FFFC
0300
0300
0300
0300
0300
0300
0300
0300
0300
0300
0300
0300
0300
0300
0300
0300
ENDCHAR
STARTCHAR 03A5
ENCODING 933
SWIDTH 560 0
DWIDTH 14 0
BBX 14 18 0 0
BITMAP
E00C
6018
7038
3030
3870
1860
1CE0
0CC0
07C0
0780
0380
0300
0300
0300
0300
0300
0300
0300
ENDCHAR
STARTCHAR 03A6
ENCODING 934
SWIDTH 840 0
DWIDTH 21 0
BBX 19 18 1 0
BITMAP
00E000
00E000
0FFE00
1FFF80
38E3C0
70E0C0
60E0C0
E0E0E0
E0E060
E0E0E0
E0E0E0
60E0C0
70E1C0
3CE780
1FFF00
03F800
00E000
00E000
ENDCHAR
STARTCHAR 03A7
ENCODING 935
SWIDTH 560 0
DWIDTH 14 0
BBX 14 18 0 0
BITMAP
600C
7018
3038
1830
1C60
0CE0
06C0
0780
0380
0780
07C0
0EC0
0C60
1870
3830
3038
601C
E00C
ENDCHAR
STARTCHAR 03A8
ENCODING 936
SWIDTH 800 0
DWIDTH 20 0
BBX 16 18 2 0
BITMAP
E183
E183
E183
E183
E183
E183
E183
E183
6183
6187
718E
3FFC
0FF8
0180
0180
0180
0180
0180
ENDCHAR
STARTCHAR 03A9
ENCODING 937
SWIDTH 680 0
DWIDTH 17 0
BBX 16 18 1 0
BITMAP
0FE0
1FF8
381C
700E
E006
E007
C003
C003
C003
C003
C003
E007
6006
700E
300C
1838
FC3F
FC3F
ENDCHAR
STARTCHAR 03AA
ENCODING 938
SWIDTH 320 0
DWIDTH 8 0
BBX 7 23 1 0
BITMAP
84
CE
C4
00
00
FC
FC
30
30
30
30
30
30
30
30
30
30
30
30
30
30
7C
FC
ENDCHAR
STARTCHAR 03AB
ENCODING 939
SWIDTH 560 0
DWIDTH 14 0
BBX 14 23 0 0
BITMAP
0840
0CE0
0840
0000
0000
E00C
6018
7038
3030
3870
1860
1CE0
0CC0
07C0
0780
0380
0300
0300
0300
0300
0300
0300
0300
ENDCHAR
STARTCHAR 03AC
ENCODING 940
SWIDTH 600 0
DWIDTH 15 0
BBX 14 19 1 0
BITMAP
0180
0380
0300
0200
0000
0600
3FB0
38F0
7070
6030
E030
E030
E030
E030
6030
6030
7070
3FFC
1F9C
ENDCHAR
STARTCHAR 03AD
ENCODING 941
SWIDTH 440 0
DWIDTH 11 0
BBX 10 19 1 0
BITMAP
0300
0300
0600
0600
0000
0E00
3FC0
7080
6000
6000
6000
3F00
3F00
6000
E000
C000
E000
7FC0
3FC0
ENDCHAR
STARTCHAR 03AE
ENCODING 942
SWIDTH 600 0
DWIDTH 15 0
BBX 11 25 2 -6
BITMAP
0600
0C00
0C00
0800
0000
0700
DFC0
F0E0
E060
E060
C060
C060
C060
C060
C060
C060
C060
C060
C060
0060
0060
0060
0060
0060
0060
ENDCHAR
STARTCHAR 03AF
ENCODING 943
SWIDTH 320 0
DWIDTH 8 0
BBX 6 19 2 0
BITMAP
30
70
60
60
00
00
C0
C0
C0
C0
C0
C0
C0
C0
C0
C0
C0
FC
7C
ENDCHAR
STARTCHAR 03B0
ENCODING 944
SWIDTH 560 0
DWIDTH 14 0
BBX 11 19 2 0
BITMAP
0700
36C0
36C0
0C00
0000
0000
C0E0
C060
C060
C060
C060
C060
C060
C060
C060
C0E0
E0C0
7FC0
3F00
ENDCHAR
STARTCHAR 03B1
ENCODING 945
SWIDTH 600 0
DWIDTH 15 0
BBX 14 14 1 0
BITMAP
0600
3FB0
38F0
7070
6030
E030
E030
E030
E030
6030
6030
7070
3FFC
1F9C
ENDCHAR
STARTCHAR 03B2
ENCODING 946
SWIDTH 600 0
DWIDTH 15 0
BBX 12 25 2 -6
BITMAP
1F80
7FC0
60E0
E060
C060
C060
C060
C0C0
CF80
CF80
C0E0
C060
C030
C030
C030
C070
C060
FFE0
FF80
C000
C000
C000
C000
C000
C000
ENDCHAR
STARTCHAR 03B3
ENCODING 947
SWIDTH 480 0
DWIDTH 12 0
BBX 12 18 0 -5
BITMAP
E030
6030
6030
7030
3030
3060
3860
1860
18C0
0CC0
0D80
0F00
0700
0600
0600
0600
0600
0600
ENDCHAR
STARTCHAR 03B4
ENCODING 948
SWIDTH 560 0
DWIDTH 14 0
BBX 12 19 1 0
BITMAP
0FC0
1FF0
3820
3000
3800
1C00
0E00
0F80
39C0
7060
6070
E030
C030
C030
E030
E030
7070
3FE0
1F80
ENDCHAR
STARTCHAR 03B5
ENCODING 949
SWIDTH 440 0
DWIDTH 11 0
BBX 10 14 1 0
BITMAP
0E00
3FC0
7080
6000
6000
6000
3F00
3F00
6000
E000
C000
E000
7FC0
3FC0
ENDCHAR
STARTCHAR 03B6
ENCODING 950
SWIDTH 440 0
DWIDTH 11 0
BBX 10 24 1 -5
BITMAP
7FC0
7FC0
01C0
0380
0300
0600
0E00
1C00
1800
3000
7000
6000
6000
E000
E000
6000
7000
3E00
1FC0
01C0
00C0
00C0
00C0
01C0
ENDCHAR
STARTCHAR 03B7
ENCODING 951
SWIDTH 600 0
DWIDTH 15 0
BBX 11 20 2 -6
BITMAP
0700
DFC0
F0E0
E060
E060
C060
C060
C060
C060
C060
C060
C060
C060
C060
0060
0060
0060
0060
0060
0060
ENDCHAR
STARTCHAR 03B8
ENCODING 952
SWIDTH 560 0
DWIDTH 14 0
BBX 12 19 1 0
BITMAP
0F80
3FC0
3060
7070
6030
6030
6030
E030
FFF0
FFF0
E030
E030
6030
6030
6030
6070
3060
3FE0
0F80
ENDCHAR
STARTCHAR 03B9
ENCODING 953
SWIDTH 320 0
DWIDTH 8 0
BBX 6 13 2 0
BITMAP
C0
C0
C0
C0
C0
C0
C0
C0
C0
C0
C0
FC
7C
ENDCHAR
STARTCHAR 03BA
ENCODING 954
SWIDTH 520 0
DWIDTH 13 0
BBX 11 13 2 0
BITMAP
C1C0
C380
C300
C600
CE00
DC00
FC00
EE00
C700
C380
C180
C1C0
C0E0
ENDCHAR
STARTCHAR 03BB
ENCODING 955
SWIDTH 480 0
DWIDTH 12 0
BBX 13 19 0 0
BITMAP
F000
F800
0C00
0E00
0600
0600
0700
0F00
0F00
0D80
1980
19C0
18C0
30C0
30E0
7060
6060
6038
E038
ENDCHAR
STARTCHAR 03BC
ENCODING 956
SWIDTH 600 0
DWIDTH 15 0
BBX 13 19 2 -6
BITMAP
C060
C060
C060
C060
C060
C060
C060
C060
C060
C060
E0E0
FFF8
DF38
C000
C000
C000
C000
C000
C000
ENDCHAR
STARTCHAR 03BD
ENCODING 957
SWIDTH 480 0
DWIDTH 12 0
BBX 12 13 0 0
BITMAP
E030
6030
6030
7030
3030
3060
3860
1860
18C0
0CC0
0D80
0F00
0700
ENDCHAR
STARTCHAR 03BE
ENCODING 958
SWIDTH 480 0
DWIDTH 12 0
BBX 10 24 1 -5
BITMAP
7FC0
7FC0
1800
3000
6000
6000
7000
3000
1FC0
1FC0
3000
6000
6000
E000
E000
6000
7000
3E00
1FC0
01C0
00C0
00C0
00C0
01C0
ENDCHAR
STARTCHAR 03BF
ENCODING 959
SWIDTH 600 0
DWIDTH 15 0
BBX 13 14 1 0
BITMAP
0300
1FC0
38E0
7070
6030
E038
E038
E038
E038
6038
6030
7070
3FE0
1FC0
ENDCHAR
STARTCHAR 03C0
ENCODING 960
SWIDTH 640 0
DWIDTH 16 0
BBX 16 13 0 0
BITMAP
FFFF
1818
1818
1818
1818
1818
1818
1818
1818
1818
1818
181E
180E
ENDCHAR
STARTCHAR 03C1
ENCODING 961
SWIDTH 600 0
DWIDTH 15 0
BBX 12 20 2 -6
BITMAP
0400
3F80
71C0
E0E0
C060
C060
C070
C070
C070
C060
C060
C0E0
FFC0
DF80
C000
C000
C000
C000
C000
C000
ENDCHAR
STARTCHAR 03C2
ENCODING 962
SWIDTH 480 0
DWIDTH 12 0
BBX 10 19 1 -5
BITMAP
0300
1FC0
38C0
7000
6000
E000
E000
E000
E000
6000
6000
7000
3E00
0FC0
01C0
00C0
00C0
00C0
01C0
ENDCHAR
STARTCHAR 03C3
ENCODING 963
SWIDTH 600 0
DWIDTH 15 0
BBX 14 13 1 0
BITMAP
1FFC
3C60
7060
6030
6030
E030
E030
E030
6030
6030
7070
3FE0
1F80
ENDCHAR
STARTCHAR 03C4
ENCODING 964
SWIDTH 480 0
DWIDTH 12 0
BBX 11 13 0 0
BITMAP
FFE0
0C00
0C00
0C00
0C00
0C00
0C00
0C00
0C00
0C00
0E00
0FE0
07E0
ENDCHAR
STARTCHAR 03C5
ENCODING 965
SWIDTH 560 0
DWIDTH 14 0
BBX 11 13 2 0
BITMAP
C0E0
C060
C060
C060
C060
C060
C060
C060
C060
C0E0
E0C0
7FC0
3F00
ENDCHAR
STARTCHAR 03C6
ENCODING 966
SWIDTH 720 0
DWIDTH 18 0
BBX 16 25 1 -6
BITMAP
0180
0180
0180
0180
0180
03C0
1FF8
3DBC
718E
6186
6187
E187
E187
E187
6186
6186
318E
1FFC
0FF0
0180
0180
0180
0180
0180
0180
ENDCHAR
STARTCHAR 03C7
ENCODING 967
SWIDTH 560 0
DWIDTH 14 0
BBX 14 19 1 -6
BITMAP
E018
7038
3030
3860
1860
1CC0
0DC0
0F80
0700
0700
0700
0F80
0D80
19C0
38C0
30E0
6060
E07C
C03C
ENDCHAR
STARTCHAR 03C8
ENCODING 968
SWIDTH 720 0
DWIDTH 18 0
BBX 15 25 2 -6
BITMAP
0300
0300
0300
0300
0300
0300
C30C
C30E
C306
C306
C306
C306
C306
C306
C30E
E30C
731C
3FF8
1FF0
0300
0300
0300
0300
0300
0300
ENDCHAR
STARTCHAR 03C9
ENCODING 969
SWIDTH 760 0
DWIDTH 19 0
BBX 16 13 2 0
BITMAP
700E
6006
C003
C003
C183
C183
C183
C183
C183
C183
E3C7
7FFE
3E7C
ENDCHAR
STARTCHAR 03CA
ENCODING 970
SWIDTH 320 0
DWIDTH 8 0
BBX 8 18 0 0
BITMAP
C6
C6
00
00
00
30
30
30
30
30
30
30
30
30
30
30
3F
1F
ENDCHAR
STARTCHAR 03CB
ENCODING 971
SWIDTH 560 0
DWIDTH 14 0
BBX 11 18 2 0
BITMAP
3380
3380
0000
0000
0000
C0E0
C060
C060
C060
C060
C060
C060
C060
C060
C0E0
E0C0
7FC0
3F00
ENDCHAR
STARTCHAR 03CC
ENCODING 972
SWIDTH 600 0
DWIDTH 15 0
BBX 13 19 1 0
BITMAP
01C0
0180
0300
0300
0000
0300
1FC0
38E0
7070
6030
E038
E038
E038
E038
6038
6030
7070
3FE0
1FC0
ENDCHAR
STARTCHAR 03CD
ENCODING 973
SWIDTH 560 0
DWIDTH 14 0
BBX 11 19 2 0
BITMAP
0700
0600
0600
0400
0000
0000
C0E0
C060
C060
C060
C060
C060
C060
C060
C060
C0E0
E0C0
7FC0
3F00
ENDCHAR
STARTCHAR 03CE
ENCODING 974
SWIDTH 760 0
DWIDTH 19 0
BBX 16 19 2 0
BITMAP
00E0
00C0
00C0
0180
0000
0000
700E
6006
C003
C003
C183
C183
C183
C183
C183
C183
E3C7
7FFE
3E7C
ENDCHAR
STARTCHAR 03CF
ENCODING 975
SWIDTH 600 0
DWIDTH 15 0
BBX 13 24 2 -6
BITMAP
E038
E070
E0E0
E0C0
E180
E300
E600
EE00
FE00
F600
E700
E380
E180
E1C0
E0E0
E070
E030
E038
0018
0038
0038
C0F0
FFE0
3F80
ENDCHAR
STARTCHAR 03D0
ENCODING 976
SWIDTH 640 0
DWIDTH 16 0
BBX 13 19 2 0
BITMAP
0FC0
1FE0
3860
7060
7DE0
6FC0
E000
E000
CFC0
DDE0
E070
C030
C038
E038
6038
6030
7070
3FE0
1FC0
ENDCHAR
STARTCHAR 03D1
ENCODING 977
SWIDTH 600 0
DWIDTH 15 0
BBX 15 19 0 0
BITMAP
0FC0
1FE0
1870
1830
1818
1C18
0E18
07FE
20FE
F01C
381C
181C
3818
3018
3018
3038
3830
1FE0
0FC0
ENDCHAR
STARTCHAR 03D2
ENCODING 978
SWIDTH 560 0
DWIDTH 14 0
BBX 15 18 0 0
BITMAP
E00E
601E
7038
3030
3870
1860
1CE0
0CC0
07C0
0780
0380
0300
0300
0300
0300
0300
0300
0300
ENDCHAR
STARTCHAR 03D3
ENCODING 979
SWIDTH 800 0
DWIDTH 20 0
BBX 20 18 0 0
BITMAP
770070
6300F0
6180C0
C181C0
00C180
00E300
006300
007600
003600
003C00
001C00
001800
001800
001800
001800
001800
001800
001800
ENDCHAR
STARTCHAR 03D4
ENCODING 980
SWIDTH 560 0
DWIDTH 14 0
BBX 15 23 0 0
BITMAP
0C40
0CE0
0C40
0000
0000
E00E
601E
7038
3030
3870
1860
1CE0
0CC0
07C0
0780
0380
0300
0300
0300
0300
0300
0300
0300
ENDCHAR
STARTCHAR 03D5
ENCODING 981
SWIDTH 720 0
DWIDTH 18 0
BBX 16 25 1 -6
BITMAP
0180
0180
0180
0180
0180
03C0
1FF8
3DBC
718E
6186
6187
E187
E187
E187
6186
6186
318E
1FFC
0FF0
0180
0180
0180
0180
0180
0180
ENDCHAR
STARTCHAR 03D6
ENCODING 982
SWIDTH 840 0
DWIDTH 21 0
BBX 20 13 1 0
BITMAP
FFFFF0
380180
300180
3000C0
7060C0
7060C0
7060C0
7060C0
7060C0
30E1C0
38E180
1FBF80
0F9F00
ENDCHAR
STARTCHAR 03D7
ENCODING 983
SWIDTH 520 0
DWIDTH 13 0
BBX 11 18 2 -5
BITMAP
C1C0
C380
C300
C600
CE00
DC00
FC00
EE00
C700
C380
C180
C1C0
C0E0
0060
00E0
81C0
FF80
3E00
ENDCHAR
STARTCHAR 03D8
ENCODING 984
SWIDTH 760 0
DWIDTH 19 0
BBX 16 18 2 0
BITMAP
0FE0
3FF8
701C
E00E
E006
C006
C006
C007
C006
C006
E00E
600C
783C
3FF8
07C0
0380
0380
0380
ENDCHAR
STARTCHAR 03D9
ENCODING 985
SWIDTH 600 0
DWIDTH 15 0
BBX 13 20 1 -6
BITMAP
0300
1FC0
38E0
7030
6030
E038
E038
E038
E038
6038
6030
7070
3FE0
1FC0
0700
0700
0700
0700
0700
0700
ENDCHAR
STARTCHAR 03DA
ENCODING 986
SWIDTH 600 0
DWIDTH 15 0
BBX 13 18 2 0
BITMAP
0FF0
3FF8
7810
E000
C000
C000
C000
C000
C000
C000
E000
7000
3F80
1F80
0180
0180
0180
0180
ENDCHAR
STARTCHAR 03DB
ENCODING 987
SWIDTH 480 0
DWIDTH 12 0
BBX 10 19 1 -5
BITMAP
0300
1FC0
38C0
7000
6000
E000
E000
E000
E000
6000
6000
7000
3F00
0F80
01C0
00C0
00C0
1F80
1F00
ENDCHAR
STARTCHAR 03DC
ENCODING 988
SWIDTH 480 0
DWIDTH 12 0
BBX 10 18 2 0
BITMAP
FFC0
FFC0
E000
E000
E000
E000
E000
E000
FFC0
FFC0
E1C0
E1C0
E1C0
E1C0
E000
E000
E000
E000
ENDCHAR
STARTCHAR 03DD
ENCODING 989
SWIDTH 480 0
DWIDTH 12 0
BBX 10 19 2 -6
BITMAP
FFC0
FFC0
E000
E000
E000
E000
E000
FFC0
FFC0
E1C0
E1C0
E1C0
E000
E000
E000
E000
E000
E000
E000
ENDCHAR
STARTCHAR 03DE
ENCODING 990
SWIDTH 480 0
DWIDTH 12 0
BBX 12 18 0 0
BITMAP
F000
F800
1800
1800
3800
3000
3000
7000
7FE0
7FE0
00E0
00C0
00C0
01C0
01C0
0180
01F0
00F0
ENDCHAR
STARTCHAR 03DF
ENCODING 991
SWIDTH 520 0
DWIDTH 13 0
BBX 12 25 1 -6
BITMAP
7800
7800
1C00
1C00
1800
1800
3800
3000
3000
7030
67F0
FFE0
FC60
80E0
00C0
00C0
01C0
0180
0180
0380
0300
0300
0300
03E0
01E0
ENDCHAR
STARTCHAR 03E0
ENCODING 992
SWIDTH 560 0
DWIDTH 14 0
BBX 13 18 0 0
BITMAP
7F00
FFC0
C0E0
01E0
07B0
1E30
1C38
1078
00F8
03D8
0718
0218
0018
0018
0038
0038
0030
0070
ENDCHAR
STARTCHAR 03E1
ENCODING 993
SWIDTH 520 0
DWIDTH 13 0
BBX 13 25 -2 -6
BITMAP
E000
F800
3E00
0F00
0380
01C0
00E0
03E0
1F70
1830
0038
0018
00F8
07D8
0618
0018
0018
0018
0018
0018
0018
0018
0030
0030
0070
ENDCHAR
STARTCHAR 03F0
ENCODING 1008
SWIDTH 680 0
DWIDTH 17 0
BBX 16 14 1 0
BITMAP
E000
F01C
3838
1838
1878
18F8
19F0
1BB0
1B30
1E30
1C30
3C38
381F
300F
ENDCHAR
STARTCHAR 03F1
ENCODING 1009
SWIDTH 600 0
DWIDTH 15 0
BBX 12 20 2 -6
BITMAP
0400
3F80
71C0
E0E0
C060
C060
C070
C070
C070
C060
C0E0
E1C0
FF80
CE00
C000
E000
7F00
3FC0
01C0
00C0
ENDCHAR
STARTCHAR 03F2
ENCODING 1010
SWIDTH 480 0
DWIDTH 12 0
BBX 10 14 1 0
BITMAP
0700
1FC0
38C0
7000
6000
E000
E000
E000
E000
6000
6000
7000
3FC0
1FC0
ENDCHAR
STARTCHAR 03F3
ENCODING 1011
SWIDTH 240 0
DWIDTH 6 0
BBX 5 24 -1 -6
BITMAP
18
18
00
00
00
18
18
18
18
18
18
18
18
18
18
18
18
18
18
18
18
18
F8
F0
ENDCHAR
STARTCHAR 03F4
ENCODING 1012
SWIDTH 760 0
DWIDTH 19 0
BBX 16 18 2 0
BITMAP
0FE0
3FF8
781C
700E
E006
C007
C007
C003
FFFF
FFFF
C003
C007
C007
E006
600E
781C
3FF8
0FF0
ENDCHAR
STARTCHAR 03F5
ENCODING 1013
SWIDTH 480 0
DWIDTH 12 0
BBX 10 14 1 0
BITMAP
0780
1FC0
3840
7000
6000
E000
FF80
FF80
E000
6000
6000
7000
3FC0
1FC0
ENDCHAR
STARTCHAR 03F6
ENCODING 1014
SWIDTH 480 0
DWIDTH 12 0
BBX 10 14 1 0
BITMAP
3800
FF00
C780
0180
01C0
00C0
7FC0
7FC0
00C0
01C0
0180
0380
FF00
FE00
ENDCHAR
STARTCHAR 03F7
ENCODING 1015
SWIDTH 600 0
DWIDTH 15 0
BBX 12 18 2 0
BITMAP
E000
E000
E000
FE00
FFC0
E1E0
E070
E070
E030
E070
E070
E0E0
FFC0
FF80
E000
E000
E000
E000
ENDCHAR
STARTCHAR 03F8
ENCODING 1016
SWIDTH 600 0
DWIDTH 15 0
BBX 12 25 2 -6
BITMAP
C000
C000
C000
C000
C000
C600
DFC0
F0E0
E060
E070
C030
C030
C030
C030
E070
E070
E060
FFC0
CF80
C000
C000
C000
C000
C000
C000
ENDCHAR
STARTCHAR 03F9
ENCODING 1017
SWIDTH 600 0
DWIDTH 15 0
BBX 13 18 2 0
BITMAP
07F0
1FF8
3810
7000
E000
E000
C000
C000
C000
C000
C000
C000
C000
E000
7000
7800
3FF0
0FF0
ENDCHAR
STARTCHAR 03FA
ENCODING 1018
SWIDTH 880 0
DWIDTH 22 0
BBX 18 18 2 0
BITMAP
F001C0
F003C0
D803C0
DC06C0
CC06C0
CE0CC0
C61CC0
E318C0
E3B0C0
E1F0C0
E1E0C0
E0C0C0
E000C0
E000C0
E000C0
E000C0
E000C0
E000C0
ENDCHAR
STARTCHAR 03FB
ENCODING 1019
SWIDTH 720 0
DWIDTH 18 0
BBX 14 19 2 -6
BITMAP
E01C
F03C
F83C
D86C
CCCC
CECC
C78C
C30C
C00C
C00C
C00C
C00C
C00C
C000
C000
C000
C000
C000
C000
ENDCHAR
STARTCHAR 03FC
ENCODING 1020
SWIDTH 600 0
DWIDTH 15 0
BBX 14 20 0 -6
BITMAP
0100
0FE0
1C70
3838
3018
3018
301C
301C
301C
3018
3018
3038
3FF0
37E0
3000
3000
FF80
FF80
3000
3000
ENDCHAR
STARTCHAR 03FD
ENCODING 1021
SWIDTH 600 0
DWIDTH 15 0
BBX 13 18 1 0
BITMAP
7F80
FFC0
40E0
0070
0030
0038
0018
0018
0018
0018
0018
0018
0038
0030
0070
00E0
FFC0
FF80
ENDCHAR
STARTCHAR 03FE
ENCODING 1022
SWIDTH 600 0
DWIDTH 15 0
BBX 13 18 2 0
BITMAP
07F0
1FF8
3810
7000
E000
E000
C000
C000
C380
C380
C180
C000
C000
E000
7000
7800
3FF0
0FF0
ENDCHAR
STARTCHAR 03FF
ENCODING 1023
SWIDTH 600 0
DWIDTH 15 0
BBX 13 18 1 0
BITMAP
7F80
FFC0
40E0
0070
0030
0038
0018
0018
0C18
1E18
0C18
0018
0038
0030
0070
00E0
FFC0
FF80
ENDCHAR
STARTCHAR 0400
ENCODING 1024
SWIDTH 520 0
DWIDTH 13 0
BBX 10 24 2 0
BITMAP
3800
1C00
0C00
0600
0000
0000
FFC0
FFC0
E000
E000
E000
E000
E000
E000
FFC0
FFC0
E000
E000
E000
E000
E000
E000
FFC0
FFC0
ENDCHAR
STARTCHAR 0401
ENCODING 1025
SWIDTH 520 0
DWIDTH 13 0
BBX 10 23 2 0
BITMAP
1180
3180
3180
0000
0000
FFC0
FFC0
E000
E000
E000
E000
E000
E000
FFC0
FFC0
E000
E000
E000
E000
E000
E000
FFC0
FFC0
ENDCHAR
STARTCHAR 0402
ENCODING 1026
SWIDTH 720 0
DWIDTH 18 0
BBX 17 18 0 0
BITMAP
FFF000
FFF000
0E0000
0E0000
0E0000
0E0000
0E0000
0FFC00
0FFF00
0E0700
0E0380
0E0380
0E0380
0E0380
0E0380
0E0300
0E3F00
0E3E00
ENDCHAR
STARTCHAR 0403
ENCODING 1027
SWIDTH 520 0
DWIDTH 13 0
BBX 11 24 2 0
BITMAP
0380
0380
0700
0600
0000
0000
FFE0
FFE0
E000
E000
E000
E000
E000
E000
E000
E000
E000
E000
E000
E000
E000
E000
E000
E000
ENDCHAR
STARTCHAR 0404
ENCODING 1028
SWIDTH 640 0
DWIDTH 16 0
BBX 13 18 2 0
BITMAP
07F0
1FF8
3818
7000
E000
E000
C000
C000
FFE0
FFE0
C000
C000
C000
E000
7000
7800
3FF8
0FF8
ENDCHAR
STARTCHAR 0405
ENCODING 1029
SWIDTH 520 0
DWIDTH 13 0
BBX 12 18 1 0
BITMAP
1FC0
3FE0
7020
6000
E000
6000
7000
7800
1F00
0FC0
01E0
0060
0060
0070
0060
80E0
FFC0
7F80
ENDCHAR
STARTCHAR 0406
ENCODING 1030
SWIDTH 320 0
DWIDTH 8 0
BBX 6 18 1 0
BITMAP
FC
FC
30
30
30
30
30
30
30
30
30
30
30
30
30
30
7C
FC
ENDCHAR
STARTCHAR 0407
ENCODING 1031
SWIDTH 320 0
DWIDTH 8 0
BBX 7 23 1 0
BITMAP
84
CE
C4
00
00
FC
FC
30
30
30
30
30
30
30
30
30
30
30
30
30
30
7C
FC
ENDCHAR
STARTCHAR 0408
ENCODING 1032
SWIDTH 240 0
DWIDTH 6 0
BBX 7 23 -2 -5
BITMAP
0E
0E
0E
0E
0E
0E
0E
0E
0E
0E
0E
0E
0E
0E
0E
0E
0E
0E
0E
0C
1C
F8
E0
ENDCHAR
STARTCHAR 0409
ENCODING 1033
SWIDTH 920 0
DWIDTH 23 0
BBX 22 18 0 0
BITMAP
07FC00
07FC00
060C00
060C00
060C00
060C00
060C00
0E0C00
0E0FF0
0C0FF8
0C0C1C
0C0C0C
0C0C0C
1C0C0C
180C0C
180C1C
F80FF8
F00FE0
ENDCHAR
STARTCHAR 040A
ENCODING 1034
SWIDTH 920 0
DWIDTH 23 0
BBX 21 18 2 0
BITMAP
E03800
E03800
E03800
E03800
E03800
E03800
E03800
E03800
FFFFC0
FFFFF0
E03838
E03838
E03818
E03818
E03838
E03870
E03FE0
E03FC0
ENDCHAR
STARTCHAR 040B
ENCODING 1035
SWIDTH 720 0
DWIDTH 18 0
BBX 17 18 0 0
BITMAP
FFF800
FFF800
0E0000
0E0000
0E0000
0E0000
0E0000
0FFC00
0FFF00
0E0700
0E0380
0E0380
0E0380
0E0380
0E0380
0E0380
0E0380
0E0380
ENDCHAR
STARTCHAR 040C
ENCODING 1036
SWIDTH 600 0
DWIDTH 15 0
BBX 13 24 2 0
BITMAP
01C0
0180
0300
0600
0000
0000
E038
E070
E0E0
E1C0
E180
E300
E600
EE00
FC00
FC00
EE00
E700
E380
E180
E0C0
E060
E070
E038
ENDCHAR
STARTCHAR 040D
ENCODING 1037
SWIDTH 760 0
DWIDTH 19 0
BBX 15 24 2 0
BITMAP
0600
0700
0300
0180
0000
0000
E00E
E01E
E01E
E03E
E076
E066
E0E6
E1C6
E186
E386
E706
E606
EE06
DC06
D806
F806
F006
E006
ENDCHAR
STARTCHAR 040E
ENCODING 1038
SWIDTH 600 0
DWIDTH 15 0
BBX 15 23 0 0
BITMAP
1830
0C70
07E0
0000
0000
E006
6006
700E
300C
181C
1818
0C38
0C30
0630
0660
0360
03E0
01C0
01C0
0180
0380
7F00
7E00
ENDCHAR
STARTCHAR 040F
ENCODING 1039
SWIDTH 720 0
DWIDTH 18 0
BBX 14 23 2 -5
BITMAP
E00C
E00C
E00C
E00C
E00C
E00C
E00C
E00C
E00C
E00C
E00C
E00C
E00C
E00C
E00C
E00C
FFFC
FFFC
0300
0300
0300
0300
0300
ENDCHAR
STARTCHAR 0410
ENCODING 1040
SWIDTH 600 0
DWIDTH 15 0
BBX 16 18 0 0
BITMAP
0180
03C0
03C0
03C0
0660
0660
0E70
0C30
0C30
1C38
1FF8
1FF8
301C
300C
700E
6006
6006
C007
ENDCHAR
STARTCHAR 0411
ENCODING 1041
SWIDTH 600 0
DWIDTH 15 0
BBX 12 18 2 0
BITMAP
FFE0
FFE0
E000
E000
E000
E000
E000
E000
FFC0
FFE0
E070
E030
E030
E030
E070
E0E0
FFE0
FF80
ENDCHAR
STARTCHAR 0412
ENCODING 1042
SWIDTH 640 0
DWIDTH 16 0
BBX 13 18 2 0
BITMAP
FF80
FFE0
E0F0
E030
E030
E030
E030
E0E0
FF80
FFE0
E030
E038
E038
E038
E038
E070
FFE0
FFC0
ENDCHAR
STARTCHAR 0413
ENCODING 1043
SWIDTH 520 0
DWIDTH 13 0
BBX 11 18 2 0
BITMAP
FFE0
FFE0
E000
E000
E000
E000
E000
E000
E000
E000
E000
E000
E000
E000
E000
E000
E000
E000
ENDCHAR
STARTCHAR 0414
ENCODING 1044
SWIDTH 680 0
DWIDTH 17 0
BBX 17 23 0 -5
BITMAP
03FC00
03FC00
030C00
030C00
030C00
070C00
060C00
060C00
060C00
0E0C00
0C0C00
0C0C00
1C0C00
180C00
380C00
300C00
FFFF80
FFFF80
C00180
C00180
C00180
C00180
C00180
ENDCHAR
STARTCHAR 0415
ENCODING 1045
SWIDTH 520 0
DWIDTH 13 0
BBX 10 18 2 0
BITMAP
FFC0
FFC0
E000
E000
E000
E000
E000
E000
FFC0
FFC0
E000
E000
E000
E000
E000
E000
FFC0
FFC0
ENDCHAR
STARTCHAR 0416
ENCODING 1046
SWIDTH 840 0
DWIDTH 21 0
BBX 21 18 0 0
BITMAP
603038
703030
383060
1830C0
0C31C0
063380
073300
03B600
01BC00
01FE00
033600
073300
0E3380
0C31C0
1830E0
383060
703030
E03038
ENDCHAR
STARTCHAR 0417
ENCODING 1047
SWIDTH 560 0
DWIDTH 14 0
BBX 12 18 1 0
BITMAP
3F80
FFE0
6070
0070
0030
0070
0060
01E0
3F00
3FC0
0070
0030
0030
0030
0030
8070
FFE0
FF80
ENDCHAR
STARTCHAR 0418
ENCODING 1048
SWIDTH 760 0
DWIDTH 19 0
BBX 15 18 2 0
BITMAP
E00E
E01E
E01E
E03E
E076
E066
E0E6
E1C6
E186
E386
E706
E606
EE06
DC06
D806
F806
F006
E006
ENDCHAR
STARTCHAR 0419
ENCODING 1049
SWIDTH 760 0
DWIDTH 19 0
BBX 15 23 2 0
BITMAP
1830
0C70
0FE0
0000
0000
E00E
E01E
E01E
E03E
E076
E066
E0E6
E1C6
E186
E386
E706
E606
EE06
DC06
D806
F806
F006
E006
ENDCHAR
STARTCHAR 041A
ENCODING 1050
SWIDTH 600 0
DWIDTH 15 0
BBX 13 18 2 0
BITMAP
E038
E070
E0E0
E1C0
E180
E300
E600
EE00
FC00
FC00
EE00
E700
E380
E180
E0C0
E060
E070
E038
ENDCHAR
STARTCHAR 041B
ENCODING 1051
SWIDTH 680 0
DWIDTH 17 0
BBX 15 18 0 0
BITMAP
07FE
07FE
0606
0606
0606
0606
0606
0E06
0E06
0C06
0C06
0C06
0C06
1C06
1806
1806
F806
F006
ENDCHAR
STARTCHAR 041C
ENCODING 1052
SWIDTH 880 0
DWIDTH 22 0
BBX 18 18 2 0
BITMAP
F001C0
F003C0
F803C0
D803C0
D806C0
CC06C0
CC06C0
EE0CC0
E60CC0
E618C0
E718C0
E318C0
E330C0
E1B0C0
E1F0C0
E1E0C0
E0E0C0
E0C0C0
ENDCHAR
STARTCHAR 041D
ENCODING 1053
SWIDTH 720 0
DWIDTH 18 0
BBX 14 18 2 0
BITMAP
E00C
E00C
E00C
E00C
E00C
E00C
E00C
E00C
FFFC
FFFC
E00C
E00C
E00C
E00C
E00C
E00C
E00C
E00C
ENDCHAR
STARTCHAR 041E
ENCODING 1054
SWIDTH 760 0
DWIDTH 19 0
BBX 16 18 2 0
BITMAP
0FE0
3FF8
781C
700E
E006
C007
C007
C003
C003
C003
C003
C007
C007
E006
600E
781C
3FF8
0FF0
ENDCHAR
STARTCHAR 041F
ENCODING 1055
SWIDTH 720 0
DWIDTH 18 0
BBX 14 18 2 0
BITMAP
FFFC
FFFC
E00C
E00C
E00C
E00C
E00C
E00C
E00C
E00C
E00C
E00C
E00C
E00C
E00C
E00C
E00C
E00C
ENDCHAR
STARTCHAR 0420
ENCODING 1056
SWIDTH 600 0
DWIDTH 15 0
BBX 12 18 2 0
BITMAP
FF00
FFC0
E0E0
E070
E070
E030
E070
E060
E0E0
FFC0
FF00
E000
E000
E000
E000
E000
E000
E000
ENDCHAR
STARTCHAR 0421
ENCODING 1057
SWIDTH 600 0
DWIDTH 15 0
BBX 13 18 2 0
BITMAP
07F0
1FF8
3810
7000
E000
E000
C000
C000
C000
C000
C000
C000
C000
E000
7000
7800
3FF0
0FF0
ENDCHAR
STARTCHAR 0422
ENCODING 1058
SWIDTH 520 0
DWIDTH 13 0
BBX 14 18 0 0
BITMAP
FFFC
FFFC
0300
0300
0300
0300
0300
0300
0300
0300
0300
0300
0300
0300
0300
0300
0300
0300
ENDCHAR
STARTCHAR 0423
ENCODING 1059
SWIDTH 600 0
DWIDTH 15 0
BBX 15 18 0 0
BITMAP
E006
6006
700E
300C
181C
1818
0C38
0C30
0630
0660
0360
03E0
01C0
01C0
0180
0380
7F00
7E00
ENDCHAR
STARTCHAR 0424
ENCODING 1060
SWIDTH 800 0
DWIDTH 20 0
BBX 18 18 1 0
BITMAP
00C000
00C000
07F800
1FFE00
38C780
70C380
60C180
E0C1C0
E0C0C0
E0C1C0
E0C1C0
60C180
70C380
3EDF00
1FFE00
01E000
00C000
00C000
ENDCHAR
STARTCHAR 0425
ENCODING 1061
SWIDTH 560 0
DWIDTH 14 0
BBX 14 18 0 0
BITMAP
600C
7018
3038
1830
1C60
0CE0
06C0
0780
0380
0780
07C0
0EC0
0C60
1870
3830
3038
601C
E00C
ENDCHAR
STARTCHAR 0426
ENCODING 1062
SWIDTH 720 0
DWIDTH 18 0
BBX 16 23 2 -5
BITMAP
E00C
E00C
E00C
E00C
E00C
E00C
E00C
E00C
E00C
E00C
E00C
E00C
E00C
E00C
E00C
E00C
FFFF
FFFF
0003
0003
0003
0003
0003
ENDCHAR
STARTCHAR 0427
ENCODING 1063
SWIDTH 680 0
DWIDTH 17 0
BBX 13 18 2 0
BITMAP
C018
C018
C018
C018
C018
C018
C018
C018
E018
F0F8
7FF8
1F18
0018
0018
0018
0018
0018
0018
ENDCHAR
STARTCHAR 0428
ENCODING 1064
SWIDTH 1000 0
DWIDTH 25 0
BBX 21 18 2 0
BITMAP
E03018
E03018
E03018
E03018
E03018
E03018
E03018
E03018
E03018
E03018
E03018
E03018
E03018
E03018
E03018
E03018
FFFFF8
FFFFF8
ENDCHAR
STARTCHAR 0429
ENCODING 1065
SWIDTH 1040 0
DWIDTH 26 0
BBX 23 23 2 -5
BITMAP
E03018
E03018
E03018
E03018
E03018
E03018
E03018
E03018
E03018
E03018
E03018
E03018
E03018
E03018
E03018
E03018
FFFFFE
FFFFFE
000006
000006
000006
000006
000006
ENDCHAR
STARTCHAR 042A
ENCODING 1066
SWIDTH 680 0
DWIDTH 17 0
BBX 16 18 0 0
BITMAP
FE00
FE00
0E00
0E00
0E00
0E00
0E00
0E00
0FFC
0FFE
0E07
0E07
0E03
0E03
0E07
0E0E
0FFE
0FF8
ENDCHAR
STARTCHAR 042B
ENCODING 1067
SWIDTH 840 0
DWIDTH 21 0
BBX 17 18 2 0
BITMAP
E00180
E00180
E00180
E00180
E00180
E00180
E00180
E00180
FFC180
FFE180
E07180
E07180
E03180
E03180
E07180
E0E180
FFE180
FF8180
ENDCHAR
STARTCHAR 042C
ENCODING 1068
SWIDTH 640 0
DWIDTH 16 0
BBX 13 18 2 0
BITMAP
E000
E000
E000
E000
E000
E000
E000
E000
FFC0
FFF0
E070
E038
E038
E038
E038
E070
FFE0
FFC0
ENDCHAR
STARTCHAR 042D
ENCODING 1069
SWIDTH 600 0
DWIDTH 15 0
BBX 13 18 1 0
BITMAP
7F00
FFC0
40E0
0070
0030
0038
0018
0018
3FF8
3FF8
0018
0018
0038
0030
0070
00E0
FFC0
FF80
ENDCHAR
STARTCHAR 042E
ENCODING 1070
SWIDTH 1040 0
DWIDTH 26 0
BBX 23 18 2 0
BITMAP
E01FC0
E03FF0
E07038
E0E018
E0C01C
E1C00C
E1800E
E1800E
FF800E
FF800E
E1800E
E1800E
E1C00C
E0C00C
E0E01C
E07038
E03FF0
E01FC0
ENDCHAR
STARTCHAR 042F
ENCODING 1071
SWIDTH 600 0
DWIDTH 15 0
BBX 13 18 1 0
BITMAP
07F8
3FF8
3838
7038
6038
6038
6038
7038
3C38
1FF8
0FF8
0C38
1C38
3838
3038
7038
6038
E038
ENDCHAR
STARTCHAR 0430
ENCODING 1072
SWIDTH 560 0
DWIDTH 14 0
BBX 11 14 1 0
BITMAP
0600
3FC0
30E0
0060
0060
0060
1FE0
7F60
6060
E060
C0E0
E0E0
7FE0
3E60
ENDCHAR
STARTCHAR 0431
ENCODING 1073
SWIDTH 560 0
DWIDTH 14 0
BBX 13 19 1 0
BITMAP
0070
0FF0
1F00
3800
3000
6000
6000
6FE0
7CF0
F070
E030
E038
E038
6038
6030
7030
3070
3FE0
0FC0
ENDCHAR
STARTCHAR 0432
ENCODING 1074
SWIDTH 560 0
DWIDTH 14 0
BBX 11 13 2 0
BITMAP
FFC0
C3E0
C060
C060
C0E0
FF80
FFC0
C0E0
C060
C060
C0E0
FFC0
FF80
ENDCHAR
STARTCHAR 0433
ENCODING 1075
SWIDTH 400 0
DWIDTH 10 0
BBX 8 13 2 0
BITMAP
FF
C0
C0
C0
C0
C0
C0
C0
C0
C0
C0
C0
C0
ENDCHAR
STARTCHAR 0434
ENCODING 1076
SWIDTH 560 0
DWIDTH 14 0
BBX 14 18 0 -5
BITMAP
07F0
0630
0630
0630
0E30
0C30
0C30
0C30
1830
1830
3030
FFFC
FFFC
E00C
E00C
E00C
E00C
E00C
ENDCHAR
STARTCHAR 0435
ENCODING 1077
SWIDTH 560 0
DWIDTH 14 0
BBX 12 14 1 0
BITMAP
0700
1FC0
38E0
7060
6070
6070
FFF0
FFF0
E000
6000
6000
7000
3FE0
1FE0
ENDCHAR
STARTCHAR 0436
ENCODING 1078
SWIDTH 720 0
DWIDTH 18 0
BBX 18 13 0 0
BITMAP
70C1C0
38C380
18C700
0CC600
06CC00
03D800
03F800
06DC00
0CCE00
1CC700
38C380
70C180
E0C0C0
ENDCHAR
STARTCHAR 0437
ENCODING 1079
SWIDTH 480 0
DWIDTH 12 0
BBX 10 14 1 0
BITMAP
1C00
FF80
4380
01C0
00C0
0180
3F00
3F80
01C0
00C0
00C0
01C0
FF80
FF00
ENDCHAR
STARTCHAR 0438
ENCODING 1080
SWIDTH 640 0
DWIDTH 16 0
BBX 12 13 2 0
BITMAP
C070
C0F0
C1F0
C1B0
C330
C730
C630
CC30
CC30
D830
F030
F030
E030
ENDCHAR
STARTCHAR 0439
ENCODING 1081
SWIDTH 640 0
DWIDTH 16 0
BBX 12 19 2 0
BITMAP
3060
30E0
3FC0
0F80
0000
0000
C070
C0F0
C1F0
C1B0
C330
C730
C630
CC30
CC30
D830
F030
F030
E030
ENDCHAR
STARTCHAR 043A
ENCODING 1082
SWIDTH 520 0
DWIDTH 13 0
BBX 10 13 2 0
BITMAP
C1C0
C380
C700
C600
CC00
D800
F800
DC00
CE00
C700
C380
C1C0
C0C0
ENDCHAR
STARTCHAR 043B
ENCODING 1083
SWIDTH 560 0
DWIDTH 14 0
BBX 12 13 0 0
BITMAP
0FF0
0C30
0C30
0C30
0C30
0C30
1C30
1830
1830
1830
3830
F030
E030
ENDCHAR
STARTCHAR 043C
ENCODING 1084
SWIDTH 720 0
DWIDTH 18 0
BBX 15 13 2 0
BITMAP
E01E
F01E
F036
D836
D836
D866
CC66
CCC6
C6C6
C6C6
C786
C386
C306
ENDCHAR
STARTCHAR 043D
ENCODING 1085
SWIDTH 600 0
DWIDTH 15 0
BBX 12 13 2 0
BITMAP
C030
C030
C030
C030
C030
FFF0
FFF0
C030
C030
C030
C030
C030
C030
ENDCHAR
STARTCHAR 043E
ENCODING 1086
SWIDTH 600 0
DWIDTH 15 0
BBX 13 14 1 0
BITMAP
0300
1FC0
38E0
7070
6030
E038
E038
E038
E038
6038
6030
7070
3FE0
1FC0
ENDCHAR
STARTCHAR 043F
ENCODING 1087
SWIDTH 600 0
DWIDTH 15 0
BBX 11 13 2 0
BITMAP
FFE0
C060
C060
C060
C060
C060
C060
C060
C060
C060
C060
C060
C060
ENDCHAR
STARTCHAR 0440
ENCODING 1088
SWIDTH 600 0
DWIDTH 15 0
BBX 12 20 2 -6
BITMAP
0600
DFC0
F1E0
E060
E070
C030
C030
C030
C030
E070
E070
E0E0
FFC0
CF80
C000
C000
C000
C000
C000
C000
ENDCHAR
STARTCHAR 0441
ENCODING 1089
SWIDTH 480 0
DWIDTH 12 0
BBX 10 14 1 0
BITMAP
0700
1FC0
38C0
7000
6000
E000
E000
E000
E000
6000
6000
7000
3FC0
1FC0
ENDCHAR
STARTCHAR 0442
ENCODING 1090
SWIDTH 440 0
DWIDTH 11 0
BBX 11 13 0 0
BITMAP
FFE0
0600
0600
0600
0600
0600
0600
0600
0600
0600
0600
0600
0600
ENDCHAR
STARTCHAR 0443
ENCODING 1091
SWIDTH 480 0
DWIDTH 12 0
BBX 12 19 0 -6
BITMAP
E030
6030
6070
3060
3060
38E0
18C0
18C0
0D80
0D80
0D80
0700
0700
0600
0600
0E00
0C00
FC00
F000
ENDCHAR
STARTCHAR 0444
ENCODING 1092
SWIDTH 720 0
DWIDTH 18 0
BBX 16 25 1 -6
BITMAP
0180
0180
0180
0180
0180
03C0
1FF8
3DBC
718E
6186
E187
E187
E187
E187
6186
6186
318E
1FFC
0FF0
0180
0180
0180
0180
0180
0180
ENDCHAR
STARTCHAR 0445
ENCODING 1093
SWIDTH 520 0
DWIDTH 13 0
BBX 11 13 1 0
BITMAP
E0E0
60C0
3180
3B80
1F00
0E00
0E00
1F00
1B80
3180
70C0
60E0
C060
ENDCHAR
STARTCHAR 0446
ENCODING 1094
SWIDTH 600 0
DWIDTH 15 0
BBX 13 18 2 -5
BITMAP
C060
C060
C060
C060
C060
C060
C060
C060
C060
C060
C060
FFF8
FFF8
0018
0018
0018
0018
0018
ENDCHAR
STARTCHAR 0447
ENCODING 1095
SWIDTH 600 0
DWIDTH 15 0
BBX 11 13 2 0
BITMAP
C060
C060
C060
C060
C060
C060
E3E0
7F60
0860
0060
0060
0060
0060
ENDCHAR
STARTCHAR 0448
ENCODING 1096
SWIDTH 880 0
DWIDTH 22 0
BBX 18 13 2 0
BITMAP
C0C0C0
C0C0C0
C0C0C0
C0C0C0
C0C0C0
C0C0C0
C0C0C0
C0C0C0
C0C0C0
C0C0C0
C0C0C0
FFFFC0
FFFFC0
ENDCHAR
STARTCHAR 0449
ENCODING 1097
SWIDTH 880 0
DWIDTH 22 0
BBX 20 18 2 -5
BITMAP
C0C0C0
C0C0C0
C0C0C0
C0C0C0
C0C0C0
C0C0C0
C0C0C0
C0C0C0
C0C0C0
C0C0C0
C0C0C0
FFFFF0
FFFFF0
000030
000030
000030
000030
000030
ENDCHAR
STARTCHAR 044A
ENCODING 1098
SWIDTH 680 0
DWIDTH 17 0
BBX 16 13 0 0
BITMAP
FE00
0600
0600
0600
0600
07FC
07FE
0607
0603
0603
0607
07FE
07FC
ENDCHAR
STARTCHAR 044B
ENCODING 1099
SWIDTH 760 0
DWIDTH 19 0
BBX 15 13 2 0
BITMAP
C006
C006
C006
C006
C006
FF86
FFC6
C0E6
C066
C066
C0E6
FFC6
FF86
ENDCHAR
STARTCHAR 044C
ENCODING 1100
SWIDTH 560 0
DWIDTH 14 0
BBX 12 13 2 0
BITMAP
C000
C000
C000
C000
C000
FF80
FFE0
C060
C070
C060
C060
FFE0
FF80
ENDCHAR
STARTCHAR 044D
ENCODING 1101
SWIDTH 480 0
DWIDTH 12 0
BBX 10 14 1 0
BITMAP
3800
FF00
C780
0180
01C0
00C0
7FC0
7FC0
00C0
01C0
0180
0380
FF00
FE00
ENDCHAR
STARTCHAR 044E
ENCODING 1102
SWIDTH 800 0
DWIDTH 20 0
BBX 18 14 2 0
BITMAP
001800
C0FE00
C1C700
C38380
C30180
C30180
FF01C0
FF01C0
C30180
C30180
C38180
C18380
C1FF00
C07E00
ENDCHAR
STARTCHAR 044F
ENCODING 1103
SWIDTH 520 0
DWIDTH 13 0
BBX 11 13 1 0
BITMAP
3FE0
7060
E060
C060
C060
7060
7FE0
1FE0
3860
3060
7060
E060
C060
ENDCHAR
STARTCHAR 0450
ENCODING 1104
SWIDTH 560 0
DWIDTH 14 0
BBX 12 19 1 0
BITMAP
1C00
0C00
0600
0300
0000
0700
1FC0
38E0
7060
6070
6070
FFF0
FFF0
E000
6000
6000
7000
3FE0
1FE0
ENDCHAR
STARTCHAR 0451
ENCODING 1105
SWIDTH 560 0
DWIDTH 14 0
BBX 12 18 1 0
BITMAP
19C0
19C0
0000
0000
0700
1FC0
38E0
7060
6070
6070
FFF0
FFF0
E000
6000
6000
7000
3FE0
1FE0
ENDCHAR
STARTCHAR 0452
ENCODING 1106
SWIDTH 600 0
DWIDTH 15 0
BBX 13 25 0 -6
BITMAP
3000
3000
FF80
FF80
3000
3000
33F0
37F8
3C38
3818
3818
3018
3018
3018
3018
3018
3018
3018
3018
0018
0018
0018
0018
00F8
00F0
ENDCHAR
STARTCHAR 0453
ENCODING 1107
SWIDTH 400 0
DWIDTH 10 0
BBX 8 19 2 0
BITMAP
06
0E
1C
18
00
00
FF
C0
C0
C0
C0
C0
C0
C0
C0
C0
C0
C0
C0
ENDCHAR
STARTCHAR 0454
ENCODING 1108
SWIDTH 480 0
DWIDTH 12 0
BBX 10 14 1 0
BITMAP
0780
1FC0
3840
7000
6000
E000
FF80
FF80
E000
6000
6000
7000
3FC0
1FC0
ENDCHAR
STARTCHAR 0455
ENCODING 1109
SWIDTH 440 0
DWIDTH 11 0
BBX 10 14 1 0
BITMAP
0E00
7F80
7180
C000
E000
7000
3C00
1F00
0380
01C0
00C0
81C0
FF80
7F00
ENDCHAR
STARTCHAR 0456
ENCODING 1110
SWIDTH 240 0
DWIDTH 6 0
BBX 2 18 2 0
BITMAP
C0
C0
00
00
00
C0
C0
C0
C0
C0
C0
C0
C0
C0
C0
C0
C0
C0
ENDCHAR
STARTCHAR 0457
ENCODING 1111
SWIDTH 240 0
DWIDTH 6 0
BBX 7 18 0 0
BITMAP
CE
CE
00
00
00
30
30
30
30
30
30
30
30
30
30
30
30
30
ENDCHAR
STARTCHAR 0458
ENCODING 1112
SWIDTH 240 0
DWIDTH 6 0
BBX 5 24 -1 -6
BITMAP
18
18
00
00
00
18
18
18
18
18
18
18
18
18
18
18
18
18
18
18
18
18
F8
F0
ENDCHAR
STARTCHAR 0459
ENCODING 1113
SWIDTH 840 0
DWIDTH 21 0
BBX 20 13 0 0
BITMAP
0FE000
0C6000
0C6000
0C6000
0C6000
0C7F80
1C7FE0
186060
186070
186070
386060
F07FE0
E07F80
ENDCHAR
STARTCHAR 045A
ENCODING 1114
SWIDTH 880 0
DWIDTH 22 0
BBX 19 13 2 0
BITMAP
C0E000
C0E000
C0E000
C0E000
C0E000
FFFF00
FFFFC0
C0E0E0
C0E060
C0E060
C0E0E0
C0FFC0
C0FF00
ENDCHAR
STARTCHAR 045B
ENCODING 1115
SWIDTH 600 0
DWIDTH 15 0
BBX 13 19 0 0
BITMAP
3000
3000
FFC0
FFC0
3000
3000
33F0
37F8
3C38
3818
3818
3018
3018
3018
3018
3018
3018
3018
3018
ENDCHAR
STARTCHAR 045C
ENCODING 1116
SWIDTH 520 0
DWIDTH 13 0
BBX 10 19 2 0
BITMAP
0700
0600
0C00
1800
0000
0000
C1C0
C380
C700
C600
CC00
D800
F800
DC00
CE00
C700
C380
C1C0
C0C0
ENDCHAR
STARTCHAR 045D
ENCODING 1117
SWIDTH 640 0
DWIDTH 16 0
BBX 12 19 2 0
BITMAP
1C00
0E00
0600
0300
0000
0000
C070
C0F0
C1F0
C1B0
C330
C730
C630
CC30
CC30
D830
F030
F030
E030
ENDCHAR
STARTCHAR 045E
ENCODING 1118
SWIDTH 480 0
DWIDTH 12 0
BBX 12 25 0 -6
BITMAP
3060
3060
1FC0
0F80
0000
0000
E030
6030
6070
3060
3060
38E0
18C0
18C0
0D80
0D80
0D80
0700
0700
0600
0600
0E00
0C00
FC00
F000
ENDCHAR
STARTCHAR 045F
ENCODING 1119
SWIDTH 600 0
DWIDTH 15 0
BBX 12 18 2 -5
BITMAP
C070
C070
C070
C070
C070
C070
C070
C070
C070
C070
C070
FFF0
FFF0
0600
0600
0600
0600
0600
ENDCHAR
STARTCHAR 0460
ENCODING 1120
SWIDTH 880 0
DWIDTH 22 0
BBX 21 18 1 0
BITMAP
C06018
C06018
C06018
C07018
C07018
E03018
E07038
607038
60F830
70D830
30D830
319C70
398C60
198E60
1B06C0
0F06C0
0F0380
060380
ENDCHAR
STARTCHAR 0461
ENCODING 1121
SWIDTH 760 0
DWIDTH 19 0
BBX 19 13 0 0
BITMAP
E0E060
60E060
606060
6060E0
6060C0
7060C0
30F0C0
30F180
39B180
199B80
1F1B00
0F0E00
060E00
ENDCHAR
STARTCHAR 0462
ENCODING 1122
SWIDTH 640 0
DWIDTH 16 0
BBX 16 18 0 0
BITMAP
0C00
0C00
0C00
FFE0
FFE0
0C00
0C00
0C00
0FF8
0FFC
0C0E
0C06
0C07
0C07
0C06
0C0E
0FFC
0FF0
ENDCHAR
STARTCHAR 0463
ENCODING 1123
SWIDTH 600 0
DWIDTH 15 0
BBX 15 16 0 0
BITMAP
1800
1800
1800
FFC0
1800
1800
1800
1800
1FF0
1FFC
180C
180E
180C
180C
1FFC
1FF0
ENDCHAR
STARTCHAR 0464
ENCODING 1124
SWIDTH 920 0
DWIDTH 23 0
BBX 20 18 2 0
BITMAP
E00FE0
E03FF0
E07030
E0E000
E0C000
E1C000
E18000
E18000
FFFFC0
FFFFC0
E18000
E18000
E1C000
E1C000
E0E000
E07000
E03FF0
E01FF0
ENDCHAR
STARTCHAR 0465
ENCODING 1125
SWIDTH 720 0
DWIDTH 18 0
BBX 16 14 2 0
BITMAP
0038
C0FF
C1C2
C380
C300
C300
FFFC
FFFC
C300
C300
C380
C180
C1FF
C07F
ENDCHAR
STARTCHAR 0466
ENCODING 1126
SWIDTH 680 0
DWIDTH 17 0
BBX 17 18 0 0
BITMAP
01C000
01C000
036000
036000
036000
063000
063000
0E3800
0FF800
0FFC00
19CC00
19CC00
39CE00
31C600
71C700
61C300
61C300
E1C380
ENDCHAR
STARTCHAR 0467
ENCODING 1127
SWIDTH 560 0
DWIDTH 14 0
BBX 14 13 0 0
BITMAP
0780
0780
06C0
0CC0
0CE0
1FE0
1FE0
3B30
3330
3338
6318
631C
E30C
ENDCHAR
STARTCHAR 0468
ENCODING 1128
SWIDTH 920 0
DWIDTH 23 0
BBX 21 18 2 0
BITMAP
E01C00
E01C00
E01E00
E03600
E03700
E07300
E06300
E06180
FFFF80
FFFFC0
E1CCC0
E18CE0
E38C60
E30C60
E30C70
E70C30
E60C38
EE0C18
ENDCHAR
STARTCHAR 0469
ENCODING 1129
SWIDTH 760 0
DWIDTH 19 0
BBX 17 13 2 0
BITMAP
C07000
C0D000
C0D800
C19800
C18C00
FFFC00
FFFE00
C36600
C66600
C66300
CE6300
CC6380
DC6180
ENDCHAR
STARTCHAR 046A
ENCODING 1130
SWIDTH 720 0
DWIDTH 18 0
BBX 18 18 0 0
BITMAP
3FFF00
3FFF00
380700
1C0E00
0E0C00
061800
033000
01E000
0FFC00
1FFE00
18C700
38C300
30C300
30C380
70C180
60C180
60C180
E0C1C0
ENDCHAR
STARTCHAR 046B
ENCODING 1131
SWIDTH 640 0
DWIDTH 16 0
BBX 16 13 0 0
BITMAP
3FFC
381C
1C38
0C70
0660
0FF0
1FF8
399C
318C
718C
6186
6186
E187
ENDCHAR
STARTCHAR 046C
ENCODING 1132
SWIDTH 960 0
DWIDTH 24 0
BBX 22 18 2 0
BITMAP
E3FFF8
E3FFF8
E18030
E0C060
E060E0
E031C0
E03980
E01F00
FFFFC0
FFFFE0
E1CE30
E18E30
E38E18
E38E18
E30E18
E30E1C
E70E0C
E60E0C
ENDCHAR
STARTCHAR 046D
ENCODING 1133
SWIDTH 840 0
DWIDTH 21 0
BBX 19 13 2 0
BITMAP
C7FF80
C30180
C18300
C1C600
C0EC00
FFFE00
FFFF00
C33380
C63180
C630C0
CE30C0
CC30E0
CC3060
ENDCHAR
STARTCHAR 046E
ENCODING 1134
SWIDTH 560 0
DWIDTH 14 0
BBX 12 26 1 -5
BITMAP
31E0
1980
0F00
3F80
FFE0
6060
0070
0030
0070
0060
01C0
3F00
3FC0
0060
0030
0030
0030
0030
0070
0FE0
7F80
E000
C000
C000
FFF0
3FF0
ENDCHAR
STARTCHAR 046F
ENCODING 1135
SWIDTH 480 0
DWIDTH 12 0
BBX 11 22 0 -5
BITMAP
2040
31E0
1F00
0F00
7FC0
21C0
00E0
0060
00C0
1F80
1F80
00E0
0060
0060
00E0
0FC0
7F80
E000
C000
F000
7FE0
0020
ENDCHAR
STARTCHAR 0470
ENCODING 1136
SWIDTH 800 0
DWIDTH 20 0
BBX 16 18 2 0
BITMAP
E183
E183
E183
E183
E183
E183
E183
E183
6183
6187
718E
3FFC
0FF8
0180
0180
0180
0180
0180
ENDCHAR
STARTCHAR 0471
ENCODING 1137
SWIDTH 760 0
DWIDTH 19 0
BBX 15 25 2 -6
BITMAP
0300
0300
0300
0300
0300
0300
C30C
C30E
C306
C306
C306
C306
C306
C306
C30E
E30C
731C
3FF8
1FF0
0300
0300
0300
0300
0300
0300
ENDCHAR
STARTCHAR 0472
ENCODING 1138
SWIDTH 760 0
DWIDTH 19 0
BBX 16 18 2 0
BITMAP
0FE0
3FF8
781C
700E
E006
C007
C007
C003
FFFF
FFFF
C003
C007
C007
E006
600E
781C
3FF8
0FF0
ENDCHAR
STARTCHAR 0473
ENCODING 1139
SWIDTH 600 0
DWIDTH 15 0
BBX 13 14 1 0
BITMAP
0300
1FC0
38E0
7030
6030
E038
FFF8
FFF8
E038
6038
6030
7070
3FE0
1FC0
ENDCHAR
STARTCHAR 0474
ENCODING 1140
SWIDTH 600 0
DWIDTH 15 0
BBX 17 18 0 0
BITMAP
C00780
E00F80
600C00
701C00
301800
301800
383800
183000
183000
1C7000
0C6000
0C6000
0E6000
06C000
06C000
03C000
038000
038000
ENDCHAR
STARTCHAR 0475
ENCODING 1141
SWIDTH 480 0
DWIDTH 12 0
BBX 13 14 0 0
BITMAP
0008
E038
6030
6060
7060
30E0
30C0
18C0
18C0
1980
0D80
0D80
0F00
0700
ENDCHAR
STARTCHAR 0476
ENCODING 1142
SWIDTH 600 0
DWIDTH 15 0
BBX 17 24 0 0
BITMAP
398000
19C000
0CC000
046000
000000
000000
C00780
E00F80
600C00
701C00
301800
301800
383800
183000
183000
1C7000
0C6000
0C6000
0E6000
06C000
06C000
03C000
038000
038000
ENDCHAR
STARTCHAR 0477
ENCODING 1143
SWIDTH 480 0
DWIDTH 12 0
BBX 13 19 0 0
BITMAP
7300
3380
1980
08C0
0000
0008
E038
6030
6060
7060
30E0
30C0
18C0
18C0
1980
0D80
0D80
0F00
0700
ENDCHAR
STARTCHAR 0478
ENCODING 1144
SWIDTH 1200 0
DWIDTH 30 0
BBX 28 24 2 -6
BITMAP
0FC00000
3FF00000
78380000
601C0000
E00C0000
C00CC030
C00EE070
C00E6060
C00E7060
C00E30E0
C00E30C0
C00E38C0
C00C1980
E00C1980
601C0D80
70380F00
3FF00F00
1FE00700
00000600
00000600
00000C00
00001C00
0000F800
0000F000
ENDCHAR
STARTCHAR 0479
ENCODING 1145
SWIDTH 1080 0
DWIDTH 27 0
BBX 26 20 1 -6
BITMAP
03000000
1FC300C0
38E381C0
70718180
60318180
E038C380
E038C300
E038E300
E0386600
60386600
60303600
70703C00
3FE03C00
1FC01800
00001800
00003800
00003000
00007000
0003E000
0003C000
ENDCHAR
STARTCHAR 047A
ENCODING 1146
SWIDTH 800 0
DWIDTH 20 0
BBX 17 20 2 -1
BITMAP
01C000
07F000
1FFC00
39DE00
700700
E00300
C00300
C00380
C00180
C00180
C00180
C00180
C00380
C00380
E00300
700700
39CE00
1FFC00
0FF000
01C000
ENDCHAR
STARTCHAR 047B
ENCODING 1147
SWIDTH 640 0
DWIDTH 16 0
BBX 14 16 1 -1
BITMAP
0300
0380
1FE0
3BF0
7018
601C
600C
E00C
E00C
E00C
600C
601C
7138
3FF0
0FE0
0380
ENDCHAR
STARTCHAR 047C
ENCODING 1148
SWIDTH 1000 0
DWIDTH 25 0
BBX 22 26 2 0
BITMAP
00E000
01FE00
030F00
007000
003000
003000
006000
000000
1F87C0
3F8FF0
708038
600018
E00018
C0001C
C0000C
C0000C
C0000C
C0000C
C0300C
C0300C
C0301C
E03018
603038
707070
3FFFF0
1FCFC0
ENDCHAR
STARTCHAR 047D
ENCODING 1149
SWIDTH 880 0
DWIDTH 22 0
BBX 20 22 1 0
BITMAP
01E000
03FE00
030E00
006000
002000
002000
004000
000000
060300
3F0FC0
3900E0
700060
600070
600030
E00030
E06030
E06030
606030
606070
707060
3FFFE0
1F8F80
ENDCHAR
STARTCHAR 047E
ENCODING 1150
SWIDTH 880 0
DWIDTH 22 0
BBX 21 22 1 0
BITMAP
03FF00
022200
000000
000000
C06018
C06018
C06018
C07018
C07018
E03018
E07038
607038
60F830
70D830
30D830
319C70
398C60
198E60
1B06C0
0F06C0
0F0380
060380
ENDCHAR
STARTCHAR 047F
ENCODING 1151
SWIDTH 760 0
DWIDTH 19 0
BBX 19 18 0 0
BITMAP
07FE00
07FC00
044400
000000
000000
E0E060
60E060
606060
6060E0
6060C0
7060C0
30F0C0
30F180
39B180
199B80
1F1B00
0F0E00
060E00
ENDCHAR
STARTCHAR 0480
ENCODING 1152
SWIDTH 640 0
DWIDTH 16 0
BBX 14 24 1 -6
BITMAP
03F8
0FFC
1C0C
3800
7000
7000
6000
6000
E000
E000
6000
6000
6000
7000
3800
3C00
1FE0
07E0
0060
0060
0060
0060
0060
0060
ENDCHAR
STARTCHAR 0481
ENCODING 1153
SWIDTH 480 0
DWIDTH 12 0
BBX 10 20 1 -6
BITMAP
0780
1FC0
38C0
7000
6000
E000
E000
E000
E000
6000
6000
7000
3F80
1F80
0180
0180
0180
0180
0180
0180
ENDCHAR
STARTCHAR 0482
ENCODING 1154
SWIDTH 600 0
DWIDTH 15 0
BBX 12 16 2 0
BITMAP
0040
00C0
10C0
1D80
0F80
0380
03E0
0670
8C00
EC00
7800
1C00
3700
3300
6000
4000
ENDCHAR
STARTCHAR 0483
ENCODING 1155
SWIDTH 0 0
DWIDTH 0 0
BBX 9 4 -11 14
BITMAP
0300
FF80
FF00
8000
ENDCHAR
STARTCHAR 0484
ENCODING 1156
SWIDTH 0 0
DWIDTH 0 0
BBX 9 3 -11 15
BITMAP
1F00
F980
8180
ENDCHAR
STARTCHAR 0485
ENCODING 1157
SWIDTH 0 0
DWIDTH 0 0
BBX 3 4 -9 15
BITMAP
E0
C0
40
20
ENDCHAR
STARTCHAR 0486
ENCODING 1158
SWIDTH 0 0
DWIDTH 0 0
BBX 3 4 -9 15
BITMAP
60
20
60
C0
ENDCHAR
STARTCHAR 0487
ENCODING 1159
SWIDTH 0 0
DWIDTH 0 0
BBX 10 3 -5 19
BITMAP
7C00
7FC0
C3C0
ENDCHAR
STARTCHAR 0488
ENCODING 1160
SWIDTH 0 0
DWIDTH 0 0
BBX 28 25 -14 -5
BITMAP
001F0000
00118000
00000000
00000000
1F000F80
11001880
21801080
00000000
00000000
00000000
00000000
780001E0
CC000330
84000210
00000000
00000000
00000000
00000000
0E000700
1F000F80
31001080
00000000
000E0000
001F0000
00108000
ENDCHAR
STARTCHAR 0489
ENCODING 1161
SWIDTH 0 0
DWIDTH 0 0
BBX 28 28 -14 -7
BITMAP
00030000
00020000
00060000
00060000
04060000
060E0100
06000F00
03001C00
03000800
00000000
00000000
00000000
00000000
F0000180
780001F0
08000030
00000000
00000000
00000000
00000000
01000C00
03800C00
0F000600
1C070600
00060300
00060000
00040000
00040000
ENDCHAR
STARTCHAR 048A
ENCODING 1162
SWIDTH 760 0
DWIDTH 19 0
BBX 17 28 2 -5
BITMAP
183000
1C3000
0FE000
038000
000000
E00E00
E01E00
E01E00
E03E00
E07600
E06600
E0E600
E1C600
E18600
E38600
E70600
E60600
CE0600
DC0600
D80600
F80600
F00780
E00780
000180
000300
000300
000700
000600
ENDCHAR
STARTCHAR 048B
ENCODING 1163
SWIDTH 640 0
DWIDTH 16 0
BBX 14 24 2 -5
BITMAP
3060
30E0
3FC0
0F80
0000
0000
C070
C0F0
C1F0
C1B0
C330
C730
C630
CC30
CC30
D830
F030
F03C
E03C
000C
0018
0018
0018
0038
ENDCHAR
STARTCHAR 048C
ENCODING 1164
SWIDTH 600 0
DWIDTH 15 0
BBX 13 18 1 0
BITMAP
7000
7000
FF00
FF00
7000
7000
7000
7000
7FC0
7FF0
7038
7018
7018
7018
7038
7070
7FF0
7FC0
ENDCHAR
STARTCHAR 048D
ENCODING 1165
SWIDTH 560 0
DWIDTH 14 0
BBX 14 19 0 0
BITMAP
3000
3000
3000
FF00
FF00
3000
3000
3000
3000
3000
3000
3FE0
3FF8
3018
301C
3018
3018
3FF8
3FE0
ENDCHAR
STARTCHAR 048E
ENCODING 1166
SWIDTH 600 0
DWIDTH 15 0
BBX 12 18 2 0
BITMAP
FF00
FFC0
E0E0
E070
E030
E030
E230
E770
E3E0
FFC0
FFC0
E0C0
E040
E000
E000
E000
E000
E000
ENDCHAR
STARTCHAR 048F
ENCODING 1167
SWIDTH 600 0
DWIDTH 15 0
BBX 12 20 2 -6
BITMAP
0600
DFC0
F0E0
E060
E070
C030
C030
C030
C030
E070
E370
E1E0
FFC0
CFC0
C060
C060
C000
C000
C000
C000
ENDCHAR
STARTCHAR 0490
ENCODING 1168
SWIDTH 520 0
DWIDTH 13 0
BBX 11 22 2 0
BITMAP
0060
0060
0060
0060
FFE0
FFE0
E000
E000
E000
E000
E000
E000
E000
E000
E000
E000
E000
E000
E000
E000
E000
E000
ENDCHAR
STARTCHAR 0491
ENCODING 1169
SWIDTH 400 0
DWIDTH 10 0
BBX 8 17 2 0
BITMAP
03
03
03
03
FF
C0
C0
C0
C0
C0
C0
C0
C0
C0
C0
C0
C0
ENDCHAR
STARTCHAR 0492
ENCODING 1170
SWIDTH 520 0
DWIDTH 13 0
BBX 12 18 1 0
BITMAP
7FF0
7FF0
7000
7000
7000
7000
7000
7000
FF80
FF80
7000
7000
7000
7000
7000
7000
7000
7000
ENDCHAR
STARTCHAR 0493
ENCODING 1171
SWIDTH 400 0
DWIDTH 10 0
BBX 10 13 0 0
BITMAP
3FC0
3000
3000
3000
3000
FF80
FF80
3000
3000
3000
3000
3000
3000
ENDCHAR
STARTCHAR 0494
ENCODING 1172
SWIDTH 640 0
DWIDTH 16 0
BBX 13 24 2 -6
BITMAP
FFE0
FFE0
E000
E000
E000
E000
E000
E000
FF00
FFC0
E1E0
E070
E038
E018
E018
E018
E018
E018
0018
0038
0038
0070
1FE0
1FC0
ENDCHAR
STARTCHAR 0495
ENCODING 1173
SWIDTH 520 0
DWIDTH 13 0
BBX 11 19 2 -6
BITMAP
FF00
C000
C000
C000
C000
FC00
FF00
C380
C1C0
C0C0
C0C0
C0E0
C0E0
00E0
00C0
00C0
01C0
3F80
3F00
ENDCHAR
STARTCHAR 0496
ENCODING 1174
SWIDTH 880 0
DWIDTH 22 0
BBX 22 23 0 -5
BITMAP
603038
703030
383060
1830C0
0C31C0
063380
073300
03B600
01BC00
01FE00
033600
073300
0E3380
0C31C0
1830E0
383060
70303C
E0303C
00000C
00000C
00000C
00000C
00000C
ENDCHAR
STARTCHAR 0497
ENCODING 1175
SWIDTH 760 0
DWIDTH 19 0
BBX 20 18 0 -5
BITMAP
70C1C0
38C380
18C700
0CC600
06CC00
03D800
03F800
06DC00
0CCE00
1CC700
38C300
70C1F0
E0C0F0
000070
000070
000070
000070
000070
ENDCHAR
STARTCHAR 0498
ENCODING 1176
SWIDTH 560 0
DWIDTH 14 0
BBX 12 24 1 -6
BITMAP
3F80
FFE0
6070
0070
0030
0070
0060
01E0
3F00
3FC0
0070
0030
0030
0030
0030
8070
FFE0
FF80
0400
0600
0300
0300
0E00
0400
ENDCHAR
STARTCHAR 0499
ENCODING 1177
SWIDTH 480 0
DWIDTH 12 0
BBX 10 20 1 -6
BITMAP
1C00
FF80
4380
01C0
00C0
0180
3F00
3F80
01C0
00C0
00C0
01C0
FF80
FF00
0800
0400
0600
0600
1C00
0800
ENDCHAR
STARTCHAR 049A
ENCODING 1178
SWIDTH 640 0
DWIDTH 16 0
BBX 14 23 2 -5
BITMAP
E038
E070
E0E0
E1C0
E180
E300
E600
EE00
FC00
FC00
EE00
E700
E380
E180
E0C0
E060
E07C
E03C
000C
000C
000C
000C
000C
ENDCHAR
STARTCHAR 049B
ENCODING 1179
SWIDTH 520 0
DWIDTH 13 0
BBX 12 18 2 -5
BITMAP
C1C0
C380
C700
C600
CC00
D800
F800
DC00
CE00
C700
C380
C1F0
C0F0
0070
0070
0070
0070
0070
ENDCHAR
STARTCHAR 049C
ENCODING 1180
SWIDTH 600 0
DWIDTH 15 0
BBX 13 18 2 0
BITMAP
E038
E070
E0E0
EDC0
ED80
EF00
EE00
EE00
FC00
FC00
EE00
EF00
EF80
ED80
ECC0
E060
E070
E038
ENDCHAR
STARTCHAR 049D
ENCODING 1181
SWIDTH 520 0
DWIDTH 13 0
BBX 10 13 2 0
BITMAP
C1C0
CB80
CF00
CE00
CC00
D800
F800
DC00
CE00
CF00
CB80
C9C0
C0C0
ENDCHAR
STARTCHAR 049E
ENCODING 1182
SWIDTH 600 0
DWIDTH 15 0
BBX 15 18 0 0
BITMAP
380E
381C
FE38
FE70
3860
38C0
3980
3B80
3F00
3F00
3B80
39C0
38E0
3860
3830
3818
381C
380E
ENDCHAR
STARTCHAR 049F
ENCODING 1183
SWIDTH 520 0
DWIDTH 13 0
BBX 12 19 0 0
BITMAP
3000
3000
FF80
FF80
3000
3000
3070
30E0
31C0
3180
3300
3600
3E00
3700
3380
31C0
30E0
3070
3030
ENDCHAR
STARTCHAR 04A0
ENCODING 1184
SWIDTH 680 0
DWIDTH 17 0
BBX 17 18 0 0
BITMAP
FE0380
FE0700
0E0E00
0E1C00
0E3800
0E3000
0E6000
0EC000
0FC000
0FC000
0EE000
0E7000
0E3000
0E1800
0E1C00
0E0E00
0E0700
0E0380
ENDCHAR
STARTCHAR 04A1
ENCODING 1185
SWIDTH 600 0
DWIDTH 15 0
BBX 15 13 0 0
BITMAP
FE0E
0618
0630
0670
06E0
07C0
07C0
06E0
0660
0630
0618
060C
060E
ENDCHAR
STARTCHAR 04A2
ENCODING 1186
SWIDTH 720 0
DWIDTH 18 0
BBX 16 23 2 -5
BITMAP
E00C
E00C
E00C
E00C
E00C
E00C
E00C
E00C
FFFC
FFFC
E00C
E00C
E00C
E00C
E00C
E00C
E00F
E00F
0003
0003
0003
0003
0003
ENDCHAR
STARTCHAR 04A3
ENCODING 1187
SWIDTH 640 0
DWIDTH 16 0
BBX 14 18 2 -5
BITMAP
C030
C030
C030
C030
C030
FFF0
FFF0
C030
C030
C030
C030
C03C
C03C
000C
000C
000C
000C
000C
ENDCHAR
STARTCHAR 04A4
ENCODING 1188
SWIDTH 800 0
DWIDTH 20 0
BBX 18 18 2 0
BITMAP
E00FC0
E00FC0
E00C00
E00C00
E00C00
E00C00
E00C00
E00C00
FFFC00
FFFC00
E00C00
E00C00
E00C00
E00C00
E00C00
E00C00
E00C00
E00C00
ENDCHAR
STARTCHAR 04A5
ENCODING 1189
SWIDTH 720 0
DWIDTH 18 0
BBX 16 13 2 0
BITMAP
C03F
C030
C030
C030
C030
FFF0
FFF0
C030
C030
C030
C030
C030
C030
ENDCHAR
STARTCHAR 04A6
ENCODING 1190
SWIDTH 1040 0
DWIDTH 26 0
BBX 24 24 2 -6
BITMAP
FFF800
FFF800
E01800
E01800
E01800
E01800
E01800
E01800
E01FC0
E01FF0
E0183C
E0181C
E0180E
E01806
E01806
E01806
E01807
E01806
000006
000006
00000E
00001C
0007F8
0007F0
ENDCHAR
STARTCHAR 04A7
ENCODING 1191
SWIDTH 840 0
DWIDTH 21 0
BBX 19 19 2 -6
BITMAP
FFE000
C06000
C06000
C06000
C06000
C07E00
C07F80
C063C0
C060C0
C060E0
C060E0
C06060
C06060
000060
0000E0
0000C0
0001C0
001F80
001F00
ENDCHAR
STARTCHAR 04A8
ENCODING 1192
SWIDTH 760 0
DWIDTH 19 0
BBX 16 19 2 -1
BITMAP
0FC0
3FC0
7800
6010
E0FC
C0EE
C1C6
C187
C183
C183
C183
C187
C187
E1C6
60CE
78FC
3FF8
0FFF
000F
ENDCHAR
STARTCHAR 04A9
ENCODING 1193
SWIDTH 640 0
DWIDTH 16 0
BBX 14 15 1 -1
BITMAP
0700
1F00
3800
6060
61F8
E398
E31C
E30C
E30C
631C
6198
71F8
3FF0
1FFC
001C
ENDCHAR
STARTCHAR 04AA
ENCODING 1194
SWIDTH 600 0
DWIDTH 15 0
BBX 13 24 2 -6
BITMAP
07F0
1FF8
3810
7000
E000
E000
C000
C000
C000
C000
C000
C000
C000
E000
7000
7800
3FF0
0FF0
0300
0180
0180
0180
0780
0200
ENDCHAR
STARTCHAR 04AB
ENCODING 1195
SWIDTH 480 0
DWIDTH 12 0
BBX 10 20 1 -6
BITMAP
0700
1FC0
38C0
7000
6000
E000
E000
E000
E000
6000
6000
7000
3FC0
1FC0
0600
0300
0300
0300
0F00
0400
ENDCHAR
STARTCHAR 04AC
ENCODING 1196
SWIDTH 520 0
DWIDTH 13 0
BBX 14 23 0 -5
BITMAP
FFFC
FFFC
0300
0300
0300
0300
0300
0300
0300
0300
0300
0300
0300
0300
0300
0300
03C0
03C0
00C0
00C0
00C0
00C0
00C0
ENDCHAR
STARTCHAR 04AD
ENCODING 1197
SWIDTH 440 0
DWIDTH 11 0
BBX 11 18 0 -5
BITMAP
FFE0
0600
0600
0600
0600
0600
0600
0600
0600
0600
0600
0780
0780
0180
0180
0180
0180
0180
ENDCHAR
STARTCHAR 04AE
ENCODING 1198
SWIDTH 560 0
DWIDTH 14 0
BBX 14 18 0 0
BITMAP
E00C
6018
7038
3030
3870
1860
1CE0
0CC0
07C0
0780
0380
0300
0300
0300
0300
0300
0300
0300
ENDCHAR
STARTCHAR 04AF
ENCODING 1199
SWIDTH 480 0
DWIDTH 12 0
BBX 12 19 0 -6
BITMAP
E030
6030
6070
3060
3060
38C0
18C0
19C0
1D80
0D80
0F00
0700
0700
0600
0600
0600
0600
0600
0600
ENDCHAR
STARTCHAR 04B0
ENCODING 1200
SWIDTH 560 0
DWIDTH 14 0
BBX 14 18 0 0
BITMAP
E00C
6018
7038
3030
3870
1860
1CE0
0CC0
07C0
0780
0380
0300
3FF0
3FF0
0300
0300
0300
0300
ENDCHAR
STARTCHAR 04B1
ENCODING 1201
SWIDTH 480 0
DWIDTH 12 0
BBX 12 19 0 -6
BITMAP
E030
6030
6070
3060
3060
38C0
18C0
19C0
1D80
0D80
0F00
0700
0700
3FE0
3FE0
0600
0600
0600
0600
ENDCHAR
STARTCHAR 04B2
ENCODING 1202
SWIDTH 600 0
DWIDTH 15 0
BBX 15 23 0 -5
BITMAP
600C
7018
3038
1830
1C60
0CE0
06C0
0780
0380
0780
07C0
0EC0
0C60
1870
3830
3038
601E
E00E
0006
0006
0006
0006
0006
ENDCHAR
STARTCHAR 04B3
ENCODING 1203
SWIDTH 520 0
DWIDTH 13 0
BBX 12 18 1 -5
BITMAP
E0E0
60C0
3180
3B80
1F00
0E00
0E00
1F00
1B80
3180
70C0
60F0
C070
0030
0030
0030
0030
0030
ENDCHAR
STARTCHAR 04B4
ENCODING 1204
SWIDTH 840 0
DWIDTH 21 0
BBX 21 23 0 -5
BITMAP
FFF8E0
FFF8E0
0700E0
0700E0
0700E0
0700E0
0700E0
0700E0
0700E0
0700E0
0700E0
0700E0
0700E0
0700E0
0700E0
0700E0
07FFF8
07FFF8
000018
000018
000018
000018
000018
ENDCHAR
STARTCHAR 04B5
ENCODING 1205
SWIDTH 720 0
DWIDTH 18 0
BBX 18 18 0 -5
BITMAP
FFE700
0E0700
0E0700
0E0700
0E0700
0E0700
0E0700
0E0700
0E0700
0E0700
0E0700
0FFFC0
0FFFC0
0001C0
0001C0
0001C0
0001C0
0001C0
ENDCHAR
STARTCHAR 04B6
ENCODING 1206
SWIDTH 680 0
DWIDTH 17 0
BBX 15 23 2 -5
BITMAP
C018
C018
C018
C018
C018
C018
C018
C018
E018
F0F8
7FF8
1F18
0018
0018
0018
0018
001E
001E
0006
0006
0006
0006
0006
ENDCHAR
STARTCHAR 04B7
ENCODING 1207
SWIDTH 600 0
DWIDTH 15 0
BBX 13 18 2 -5
BITMAP
C060
C060
C060
C060
C060
C060
E3E0
7F60
0860
0060
0060
0078
0078
0018
0018
0018
0018
0018
ENDCHAR
STARTCHAR 04B8
ENCODING 1208
SWIDTH 680 0
DWIDTH 17 0
BBX 13 18 2 0
BITMAP
C018
C018
C018
C018
C018
C018
C218
C218
E218
F2F8
7FF8
1F18
0218
0218
0218
0018
0018
0018
ENDCHAR
STARTCHAR 04B9
ENCODING 1209
SWIDTH 600 0
DWIDTH 15 0
BBX 11 13 2 0
BITMAP
C060
C060
C060
CC60
CC60
CC60
EFE0
7F60
1C60
0C60
0C60
0060
0060
ENDCHAR
STARTCHAR 04BA
ENCODING 1210
SWIDTH 680 0
DWIDTH 17 0
BBX 13 18 2 0
BITMAP
E000
E000
E000
E000
E000
E000
E180
FFF0
FC78
E018
E018
E018
E018
E018
E018
E018
E018
E018
ENDCHAR
STARTCHAR 04BB
ENCODING 1211
SWIDTH 600 0
DWIDTH 15 0
BBX 11 19 2 0
BITMAP
C000
C000
C000
C000
C000
C600
DFC0
F0E0
E060
E060
C060
C060
C060
C060
C060
C060
C060
C060
C060
ENDCHAR
STARTCHAR 04BC
ENCODING 1212
SWIDTH 840 0
DWIDTH 21 0
BBX 19 18 1 0
BITMAP
00FE00
03FF00
078380
0601C0
0E00C0
CC00C0
CC00E0
DC00E0
FFFFE0
7FFFE0
1C0000
0C0000
0C0000
0E0000
060000
078040
03FFC0
00FF80
ENDCHAR
STARTCHAR 04BD
ENCODING 1213
SWIDTH 640 0
DWIDTH 16 0
BBX 14 14 1 0
BITMAP
00C0
07F0
0E38
CC1C
980C
D80C
FFFC
7FFC
1800
1800
1C00
0E00
07FC
03FC
ENDCHAR
STARTCHAR 04BE
ENCODING 1214
SWIDTH 840 0
DWIDTH 21 0
BBX 19 23 1 -5
BITMAP
00FE00
03FF00
078380
0601C0
0E00C0
CC00C0
CC00E0
DC00E0
FFFFE0
7FFFE0
1C0000
0C0000
0C0000
0E0000
060000
078040
03FFC0
00FF80
003800
003800
003800
003800
003800
ENDCHAR
STARTCHAR 04BF
ENCODING 1215
SWIDTH 640 0
DWIDTH 16 0
BBX 14 19 1 -5
BITMAP
00C0
07F0
0E38
CC1C
980C
D80C
FFFC
7FFC
1800
1800
1C00
0E00
07FC
03F8
00C0
00C0
00C0
00C0
00C0
ENDCHAR
STARTCHAR 04C0
ENCODING 1216
SWIDTH 320 0
DWIDTH 8 0
BBX 6 18 1 0
BITMAP
FC
FC
30
30
30
30
30
30
30
30
30
30
30
30
30
30
7C
FC
ENDCHAR
STARTCHAR 04C1
ENCODING 1217
SWIDTH 840 0
DWIDTH 21 0
BBX 21 23 0 0
BITMAP
030600
018E00
01FC00
000000
000000
603038
703030
383060
1830C0
0C31C0
063380
073300
03B600
01BC00
01FE00
033600
073300
0E3380
0C31C0
1830E0
383060
703030
E03038
ENDCHAR
STARTCHAR 04C2
ENCODING 1218
SWIDTH 720 0
DWIDTH 18 0
BBX 18 19 0 0
BITMAP
060C00
061C00
07F800
01F000
000000
000000
70C1C0
38C380
18C700
0CC600
06CC00
03D800
03F800
06DC00
0CCE00
1CC700
38C380
70C180
E0C0C0
ENDCHAR
STARTCHAR 04C3
ENCODING 1219
SWIDTH 680 0
DWIDTH 17 0
BBX 14 24 2 -6
BITMAP
E038
E070
E0E0
E1C0
E180
E300
E600
EC00
FC00
FFE0
F1F0
E038
E018
E01C
E00C
E00C
E00C
E00C
000C
001C
0018
0038
0FF0
0FE0
ENDCHAR
STARTCHAR 04C4
ENCODING 1220
SWIDTH 560 0
DWIDTH 14 0
BBX 11 19 2 -6
BITMAP
C1C0
C380
C700
C600
CC00
D800
FF80
E3C0
C0C0
C0E0
C060
C060
C060
0060
0060
00E0
00C0
1FC0
1F00
ENDCHAR
STARTCHAR 04C5
ENCODING 1221
SWIDTH 680 0
DWIDTH 17 0
BBX 18 23 0 -5
BITMAP
07FE00
07FE00
060600
060600
060600
060600
060600
0E0600
0E0600
0C0600
0C0600
0C0600
0C0600
1C0600
180600
180600
F807C0
F00780
000180
000180
000380
000300
000700
ENDCHAR
STARTCHAR 04C6
ENCODING 1222
SWIDTH 560 0
DWIDTH 14 0
BBX 15 18 0 -5
BITMAP
0FF0
0C30
0C30
0C30
0C30
0C30
1C30
1830
1830
1830
3830
F03E
E03C
000C
000C
001C
0018
0018
ENDCHAR
STARTCHAR 04C7
ENCODING 1223
SWIDTH 720 0
DWIDTH 18 0
BBX 14 24 2 -6
BITMAP
E00C
E00C
E00C
E00C
E00C
E00C
E00C
E00C
FFFC
FFFC
E00C
E00C
E00C
E00C
E00C
E00C
E00C
E00C
000C
001C
0018
0038
0FF0
0FE0
ENDCHAR
STARTCHAR 04C8
ENCODING 1224
SWIDTH 600 0
DWIDTH 15 0
BBX 12 19 2 -6
BITMAP
C030
C030
C030
C030
C030
FFF0
FFF0
C030
C030
C030
C030
C030
C030
0030
0070
0060
00E0
0FC0
0F80
ENDCHAR
STARTCHAR 04C9
ENCODING 1225
SWIDTH 720 0
DWIDTH 18 0
BBX 16 23 2 -5
BITMAP
E00C
E00C
E00C
E00C
E00C
E00C
E00C
E00C
FFFC
FFFC
E00C
E00C
E00C
E00C
E00C
E00C
E00F
E00F
0003
0007
0006
0006
000E
ENDCHAR
STARTCHAR 04CA
ENCODING 1226
SWIDTH 640 0
DWIDTH 16 0
BBX 14 18 2 -5
BITMAP
C030
C030
C030
C030
C030
FFF0
FFF0
C030
C030
C030
C030
C03C
C03C
000C
0018
0018
0018
0038
ENDCHAR
STARTCHAR 04CB
ENCODING 1227
SWIDTH 680 0
DWIDTH 17 0
BBX 13 23 2 -5
BITMAP
C018
C018
C018
C018
C018
C018
C018
C018
E018
F0F8
7FF8
1F18
0018
0018
0018
0018
0078
0078
0060
0060
0060
0060
0060
ENDCHAR
STARTCHAR 04CC
ENCODING 1228
SWIDTH 600 0
DWIDTH 15 0
BBX 11 18 2 -5
BITMAP
C060
C060
C060
C060
C060
C060
E3E0
7F60
0860
0060
0060
01E0
01E0
0180
0180
0180
0180
0180
ENDCHAR
STARTCHAR 04CD
ENCODING 1229
SWIDTH 880 0
DWIDTH 22 0
BBX 21 23 2 -5
BITMAP
F001C0
F003C0
F803C0
D803C0
D806C0
CC06C0
CC06C0
EE0CC0
E60CC0
E618C0
E718C0
E318C0
E330C0
E1B0C0
E1F0C0
E1E0C0
E0E0F8
E0C0F0
000030
000030
000060
000060
0000E0
ENDCHAR
STARTCHAR 04CE
ENCODING 1230
SWIDTH 720 0
DWIDTH 18 0
BBX 17 18 2 -5
BITMAP
E01E00
F01E00
F03600
D83600
D83600
D86600
CC6600
CCC600
C6C600
C6C600
C78600
C38780
C30700
000300
000300
000300
000700
000600
ENDCHAR
STARTCHAR 04CF
ENCODING 1231
SWIDTH 320 0
DWIDTH 8 0
BBX 6 18 1 0
BITMAP
FC
FC
30
30
30
30
30
30
30
30
30
30
30
30
30
30
7C
FC
ENDCHAR
STARTCHAR 04D0
ENCODING 1232
SWIDTH 600 0
DWIDTH 15 0
BBX 16 23 0 0
BITMAP
1C38
0C70
07E0
0000
0000
0180
03C0
03C0
03C0
0660
0660
0E70
0C30
0C30
1C38
1FF8
1FF8
301C
300C
700E
6006
6006
C007
ENDCHAR
STARTCHAR 04D1
ENCODING 1233
SWIDTH 560 0
DWIDTH 14 0
BBX 11 19 1 0
BITMAP
7060
30C0
3FC0
0F00
0000
0600
3FC0
30E0
0060
0060
0060
1FE0
7F60
6060
E060
C0E0
E0E0
7FE0
3E60
ENDCHAR
STARTCHAR 04D2
ENCODING 1234
SWIDTH 600 0
DWIDTH 15 0
BBX 16 23 0 0
BITMAP
0420
0E60
0420
0000
0000
0180
03C0
03C0
03C0
0660
0660
0E70
0C30
0C30
1C38
1FF8
1FF8
301C
300C
700E
6006
6006
C007
ENDCHAR
STARTCHAR 04D3
ENCODING 1235
SWIDTH 560 0
DWIDTH 14 0
BBX 11 18 1 0
BITMAP
1980
1980
0000
0000
0600
3FC0
30E0
0060
0060
0060
1FE0
7F60
6060
E060
C0E0
E0E0
7FE0
3E60
ENDCHAR
STARTCHAR 04D4
ENCODING 1236
SWIDTH 880 0
DWIDTH 22 0
BBX 21 18 0 0
BITMAP
00FFF8
00FFF8
01D800
019800
039800
031800
071800
061800
0E1FF0
0C1FF0
0FF800
1FF800
181800
301800
301800
701800
601FF8
E01FF8
ENDCHAR
STARTCHAR 04D5
ENCODING 1237
SWIDTH 840 0
DWIDTH 21 0
BBX 19 14 1 0
BITMAP
0E0700
7F9F80
31F9C0
00E0E0
00E060
00E060
1FFFE0
7FFFE0
60E000
E0E000
C0E000
E1B000
7FBFE0
3E1FC0
ENDCHAR
STARTCHAR 04D6
ENCODING 1238
SWIDTH 520 0
DWIDTH 13 0
BBX 10 23 2 0
BITMAP
60C0
71C0
3F80
0000
0000
FFC0
FFC0
E000
E000
E000
E000
E000
E000
FFC0
FFC0
E000
E000
E000
E000
E000
E000
FFC0
FFC0
ENDCHAR
STARTCHAR 04D7
ENCODING 1239
SWIDTH 560 0
DWIDTH 14 0
BBX 12 19 1 0
BITMAP
3060
30E0
3FC0
0F00
0000
0700
1FC0
38E0
7060
6070
6070
FFF0
FFF0
E000
6000
6000
7000
3FE0
1FE0
ENDCHAR
STARTCHAR 04D8
ENCODING 1240
SWIDTH 720 0
DWIDTH 18 0
BBX 16 18 1 0
BITMAP
1FE0
3FF8
203C
000E
0006
0006
0007
0007
FFFF
FFFF
6007
6007
6006
6006
700E
381C
1FF8
0FF0
ENDCHAR
STARTCHAR 04D9
ENCODING 1241
SWIDTH 560 0
DWIDTH 14 0
BBX 12 14 1 0
BITMAP
0E00
7F80
61C0
00E0
0060
0070
0070
FFF0
FFF0
E060
6060
60E0
3FC0
1F80
ENDCHAR
STARTCHAR 04DA
ENCODING 1242
SWIDTH 720 0
DWIDTH 18 0
BBX 16 23 1 0
BITMAP
0460
0E60
0460
0000
0000
1FE0
3FF8
203C
000E
0006
0006
0007
0007
FFFF
FFFF
6007
6007
6006
6006
700E
381C
1FF8
0FF0
ENDCHAR
STARTCHAR 04DB
ENCODING 1243
SWIDTH 560 0
DWIDTH 14 0
BBX 12 18 1 0
BITMAP
3980
3980
0000
0000
0E00
7F80
61C0
00E0
0060
0070
0070
FFF0
FFF0
E060
6060
60E0
3FC0
1F80
ENDCHAR
STARTCHAR 04DC
ENCODING 1244
SWIDTH 840 0
DWIDTH 21 0
BBX 21 23 0 0
BITMAP
008C00
01CC00
008C00
000000
000000
603038
703030
383060
1830C0
0C31C0
063380
073300
03B600
01BC00
01FE00
033600
073300
0E3380
0C31C0
1830E0
383060
703030
E03038
ENDCHAR
STARTCHAR 04DD
ENCODING 1245
SWIDTH 720 0
DWIDTH 18 0
BBX 18 18 0 0
BITMAP
031800
031800
000000
000000
000000
70C1C0
38C380
18C700
0CC600
06CC00
03D800
03F800
06DC00
0CCE00
1CC700
38C380
70C180
E0C0C0
ENDCHAR
STARTCHAR 04DE
ENCODING 1246
SWIDTH 560 0
DWIDTH 14 0
BBX 12 23 1 0
BITMAP
1880
19C0
1880
0000
0000
3F80
FFE0
6070
0070
0030
0070
0060
01E0
3F00
3FC0
0070
0030
0030
0030
0030
8070
FFE0
FF80
ENDCHAR
STARTCHAR 04DF
ENCODING 1247
SWIDTH 480 0
DWIDTH 12 0
BBX 10 18 1 0
BITMAP
7300
7300
0000
0000
1C00
FF80
4380
01C0
00C0
0180
3F00
3F80
01C0
00C0
00C0
01C0
FF80
FF00
ENDCHAR
STARTCHAR 04E0
ENCODING 1248
SWIDTH 560 0
DWIDTH 14 0
BBX 12 18 1 0
BITMAP
FFE0
FFE0
00E0
01C0
0380
0700
0E00
1C00
1F80
1FE0
0070
0030
0030
0030
0070
8070
FFE0
FF80
ENDCHAR
STARTCHAR 04E1
ENCODING 1249
SWIDTH 480 0
DWIDTH 12 0
BBX 12 19 0 -6
BITMAP
7FE0
00E0
01C0
0380
0300
0600
0C00
1E00
1F80
01C0
0060
0060
0070
0070
0060
0060
80E0
FFC0
7F00
ENDCHAR
STARTCHAR 04E2
ENCODING 1250
SWIDTH 760 0
DWIDTH 19 0
BBX 15 21 2 0
BITMAP
0FF0
0000
0000
E00E
E01E
E01E
E03E
E076
E066
E0E6
E1C6
E186
E386
E706
E606
EE06
DC06
D806
F806
F006
E006
ENDCHAR
STARTCHAR 04E3
ENCODING 1251
SWIDTH 640 0
DWIDTH 16 0
BBX 12 17 2 0
BITMAP
1FC0
1FC0
0000
0000
C070
C0F0
C1F0
C1B0
C330
C730
C630
CC30
CC30
D830
F030
F030
E030
ENDCHAR
STARTCHAR 04E4
ENCODING 1252
SWIDTH 760 0
DWIDTH 19 0
BBX 15 23 2 0
BITMAP
0420
0E60
0460
0000
0000
E00E
E01E
E01E
E03E
E076
E066
E0E6
E1C6
E186
E386
E706
E606
EE06
DC06
D806
F806
F006
E006
ENDCHAR
STARTCHAR 04E5
ENCODING 1253
SWIDTH 640 0
DWIDTH 16 0
BBX 12 18 2 0
BITMAP
19C0
19C0
0000
0000
0000
C070
C0F0
C1F0
C1B0
C330
C730
C630
CC30
CC30
D830
F030
F030
E030
ENDCHAR
STARTCHAR 04E6
ENCODING 1254
SWIDTH 760 0
DWIDTH 19 0
BBX 16 23 2 0
BITMAP
0420
0E60
0460
0000
0000
0FE0
3FF8
781C
700E
E006
C007
C007
C003
C003
C003
C003
C007
C007
E006
600E
781C
3FF8
0FF0
ENDCHAR
STARTCHAR 04E7
ENCODING 1255
SWIDTH 600 0
DWIDTH 15 0
BBX 13 18 1 0
BITMAP
18C0
18C0
0000
0000
0300
1FC0
38E0
7070
6030
E038
E038
E038
E038
6038
6030
7070
3FE0
1FC0
ENDCHAR
STARTCHAR 04E8
ENCODING 1256
SWIDTH 760 0
DWIDTH 19 0
BBX 16 18 2 0
BITMAP
0FE0
3FF8
781C
700E
E006
C007
C007
C003
FFFF
FFFF
C003
C007
C007
E006
600E
781C
3FF8
0FF0
ENDCHAR
STARTCHAR 04E9
ENCODING 1257
SWIDTH 600 0
DWIDTH 15 0
BBX 13 14 1 0
BITMAP
0300
1FC0
38E0
7030
6030
E038
FFF8
FFF8
E038
6038
6030
7070
3FE0
1FC0
ENDCHAR
STARTCHAR 04EA
ENCODING 1258
SWIDTH 760 0
DWIDTH 19 0
BBX 16 22 2 0
BITMAP
0E60
0C60
0000
0000
0FE0
3FF8
781C
700E
E006
C007
C007
C003
FFFF
FFFF
C003
C007
C007
E006
600E
781C
3FF8
0FF0
ENDCHAR
STARTCHAR 04EB
ENCODING 1259
SWIDTH 600 0
DWIDTH 15 0
BBX 13 18 1 0
BITMAP
18C0
18C0
0000
0000
0300
1FC0
38E0
7030
6030
E038
FFF8
FFF8
E038
6038
6030
7070
3FE0
1FC0
ENDCHAR
STARTCHAR 04EC
ENCODING 1260
SWIDTH 600 0
DWIDTH 15 0
BBX 13 23 1 0
BITMAP
2100
7300
2300
0000
0000
7F00
FFC0
40E0
0070
0030
0038
0018
0018
3FF8
3FF8
0018
0018
0038
0030
0070
00E0
FFC0
FF80
ENDCHAR
STARTCHAR 04ED
ENCODING 1261
SWIDTH 480 0
DWIDTH 12 0
BBX 10 18 1 0
BITMAP
6700
6700
0000
0000
3800
FF00
C780
0180
01C0
00C0
7FC0
7FC0
00C0
01C0
0180
0380
FF00
FE00
ENDCHAR
STARTCHAR 04EE
ENCODING 1262
SWIDTH 600 0
DWIDTH 15 0
BBX 15 21 0 0
BITMAP
0FF0
0000
0000
E006
6006
700E
300C
181C
1818
0C38
0C30
0630
0660
0360
03E0
01C0
01C0
0180
0380
7F00
7E00
ENDCHAR
STARTCHAR 04EF
ENCODING 1263
SWIDTH 480 0
DWIDTH 12 0
BBX 12 23 0 -6
BITMAP
1FC0
1FC0
0000
0000
E030
6030
6070
3060
3060
38E0
18C0
18C0
0D80
0D80
0D80
0700
0700
0600
0600
0E00
0C00
FC00
F000
ENDCHAR
STARTCHAR 04F0
ENCODING 1264
SWIDTH 600 0
DWIDTH 15 0
BBX 15 23 0 0
BITMAP
0420
0670
0620
0000
0000
E006
6006
700E
300C
181C
1818
0C38
0C30
0630
0660
0360
03E0
01C0
01C0
0180
0380
7F00
7E00
ENDCHAR
STARTCHAR 04F1
ENCODING 1265
SWIDTH 480 0
DWIDTH 12 0
BBX 12 24 0 -6
BITMAP
18C0
18C0
0000
0000
0000
E030
6030
6070
3060
3060
38E0
18C0
18C0
0D80
0D80
0D80
0700
0700
0600
0600
0E00
0C00
FC00
F000
ENDCHAR
STARTCHAR 04F2
ENCODING 1266
SWIDTH 600 0
DWIDTH 15 0
BBX 15 24 0 0
BITMAP
01CC
0198
0338
0630
0000
0000
E006
6006
700E
300C
181C
1818
0C38
0C30
0630
0660
0360
03E0
01C0
01C0
0180
0380
7F00
7E00
ENDCHAR
STARTCHAR 04F3
ENCODING 1267
SWIDTH 480 0
DWIDTH 12 0
BBX 12 25 0 -6
BITMAP
0730
0660
0CC0
1880
0000
0000
E030
6030
6070
3060
3060
38E0
18C0
18C0
0D80
0D80
0D80
0700
0700
0600
0600
0E00
0C00
FC00
F000
ENDCHAR
STARTCHAR 04F4
ENCODING 1268
SWIDTH 680 0
DWIDTH 17 0
BBX 13 23 2 0
BITMAP
0880
18C0
18C0
0000
0000
C018
C018
C018
C018
C018
C018
C018
C018
E018
F0F8
7FF8
1F18
0018
0018
0018
0018
0018
0018
ENDCHAR
STARTCHAR 04F5
ENCODING 1269
SWIDTH 600 0
DWIDTH 15 0
BBX 11 18 2 0
BITMAP
3180
3180
0000
0000
0000
C060
C060
C060
C060
C060
C060
E3E0
7F60
0860
0060
0060
0060
0060
ENDCHAR
STARTCHAR 04F6
ENCODING 1270
SWIDTH 520 0
DWIDTH 13 0
BBX 11 23 2 -5
BITMAP
FFE0
FFE0
E000
E000
E000
E000
E000
E000
E000
E000
E000
E000
E000
E000
E000
E000
F800
F800
1800
1800
1800
1800
1800
ENDCHAR
STARTCHAR 04F7
ENCODING 1271
SWIDTH 400 0
DWIDTH 10 0
BBX 8 18 2 -5
BITMAP
FF
C0
C0
C0
C0
C0
C0
C0
C0
C0
C0
F0
F0
30
30
30
30
30
ENDCHAR
STARTCHAR 04F8
ENCODING 1272
SWIDTH 840 0
DWIDTH 21 0
BBX 17 23 2 0
BITMAP
023000
073000
023000
000000
000000
E00180
E00180
E00180
E00180
E00180
E00180
E00180
E00180
FFC180
FFE180
E07180
E07180
E03180
E03180
E07180
E0E180
FFE180
FF8180
ENDCHAR
STARTCHAR 04F9
ENCODING 1273
SWIDTH 760 0
DWIDTH 19 0
BBX 15 18 2 0
BITMAP
0C60
0C60
0000
0000
0000
C006
C006
C006
C006
C006
FF86
FFC6
C0E6
C066
C066
C0E6
FFC6
FF86
ENDCHAR
STARTCHAR 04FA
ENCODING 1274
SWIDTH 520 0
DWIDTH 13 0
BBX 12 23 1 -5
BITMAP
7FF0
7FF0
7000
7000
7000
7000
7000
7000
FF80
FF80
7000
7000
7000
7000
7000
7000
7C00
7C00
0C00
0C00
1C00
7800
7000
ENDCHAR
STARTCHAR 04FB
ENCODING 1275
SWIDTH 400 0
DWIDTH 10 0
BBX 10 18 0 -5
BITMAP
3FC0
3000
3000
3000
3000
FF80
FF80
3000
3000
3000
3000
3C00
3C00
0C00
0C00
0C00
3C00
3800
ENDCHAR
STARTCHAR 04FC
ENCODING 1276
SWIDTH 600 0
DWIDTH 15 0
BBX 15 23 0 -5
BITMAP
600C
7018
3038
1830
1C60
0CE0
06C0
0780
0380
0780
07C0
0EC0
0C60
1870
3830
3038
601E
E00E
0006
0006
0006
001E
001C
ENDCHAR
STARTCHAR 04FD
ENCODING 1277
SWIDTH 520 0
DWIDTH 13 0
BBX 12 18 1 -5
BITMAP
E0E0
60C0
3180
3B80
1F00
0E00
0E00
1F00
1B80
3180
70C0
60F0
C070
0030
0030
0030
00F0
00E0
ENDCHAR
STARTCHAR 04FE
ENCODING 1278
SWIDTH 560 0
DWIDTH 14 0
BBX 14 18 0 0
BITMAP
601C
7018
3038
1830
1C60
0CE0
06C0
0780
3FF8
3FF8
07C0
0EC0
0C60
1870
3830
3038
601C
E00C
ENDCHAR
STARTCHAR 04FF
ENCODING 1279
SWIDTH 520 0
DWIDTH 13 0
BBX 11 13 1 0
BITMAP
E0E0
60C0
3180
3B80
1F00
FFE0
FFE0
1F00
1B80
3180
70C0
60E0
C060
ENDCHAR
STARTCHAR 0500
ENCODING 1280
SWIDTH 600 0
DWIDTH 15 0
BBX 11 18 2 0
BITMAP
0060
0060
0060
0060
0060
0060
0060
0060
3FE0
7FE0
E060
C060
C060
C060
C060
E060
7FE0
1FE0
ENDCHAR
STARTCHAR 0501
ENCODING 1281
SWIDTH 600 0
DWIDTH 15 0
BBX 12 19 1 0
BITMAP
0030
0030
0030
0030
0030
0630
1FB0
38F0
7070
6030
E030
E030
E030
E030
6030
6030
7070
3FF0
1FB0
ENDCHAR
STARTCHAR 0502
ENCODING 1282
SWIDTH 880 0
DWIDTH 22 0
BBX 18 18 2 0
BITMAP
00E000
00E000
00E000
00E000
00E000
00E000
00E000
00E000
3FE0C0
7FE0C0
E0E0C0
C0E0C0
C0E0C0
C0E0C0
C0E0C0
E0E1C0
7FBF80
3F1F00
ENDCHAR
STARTCHAR 0503
ENCODING 1283
SWIDTH 880 0
DWIDTH 22 0
BBX 19 19 1 0
BITMAP
003000
003000
003000
003000
003000
063000
3FB000
38F000
607000
607000
E03060
E03060
E03060
E03060
603060
607060
707060
3FDFE0
1F8FC0
ENDCHAR
STARTCHAR 0504
ENCODING 1284
SWIDTH 880 0
DWIDTH 22 0
BBX 19 18 1 0
BITMAP
3F8000
FFC000
C0E000
006000
006000
006000
00E000
01C000
3F0060
3FC060
00E060
006060
007060
007060
007060
003060
003FE0
001F80
ENDCHAR
STARTCHAR 0505
ENCODING 1285
SWIDTH 800 0
DWIDTH 20 0
BBX 17 14 1 0
BITMAP
3C0000
FF0000
C38000
018000
018000
038180
3F0180
3F0180
018180
01C180
00C180
00C380
00FF00
007E00
ENDCHAR
STARTCHAR 0506
ENCODING 1286
SWIDTH 600 0
DWIDTH 15 0
BBX 14 23 1 -5
BITMAP
3F80
FFE0
C0E0
0070
0070
0060
0060
01C0
3F00
3FC0
00E0
0070
0030
0030
0030
0030
003C
003C
000C
000C
000C
000C
000C
ENDCHAR
STARTCHAR 0507
ENCODING 1287
SWIDTH 520 0
DWIDTH 13 0
BBX 12 19 1 -5
BITMAP
1C00
FF00
C380
01C0
01C0
0180
3F00
3F00
0180
00C0
00C0
00C0
00F0
00F0
0030
0030
0030
0030
0030
ENDCHAR
STARTCHAR 0508
ENCODING 1288
SWIDTH 960 0
DWIDTH 24 0
BBX 22 18 0 0
BITMAP
07FE00
07FE00
060600
060600
060600
060600
060600
0E0600
0E060C
0C060C
0C060C
0C060C
0C060C
1C060C
18060C
18060C
F807FC
F003F8
ENDCHAR
STARTCHAR 0509
ENCODING 1289
SWIDTH 840 0
DWIDTH 21 0
BBX 19 13 0 0
BITMAP
0FF000
0C3000
0C3000
0C3000
0C3060
0C3060
1C3060
183060
183060
183060
383860
F01FE0
E00FC0
ENDCHAR
STARTCHAR 050A
ENCODING 1290
SWIDTH 1000 0
DWIDTH 25 0
BBX 21 18 2 0
BITMAP
E01C00
E01C00
E01C00
E01C00
E01C00
E01C00
E01C00
E01C00
FFFC18
FFFC18
E01C18
E01C18
E01C18
E01C18
E01C18
E00C38
E00FF0
E007E0
ENDCHAR
STARTCHAR 050B
ENCODING 1291
SWIDTH 880 0
DWIDTH 22 0
BBX 19 13 2 0
BITMAP
C07000
C07000
C07000
C07000
C07060
FFF060
FFF060
C07060
C07060
C07060
C030E0
C03FC0
C01F80
ENDCHAR
STARTCHAR 050C
ENCODING 1292
SWIDTH 760 0
DWIDTH 19 0
BBX 16 18 2 0
BITMAP
07F8
1FFC
380C
7000
E000
E000
C000
C000
C000
C07F
C07F
C007
C006
E006
700E
781C
3FF8
0FF0
ENDCHAR
ENDFONT
